<svg xmlns="http://www.w3.org/2000/svg" version="1.1" xmlns:xlink="http://www.w3.org/1999/xlink" width="1000" height="1000"><style>
    #light-icon {
      display: inline;
    }
    #dark-icon {
      display: none;
    }

    @media (prefers-color-scheme: dark) {
      #light-icon {
        display: none;
      }
      #dark-icon {
        display: inline;
      }
    }
  </style><g id="light-icon"><svg xmlns="http://www.w3.org/2000/svg" version="1.1" xmlns:xlink="http://www.w3.org/1999/xlink" width="1000" height="1000"><g><g transform="matrix(0.7919035778203646,0,0,0.7919035778203646,0,23.59872661904683)"><svg xmlns="http://www.w3.org/2000/svg" version="1.1" xmlns:xlink="http://www.w3.org/1999/xlink" width="1262.78" height="1203.18"><svg id="Layer_1" xmlns="http://www.w3.org/2000/svg" viewBox="0 0 1262.78 1203.18"><defs><style>.cls-1{fill:#185a1b;}</style></defs><path class="cls-1" d="M405.86,386.86c1.1-3.88,2.16-7.76,3.17-11.65-.18,0-.37-.02-.54-.04-1.21,4.18-2.36,8.38-3.37,12.56h.05c.23-.29.45-.58.69-.87Z"></path><path class="cls-1" d="M1259.04,342.59c-10.69-15.11-76.16-8.82-98.85-8.82-25.26,0-79.51,0-152.24,0-3.48,17.61-9.58,35.31-15.84,52.97h193.73c-5.03,10.33-11.5,20.68-17.31,30.86l-159.05,275.92c-23.89,43.02-51.04,40.66-93.18,42.49l-599.45,29.68c-22.89,1.36-45.73,3.22-68.22,2.87,2.22-10.92,1.21-22.82,1.36-33.52l.18-77.95c.51-90.17,1.89-180.6.19-270.36,29.77-.74,59.42,0,89.01,0h50.23c2.58-9.85,6.26-19.67,10.43-29.45-1.12-.8-1.32-2.6-.14-4.12,1.42-1.83,2.87-3.64,4.35-5.44,2.1-4.64,4.27-9.26,6.43-13.88-29.48,0-58.69,0-87.4,0-24.43,0-49.16.52-73.43,0,1.52-13.46.77-26.93.66-40.12l-.91-67.65c-.89-60.35,9.99-81.4-74.16-81.33l-114.11.02c-8.91,0-18.24-.65-27.25.05-27.7,4.09-45.64,35.75-25.38,49.66,10.05,6.91,30.72,4.3,44.09,4.27l104.65.02c10.03.06,20.08.59,30.28-.07l-.2,644.36c-.14,18.93-1.23,38.29-.63,57.02.72,22.96,10.22,23.14,34.68,23.57,58.35,1.04,117.42.11,176.08.1h465.39c12.29,0,59.01,1.8,69.1-1.06,27.73-7.86,40.41-40.45,16.65-49.65-11.28-4.36-101.34-2.3-123.77-2.29l-520.34.02c-18.95.02-39.11,1.76-57.41,0-.39-11.86-2.58-37.95.35-49.11l.78-.79c19.83.73,40-.71,60.3-1.89l602.24-28.69c82.21-4.22,112.83-15.28,159.42-96.19l172.84-297.31c10.39-18.07,27.09-38.26,15.85-54.19Z"></path><path class="cls-1" d="M739.32,978.94c2.06-.25,4.11-.46,6.15-.62,2.04-.16,4.07-.27,6.09-.35,2.02-.07,4.03-.09,6.03-.07,2,.02,3.98.09,5.94.2,1.97.11,3.91.27,5.85.47,1.93.2,3.84.45,5.73.74,1.89.29,3.76.63,5.61,1.01,1.85.38,3.67.81,5.46,1.28,1.8.47,3.57.99,5.31,1.55,1.74.56,3.46,1.16,5.14,1.8,1.69.64,3.34,1.33,4.97,2.06,1.63.73,3.22,1.5,4.77,2.31,1.56.81,3.08,1.66,4.57,2.56,1.49.89,2.94,1.82,4.36,2.8,1.42.97,2.8,1.98,4.13,3.03,1.34,1.05,2.64,2.13,3.9,3.26,1.26,1.12,2.48,2.28,3.65,3.47,1.18,1.19,2.31,2.42,3.4,3.68,1.09,1.26,2.14,2.55,3.14,3.88,1,1.33,1.96,2.68,2.87,4.07.91,1.39,1.78,2.8,2.6,4.25.82,1.45,1.58,2.92,2.31,4.42.72,1.5,1.4,3.03,2.02,4.58.63,1.55,1.2,3.13,1.73,4.73.53,1.6,1,3.22,1.43,4.87.43,1.64.8,3.31,1.13,4.99.33,1.68.6,3.39.83,5.11.23,1.72.4,3.45.52,5.2.12,1.75.2,3.51.22,5.29.02,1.78,0,3.57-.09,5.37-.08,1.8-.21,3.61-.39,5.43-.18,1.82-.42,3.65-.7,5.48-.28,1.83-.62,3.67-1,5.51-.39,1.84-.82,3.69-1.3,5.54-.48,1.85-1.02,3.7-1.6,5.54-.58,1.85-1.21,3.7-1.89,5.54-.68,1.84-1.41,3.68-2.18,5.52s-1.6,3.67-2.46,5.49c-.87,1.82-1.78,3.64-2.74,5.44-.96,1.81-1.96,3.6-3.01,5.39-1.05,1.78-2.14,3.56-3.27,5.32-1.13,1.76-2.31,3.51-3.53,5.24-1.22,1.73-2.48,3.44-3.77,5.14-1.3,1.7-2.64,3.37-4.01,5.03-1.38,1.66-2.79,3.29-4.24,4.91-1.45,1.62-2.93,3.21-4.45,4.78-1.52,1.57-3.07,3.11-4.66,4.63-1.59,1.52-3.21,3.01-4.85,4.47-1.65,1.47-3.33,2.9-5.04,4.31-1.71,1.41-3.44,2.78-5.2,4.13-1.76,1.35-3.55,2.66-5.37,3.95-1.81,1.28-3.65,2.53-5.5,3.75-1.86,1.22-3.74,2.4-5.64,3.54-1.9,1.14-3.82,2.25-5.76,3.33-1.94,1.07-3.89,2.11-5.86,3.11s-3.95,1.96-5.95,2.87c-2,.92-4.01,1.8-6.03,2.64-2.02.84-4.05,1.64-6.08,2.39-2.04.76-4.08,1.47-6.13,2.15-2.05.67-4.1,1.31-6.16,1.89-2.06.59-4.12,1.13-6.18,1.63-2.06.5-4.12.96-6.18,1.37-2.06.41-4.11.78-6.17,1.1-2.05.32-4.1.6-6.14.84-2.03.23-4.05.42-6.06.56-2.01.14-4.01.24-6,.29-1.99.05-3.97.06-5.93.02-1.97-.04-3.92-.12-5.85-.25-1.93-.13-3.85-.3-5.75-.52-1.9-.22-3.78-.48-5.63-.78-1.86-.31-3.7-.66-5.51-1.05-1.82-.39-3.61-.83-5.37-1.31-1.77-.48-3.51-1.01-5.22-1.57-1.71-.57-3.4-1.18-5.05-1.83-1.66-.65-3.29-1.35-4.88-2.08-1.6-.74-3.16-1.51-4.69-2.33-1.53-.82-3.03-1.67-4.5-2.57-1.46-.9-2.89-1.83-4.28-2.81-1.39-.97-2.75-1.98-4.07-3.03-1.32-1.05-2.6-2.13-3.83-3.26-1.24-1.12-2.44-2.28-3.6-3.47-1.16-1.19-2.28-2.42-3.35-3.67-1.07-1.26-2.11-2.55-3.09-3.87-.99-1.32-1.94-2.67-2.84-4.06-.9-1.38-1.76-2.79-2.56-4.24-.81-1.44-1.57-2.91-2.29-4.4-.72-1.5-1.39-3.02-2.01-4.56-.62-1.55-1.2-3.12-1.72-4.71-.53-1.59-1.01-3.21-1.43-4.84-.43-1.64-.81-3.29-1.14-4.97-.33-1.67-.61-3.37-.84-5.08-.23-1.71-.42-3.43-.55-5.18-.13-1.74-.22-3.49-.25-5.26-.03-1.77-.02-3.55.05-5.34.07-1.79.19-3.59.35-5.4.17-1.81.39-3.62.65-5.44.27-1.82.58-3.65.95-5.48.37-1.83.78-3.67,1.25-5.5.46-1.84.98-3.67,1.54-5.51.56-1.84,1.17-3.67,1.83-5.51.66-1.83,1.36-3.67,2.12-5.49.75-1.83,1.55-3.65,2.4-5.46.85-1.81,1.74-3.62,2.67-5.42.94-1.8,1.92-3.58,2.94-5.36,1.02-1.78,2.09-3.54,3.2-5.29,1.11-1.75,2.26-3.49,3.46-5.21,1.19-1.72,2.43-3.43,3.7-5.11,1.28-1.69,2.59-3.36,3.94-5.01,1.35-1.65,2.74-3.28,4.17-4.89,1.43-1.61,2.89-3.19,4.39-4.76,1.5-1.56,3.03-3.1,4.59-4.62,1.57-1.51,3.17-3,4.79-4.46,1.63-1.46,3.29-2.89,4.98-4.3,1.69-1.41,3.41-2.78,5.15-4.13,1.74-1.34,3.51-2.66,5.31-3.94,1.8-1.28,3.62-2.53,5.46-3.75,1.84-1.22,3.71-2.4,5.6-3.55,1.89-1.15,3.79-2.26,5.72-3.33,1.93-1.08,3.87-2.12,5.83-3.12,1.96-1,3.93-1.96,5.92-2.89,1.99-.92,3.99-1.81,6-2.66,2.01-.85,4.03-1.65,6.07-2.42,2.03-.77,4.07-1.49,6.12-2.17,2.05-.68,4.1-1.32,6.16-1.92,2.05-.6,4.11-1.15,6.17-1.67,2.06-.51,4.12-.98,6.18-1.41,2.06-.43,4.12-.81,6.17-1.14,2.06-.34,4.11-.63,6.15-.88ZM709.85,1149.1c1.04-.06,2.09-.14,3.14-.25,1.05-.1,2.1-.23,3.16-.39,1.06-.15,2.12-.33,3.18-.52,1.06-.2,2.13-.42,3.19-.66s2.13-.51,3.19-.8c1.06-.29,2.12-.6,3.19-.93,1.06-.33,2.12-.68,3.17-1.06,1.05-.38,2.1-.77,3.15-1.19,1.05-.42,2.09-.85,3.12-1.31,1.04-.46,2.06-.94,3.08-1.44,1.02-.5,2.04-1.02,3.04-1.55,1.01-.54,2-1.1,2.99-1.67.99-.58,1.97-1.17,2.94-1.78.97-.61,1.92-1.24,2.87-1.89.95-.65,1.88-1.31,2.8-1.99s1.83-1.38,2.72-2.09c.89-.71,1.77-1.44,2.63-2.18.87-.74,1.71-1.5,2.55-2.27.83-.77,1.65-1.56,2.45-2.35.8-.8,1.58-1.6,2.34-2.43.76-.82,1.51-1.65,2.24-2.5.73-.84,1.44-1.7,2.12-2.56.69-.86,1.36-1.74,2.01-2.62.65-.88,1.27-1.77,1.88-2.67.61-.9,1.19-1.8,1.75-2.72.56-.91,1.1-1.83,1.62-2.76.52-.93,1.01-1.86,1.48-2.79.47-.94.92-1.88,1.35-2.82.42-.94.83-1.89,1.2-2.84.38-.95.73-1.9,1.06-2.85.33-.95.63-1.91.91-2.86.28-.95.53-1.91.76-2.86.23-.95.43-1.9.6-2.85.18-.95.33-1.89.45-2.84.13-.94.22-1.88.3-2.82.07-.93.12-1.86.14-2.79.02-.92.02-1.84-.01-2.75-.03-.91-.09-1.82-.17-2.71-.08-.9-.19-1.79-.33-2.67-.13-.88-.3-1.75-.48-2.61-.19-.86-.4-1.71-.64-2.55-.24-.84-.5-1.67-.79-2.49-.29-.82-.6-1.62-.94-2.42-.34-.79-.7-1.57-1.09-2.34-.39-.77-.8-1.52-1.24-2.25-.43-.74-.89-1.46-1.38-2.17-.48-.71-.99-1.4-1.52-2.07-.53-.68-1.08-1.33-1.65-1.97-.57-.64-1.17-1.27-1.79-1.87-.62-.61-1.25-1.2-1.91-1.77-.66-.57-1.34-1.12-2.04-1.65-.7-.53-1.42-1.05-2.15-1.54-.74-.49-1.49-.96-2.27-1.41-.77-.45-1.57-.88-2.37-1.3-.81-.41-1.64-.8-2.48-1.17-.84-.37-1.7-.72-2.57-1.04-.87-.33-1.76-.63-2.66-.91-.9-.28-1.82-.54-2.75-.78-.93-.24-1.87-.45-2.82-.64-.95-.19-1.92-.36-2.9-.5-.97-.15-1.96-.27-2.96-.37-1-.1-2-.17-3.01-.23-1.01-.05-2.04-.08-3.06-.09-1.03,0-2.06.01-3.11.05-1.41.05-2.82.15-4.25.29-1.43.14-2.86.32-4.29.54-1.44.22-2.88.49-4.32.8-1.44.3-2.88.65-4.32,1.04-1.44.39-2.88.82-4.31,1.28s-2.86.98-4.28,1.52c-1.42.55-2.83,1.13-4.23,1.75-1.4.62-2.79,1.28-4.16,1.97-1.38.69-2.74,1.42-4.08,2.19-1.34.77-2.67,1.56-3.97,2.39-1.31.83-2.59,1.69-3.85,2.59-1.26.89-2.5,1.82-3.71,2.77-1.21.95-2.4,1.93-3.56,2.94-1.16,1.01-2.29,2.04-3.39,3.1-1.1,1.06-2.17,2.14-3.21,3.25-1.04,1.1-2.04,2.23-3.01,3.37-.97,1.14-1.9,2.31-2.8,3.49-.9,1.18-1.75,2.38-2.58,3.59-.82,1.21-1.6,2.44-2.34,3.68-.74,1.24-1.44,2.49-2.1,3.75-.66,1.26-1.27,2.53-1.85,3.8-.57,1.28-1.1,2.55-1.58,3.84-.48,1.28-.92,2.57-1.32,3.86-.39,1.29-.74,2.57-1.04,3.86-.3,1.29-.55,2.57-.76,3.85-.21,1.28-.37,2.55-.48,3.82s-.18,2.52-.2,3.77,0,2.48.08,3.71c.07,1.22.2,2.43.37,3.63s.39,2.37.65,3.53c.26,1.16.57,2.3.92,3.42.36,1.12.76,2.22,1.2,3.3.45,1.08.94,2.13,1.47,3.16.54,1.03,1.11,2.03,1.73,3.01.62.98,1.28,1.92,1.99,2.84.7.92,1.45,1.81,2.23,2.66.79.86,1.61,1.68,2.47,2.47.86.79,1.76,1.55,2.7,2.27.94.72,1.91,1.41,2.91,2.06,1.01.65,2.05,1.27,3.12,1.84,1.07.58,2.17,1.12,3.3,1.62,1.13.5,2.29.96,3.48,1.38,1.19.42,2.4.8,3.64,1.14,1.24.34,2.5.64,3.79.89,1.28.26,2.59.47,3.91.65,1.32.17,2.66.3,4.02.39,1.36.09,2.73.14,4.11.14,1.39,0,2.78-.03,4.19-.11Z"></path><path class="cls-1" d="M291.75,978.36c2.02-.13,4.04-.21,6.04-.24,2-.04,3.99-.03,5.97.03,1.98.05,3.94.15,5.89.3,1.95.15,3.87.34,5.78.57,1.91.23,3.8.51,5.67.84,1.87.33,3.72.69,5.55,1.11,1.83.41,3.63.87,5.41,1.37,1.78.5,3.53,1.04,5.25,1.63,1.72.59,3.42,1.22,5.09,1.89,1.67.67,3.31,1.39,4.91,2.14,1.61.76,3.18,1.55,4.72,2.39,1.54.84,3.04,1.71,4.52,2.63,1.47.92,2.91,1.87,4.31,2.86,1.4.99,2.76,2.02,4.08,3.09,1.32,1.07,2.6,2.17,3.85,3.31,1.24,1.14,2.45,2.32,3.61,3.53,1.16,1.21,2.28,2.45,3.35,3.73,1.08,1.28,2.11,2.59,3.09,3.93.99,1.34,1.93,2.71,2.83,4.11.9,1.4,1.75,2.83,2.56,4.29.8,1.46,1.56,2.94,2.28,4.45.71,1.51,1.37,3.05,1.99,4.61.62,1.56,1.18,3.14,1.7,4.75.52,1.61.99,3.23,1.41,4.88.42,1.65.79,3.32,1.11,5.01.32,1.69.59,3.39.81,5.11.22,1.72.39,3.46.51,5.21.12,1.75.19,3.51.2,5.29.02,1.78-.01,3.56-.1,5.36-.08,1.8-.22,3.6-.4,5.42-.18,1.81-.42,3.64-.7,5.46-.28,1.83-.62,3.66-1,5.5-.38,1.84-.82,3.67-1.3,5.51-.48,1.84-1.01,3.68-1.59,5.52-.58,1.84-1.21,3.68-1.88,5.51-.67,1.83-1.4,3.66-2.17,5.49-.77,1.83-1.59,3.64-2.45,5.45-.86,1.81-1.77,3.61-2.72,5.41-.95,1.79-1.95,3.57-2.99,5.34s-2.12,3.53-3.25,5.27c-1.13,1.74-2.29,3.47-3.5,5.18-1.21,1.71-2.46,3.41-3.74,5.08-1.29,1.68-2.61,3.34-3.98,4.98-1.36,1.64-2.76,3.25-4.2,4.85-1.44,1.59-2.91,3.17-4.41,4.72-1.51,1.55-3.05,3.07-4.62,4.57-1.57,1.5-3.18,2.97-4.81,4.41-1.64,1.44-3.3,2.86-4.99,4.24-1.69,1.39-3.41,2.74-5.16,4.06-1.75,1.32-3.52,2.62-5.31,3.88-1.8,1.26-3.61,2.49-5.46,3.68-1.84,1.19-3.71,2.35-5.59,3.47-1.88,1.12-3.78,2.21-5.7,3.26-1.92,1.05-3.86,2.06-5.81,3.03-1.95.97-3.92,1.91-5.9,2.8-1.98.9-3.97,1.75-5.97,2.57-2,.82-4.01,1.59-6.03,2.33-2.02.73-4.05,1.43-6.08,2.08-2.03.65-4.07,1.26-6.11,1.82-2.04.56-4.08,1.08-6.13,1.56-2.04.48-4.09.91-6.13,1.31-2.04.39-4.08.74-6.12,1.04-2.03.3-4.06.56-6.09.77-2.02.21-4.04.38-6.05.5-2.01.12-4,.2-5.98.23-1.98.03-3.95.02-5.91-.04-1.96-.06-3.9-.16-5.83-.31-1.93-.15-3.84-.34-5.73-.58-1.89-.24-3.77-.52-5.62-.84-1.85-.33-3.69-.7-5.5-1.11-1.81-.42-3.6-.88-5.36-1.38-1.76-.5-3.5-1.05-5.21-1.64-1.71-.59-3.39-1.22-5.04-1.89-1.65-.67-3.27-1.39-4.87-2.15-1.59-.75-3.15-1.55-4.68-2.39-1.53-.84-3.02-1.72-4.48-2.63-1.46-.92-2.88-1.87-4.27-2.87-1.39-.99-2.74-2.02-4.06-3.09-1.31-1.07-2.59-2.18-3.83-3.32-1.24-1.14-2.43-2.32-3.59-3.52-1.16-1.21-2.27-2.45-3.34-3.73-1.07-1.28-2.1-2.58-3.09-3.92-.99-1.34-1.93-2.71-2.82-4.11-.9-1.4-1.75-2.83-2.56-4.28-.81-1.46-1.57-2.94-2.28-4.45-.71-1.51-1.38-3.04-2-4.6-.62-1.56-1.19-3.14-1.72-4.75-.52-1.6-1-3.23-1.43-4.88-.43-1.65-.8-3.31-1.13-5-.33-1.69-.61-3.39-.84-5.11-.23-1.72-.41-3.45-.54-5.2-.13-1.75-.21-3.51-.24-5.28-.03-1.77-.01-3.56.06-5.36.07-1.8.19-3.6.36-5.41.17-1.81.39-3.63.66-5.46.27-1.83.59-3.66.96-5.49.37-1.83.79-3.67,1.25-5.51.47-1.84.98-3.67,1.54-5.51.57-1.84,1.18-3.67,1.84-5.51.66-1.83,1.37-3.66,2.12-5.48.75-1.82,1.55-3.64,2.4-5.45.85-1.81,1.74-3.61,2.67-5.4.94-1.79,1.92-3.57,2.94-5.34,1.03-1.77,2.1-3.52,3.21-5.27,1.11-1.74,2.26-3.47,3.46-5.18,1.2-1.71,2.43-3.41,3.71-5.08,1.27-1.68,2.59-3.33,3.94-4.97,1.35-1.64,2.74-3.25,4.17-4.85,1.43-1.59,2.89-3.16,4.39-4.71,1.5-1.55,3.03-3.07,4.59-4.56,1.56-1.5,3.16-2.97,4.79-4.41,1.63-1.44,3.29-2.86,4.97-4.24,1.69-1.38,3.4-2.74,5.14-4.06,1.74-1.32,3.51-2.62,5.31-3.88,1.79-1.26,3.61-2.49,5.45-3.68,1.84-1.19,3.7-2.35,5.59-3.47,1.88-1.12,3.79-2.21,5.71-3.26,1.92-1.05,3.86-2.06,5.82-3.04,1.96-.97,3.93-1.91,5.91-2.81,1.98-.9,3.98-1.75,5.99-2.57,2.01-.82,4.03-1.59,6.05-2.33,2.03-.73,4.06-1.43,6.1-2.08,2.04-.65,4.09-1.26,6.14-1.83,2.05-.57,4.1-1.09,6.16-1.57,2.05-.48,4.11-.91,6.16-1.31,2.05-.39,4.1-.74,6.15-1.04,2.05-.3,4.09-.56,6.13-.78,2.04-.22,4.07-.39,6.09-.51ZM258.41,1148.54c1.05-.09,2.1-.2,3.16-.33,1.06-.13,2.12-.29,3.18-.47,1.06-.18,2.12-.38,3.19-.61,1.06-.23,2.13-.47,3.19-.74,1.06-.27,2.12-.56,3.18-.88,1.06-.31,2.12-.65,3.17-1.01,1.05-.36,2.1-.74,3.15-1.14,1.05-.4,2.09-.82,3.12-1.27,1.03-.44,2.06-.91,3.09-1.39,1.02-.48,2.04-.99,3.04-1.51,1.01-.52,2-1.07,2.99-1.63.99-.56,1.97-1.14,2.94-1.74s1.93-1.22,2.87-1.85c.95-.64,1.88-1.29,2.8-1.96.92-.67,1.83-1.36,2.73-2.06.9-.7,1.78-1.42,2.64-2.15.87-.73,1.72-1.48,2.55-2.24.84-.76,1.65-1.54,2.46-2.33.8-.79,1.59-1.59,2.35-2.4.77-.82,1.52-1.64,2.25-2.48.73-.84,1.44-1.69,2.13-2.55.69-.86,1.36-1.73,2.01-2.61.65-.88,1.28-1.77,1.89-2.67.61-.9,1.2-1.8,1.76-2.71.57-.91,1.11-1.83,1.63-2.76.52-.92,1.02-1.85,1.5-2.79.47-.93.93-1.87,1.35-2.82.43-.94.83-1.89,1.21-2.84.38-.95.74-1.9,1.07-2.86.33-.96.64-1.91.92-2.86.28-.96.54-1.91.77-2.87.23-.95.44-1.91.61-2.86.18-.95.33-1.9.46-2.85.13-.95.23-1.89.31-2.83.08-.94.13-1.88.15-2.81.02-.93.02-1.86,0-2.77-.03-.92-.08-1.83-.16-2.73-.08-.9-.19-1.8-.32-2.69-.13-.89-.29-1.77-.48-2.64-.18-.87-.39-1.73-.63-2.58-.23-.85-.49-1.69-.78-2.52-.29-.83-.6-1.64-.93-2.44s-.7-1.59-1.08-2.37c-.39-.78-.79-1.54-1.23-2.29-.43-.75-.89-1.48-1.37-2.2-.48-.72-.99-1.42-1.51-2.11-.53-.69-1.08-1.36-1.65-2.01-.57-.65-1.16-1.29-1.78-1.91-.61-.62-1.25-1.22-1.91-1.8-.66-.58-1.33-1.15-2.03-1.69-.7-.54-1.41-1.07-2.15-1.57-.74-.5-1.49-.99-2.26-1.46-.77-.47-1.56-.91-2.37-1.34-.81-.42-1.63-.83-2.47-1.21-.84-.38-1.7-.74-2.57-1.08-.87-.34-1.76-.65-2.66-.95-.9-.29-1.82-.57-2.75-.82-.93-.25-1.87-.47-2.82-.68-.95-.21-1.91-.39-2.89-.55-.98-.16-1.96-.29-2.95-.41-1-.11-2-.2-3.01-.27-1.01-.07-2.03-.11-3.06-.13-1.03-.02-2.06-.01-3.1.01-1.04.03-2.09.08-3.14.15-1.06.07-2.12.17-3.19.3-1.07.12-2.14.27-3.21.44-1.08.17-2.15.36-3.22.58-1.08.22-2.15.46-3.23.72-1.07.26-2.15.55-3.22.85-1.07.31-2.14.64-3.21.99-1.07.35-2.13.72-3.19,1.12-1.06.4-2.12.81-3.16,1.25-1.05.44-2.1.9-3.13,1.38-1.04.48-2.07.98-3.09,1.5-1.02.52-2.03,1.06-3.04,1.62-1,.56-2,1.14-2.98,1.74-.98.6-1.95,1.22-2.91,1.85-.96.64-1.91,1.29-2.84,1.96-.94.67-1.86,1.36-2.76,2.06-.91.7-1.8,1.42-2.68,2.16s-1.74,1.48-2.58,2.25-1.67,1.54-2.49,2.34c-.81.79-1.61,1.6-2.38,2.42-.78.82-1.53,1.65-2.27,2.5-.74.84-1.46,1.7-2.16,2.56-.7.87-1.38,1.74-2.04,2.63-.66.89-1.29,1.78-1.91,2.68-.61.9-1.21,1.81-1.78,2.73-.57.92-1.12,1.84-1.64,2.78-.52.93-1.03,1.87-1.5,2.81-.48.94-.93,1.89-1.36,2.84-.43.95-.84,1.91-1.21,2.86-.38.96-.74,1.92-1.07,2.88-.33.96-.64,1.93-.92,2.89-.28.97-.53,1.93-.76,2.9-.23.96-.43,1.93-.61,2.89-.18.96-.33,1.92-.45,2.88-.12.95-.22,1.91-.29,2.86-.07.95-.11,1.89-.13,2.83-.02.94-.01,1.87.02,2.8.03.93.09,1.85.18,2.76.09.91.2,1.82.34,2.71.14.9.31,1.78.5,2.66s.41,1.74.65,2.6c.24.86.51,1.7.81,2.53.29.83.61,1.65.96,2.46.35.81.71,1.6,1.11,2.38.39.78.81,1.55,1.26,2.3.44.75.91,1.49,1.4,2.21.49.72,1,1.43,1.54,2.12.54.69,1.1,1.36,1.68,2.01.58.66,1.19,1.29,1.81,1.91.63.62,1.27,1.22,1.94,1.8.67.58,1.35,1.15,2.06,1.69.71.54,1.44,1.07,2.19,1.57.75.5,1.51.99,2.3,1.45.78.46,1.58.9,2.4,1.32.82.42,1.65.82,2.51,1.19.85.38,1.72.73,2.6,1.07.88.33,1.78.64,2.69.93.91.29,1.84.55,2.77.8.94.24,1.89.46,2.85.65.96.2,1.94.37,2.92.51.98.15,1.98.27,2.98.38,1,.1,2.02.18,3.04.23,1.02.05,2.05.08,3.09.09,1.04,0,2.08,0,3.13-.05,1.05-.04,2.1-.1,3.16-.19Z"></path><path class="cls-1" d="M401.26,387.73h-191.15l14.27-53h191.49c5.31,8.83,10.61,17.67,15.91,26.5-10.18,8.83-20.35,17.67-30.52,26.5Z"></path><path class="cls-1" d="M379.95,360.83c-4.01,14.62,5.83,26.47,21.98,26.47s32.53-11.85,36.57-26.47-5.8-26.47-21.98-26.47-32.56,11.85-36.57,26.47Z"></path><path class="cls-1" d="M1009.26,334.73h191.49l-16,53h-191.15c-5.12-8.83-10.25-17.67-15.39-26.5,10.34-8.83,20.69-17.67,31.05-26.5Z"></path><path class="cls-1" d="M1030.84,360.83c4.33-14.62-5.27-26.47-21.45-26.47s-32.79,11.85-37.1,26.47,5.3,26.47,21.45,26.47,32.76-11.85,37.1-26.47Z"></path><path class="cls-1" d="M617.86,559.08v.08c-11.65,2.87-24.45,7.17-35.86,13.63-47.88,27.14-65.83,67.47-66.65,69.35l.05.04c1.83-.77,36.72-15.62,82.73-45.57,17.06-11.09,29.14-19.77,37.64-26.35.04-.03.08,0,.33.03l-32.51,113.99c-2.22,6.88,1.86,12.82,9.29,13.12,7.89.32,16.13-5.5,18.07-12.72l32.73-114.39c.14-.04.19-.06.22-.03,4.74,6.58,11.86,15.26,22.59,26.35,28.9,29.95,55.31,44.8,56.7,45.57l.07-.04c.26-1.87,5.34-42.2-27.03-69.35-7.72-6.46-18.05-10.77-28.06-13.63l.04-.08c25.35,2.36,65.97,3.24,125-3.39,111.05-12.46,220.2-77.54,223.99-79.81v-.07c-3.7-.27-102.06-7.12-213.94,13.13-20.85,3.78-43.73,10.76-65.73,18.78l-.03-.07c32.94-18.42,72.46-43.61,116.59-77.7,128.23-98.69,194.05-243.12,195.91-247.24l-.06-.04c-4.1,2.15-138.44,73.18-258.54,179.39-30.55,27.11-61.55,62.81-87.82,96.03l-.08-.03c25.93-44.13,54.21-103.1,75.19-176C848.89,107.81,813.72,2.72,812.79,0h-.07c-2.48,2.72-97.69,107.81-147.09,282.07-19.58,69.08-25.47,125.65-25.43,168.94l-.09.03c-6.78-31.46-16.49-64.48-30.17-90.01-57.8-107.13-150.33-179.31-153.17-181.5l-.08.04c-.54,4.13-19.15,148.78,51.15,248.49,25.45,36.32,51.56,62.74,74.56,81.68l-.07.07c-18.62-8.88-39.15-16.76-59.45-20.87-100.31-20.25-202.58-13.39-206.43-13.13l-.05.07c2.49,2.27,74.46,67.34,178.39,79.81,55.24,6.63,96.36,5.74,123.06,3.39Z"></path></svg></svg></g></g></svg></g><g id="dark-icon"><svg xmlns="http://www.w3.org/2000/svg" version="1.1" xmlns:xlink="http://www.w3.org/1999/xlink" width="1000" height="1000"><g clip-path="url(#SvgjsClipPath1335)"><rect width="1000" height="1000" fill="#ffffff"></rect><g transform="matrix(0.7127132200383282,0,0,0.7127132200383282,50,71.23885395714217)"><svg xmlns="http://www.w3.org/2000/svg" version="1.1" xmlns:xlink="http://www.w3.org/1999/xlink" width="1262.78" height="1203.18"><svg id="Layer_1" xmlns="http://www.w3.org/2000/svg" viewBox="0 0 1262.78 1203.18"><defs><style>.cls-1{fill:#185a1b;}</style><clipPath id="SvgjsClipPath1335"><rect width="1000" height="1000" x="0" y="0" rx="350" ry="350"></rect></clipPath></defs><path class="cls-1" d="M405.86,386.86c1.1-3.88,2.16-7.76,3.17-11.65-.18,0-.37-.02-.54-.04-1.21,4.18-2.36,8.38-3.37,12.56h.05c.23-.29.45-.58.69-.87Z"></path><path class="cls-1" d="M1259.04,342.59c-10.69-15.11-76.16-8.82-98.85-8.82-25.26,0-79.51,0-152.24,0-3.48,17.61-9.58,35.31-15.84,52.97h193.73c-5.03,10.33-11.5,20.68-17.31,30.86l-159.05,275.92c-23.89,43.02-51.04,40.66-93.18,42.49l-599.45,29.68c-22.89,1.36-45.73,3.22-68.22,2.87,2.22-10.92,1.21-22.82,1.36-33.52l.18-77.95c.51-90.17,1.89-180.6.19-270.36,29.77-.74,59.42,0,89.01,0h50.23c2.58-9.85,6.26-19.67,10.43-29.45-1.12-.8-1.32-2.6-.14-4.12,1.42-1.83,2.87-3.64,4.35-5.44,2.1-4.64,4.27-9.26,6.43-13.88-29.48,0-58.69,0-87.4,0-24.43,0-49.16.52-73.43,0,1.52-13.46.77-26.93.66-40.12l-.91-67.65c-.89-60.35,9.99-81.4-74.16-81.33l-114.11.02c-8.91,0-18.24-.65-27.25.05-27.7,4.09-45.64,35.75-25.38,49.66,10.05,6.91,30.72,4.3,44.09,4.27l104.65.02c10.03.06,20.08.59,30.28-.07l-.2,644.36c-.14,18.93-1.23,38.29-.63,57.02.72,22.96,10.22,23.14,34.68,23.57,58.35,1.04,117.42.11,176.08.1h465.39c12.29,0,59.01,1.8,69.1-1.06,27.73-7.86,40.41-40.45,16.65-49.65-11.28-4.36-101.34-2.3-123.77-2.29l-520.34.02c-18.95.02-39.11,1.76-57.41,0-.39-11.86-2.58-37.95.35-49.11l.78-.79c19.83.73,40-.71,60.3-1.89l602.24-28.69c82.21-4.22,112.83-15.28,159.42-96.19l172.84-297.31c10.39-18.07,27.09-38.26,15.85-54.19Z"></path><path class="cls-1" d="M739.32,978.94c2.06-.25,4.11-.46,6.15-.62,2.04-.16,4.07-.27,6.09-.35,2.02-.07,4.03-.09,6.03-.07,2,.02,3.98.09,5.94.2,1.97.11,3.91.27,5.85.47,1.93.2,3.84.45,5.73.74,1.89.29,3.76.63,5.61,1.01,1.85.38,3.67.81,5.46,1.28,1.8.47,3.57.99,5.31,1.55,1.74.56,3.46,1.16,5.14,1.8,1.69.64,3.34,1.33,4.97,2.06,1.63.73,3.22,1.5,4.77,2.31,1.56.81,3.08,1.66,4.57,2.56,1.49.89,2.94,1.82,4.36,2.8,1.42.97,2.8,1.98,4.13,3.03,1.34,1.05,2.64,2.13,3.9,3.26,1.26,1.12,2.48,2.28,3.65,3.47,1.18,1.19,2.31,2.42,3.4,3.68,1.09,1.26,2.14,2.55,3.14,3.88,1,1.33,1.96,2.68,2.87,4.07.91,1.39,1.78,2.8,2.6,4.25.82,1.45,1.58,2.92,2.31,4.42.72,1.5,1.4,3.03,2.02,4.58.63,1.55,1.2,3.13,1.73,4.73.53,1.6,1,3.22,1.43,4.87.43,1.64.8,3.31,1.13,4.99.33,1.68.6,3.39.83,5.11.23,1.72.4,3.45.52,5.2.12,1.75.2,3.51.22,5.29.02,1.78,0,3.57-.09,5.37-.08,1.8-.21,3.61-.39,5.43-.18,1.82-.42,3.65-.7,5.48-.28,1.83-.62,3.67-1,5.51-.39,1.84-.82,3.69-1.3,5.54-.48,1.85-1.02,3.7-1.6,5.54-.58,1.85-1.21,3.7-1.89,5.54-.68,1.84-1.41,3.68-2.18,5.52s-1.6,3.67-2.46,5.49c-.87,1.82-1.78,3.64-2.74,5.44-.96,1.81-1.96,3.6-3.01,5.39-1.05,1.78-2.14,3.56-3.27,5.32-1.13,1.76-2.31,3.51-3.53,5.24-1.22,1.73-2.48,3.44-3.77,5.14-1.3,1.7-2.64,3.37-4.01,5.03-1.38,1.66-2.79,3.29-4.24,4.91-1.45,1.62-2.93,3.21-4.45,4.78-1.52,1.57-3.07,3.11-4.66,4.63-1.59,1.52-3.21,3.01-4.85,4.47-1.65,1.47-3.33,2.9-5.04,4.31-1.71,1.41-3.44,2.78-5.2,4.13-1.76,1.35-3.55,2.66-5.37,3.95-1.81,1.28-3.65,2.53-5.5,3.75-1.86,1.22-3.74,2.4-5.64,3.54-1.9,1.14-3.82,2.25-5.76,3.33-1.94,1.07-3.89,2.11-5.86,3.11s-3.95,1.96-5.95,2.87c-2,.92-4.01,1.8-6.03,2.64-2.02.84-4.05,1.64-6.08,2.39-2.04.76-4.08,1.47-6.13,2.15-2.05.67-4.1,1.31-6.16,1.89-2.06.59-4.12,1.13-6.18,1.63-2.06.5-4.12.96-6.18,1.37-2.06.41-4.11.78-6.17,1.1-2.05.32-4.1.6-6.14.84-2.03.23-4.05.42-6.06.56-2.01.14-4.01.24-6,.29-1.99.05-3.97.06-5.93.02-1.97-.04-3.92-.12-5.85-.25-1.93-.13-3.85-.3-5.75-.52-1.9-.22-3.78-.48-5.63-.78-1.86-.31-3.7-.66-5.51-1.05-1.82-.39-3.61-.83-5.37-1.31-1.77-.48-3.51-1.01-5.22-1.57-1.71-.57-3.4-1.18-5.05-1.83-1.66-.65-3.29-1.35-4.88-2.08-1.6-.74-3.16-1.51-4.69-2.33-1.53-.82-3.03-1.67-4.5-2.57-1.46-.9-2.89-1.83-4.28-2.81-1.39-.97-2.75-1.98-4.07-3.03-1.32-1.05-2.6-2.13-3.83-3.26-1.24-1.12-2.44-2.28-3.6-3.47-1.16-1.19-2.28-2.42-3.35-3.67-1.07-1.26-2.11-2.55-3.09-3.87-.99-1.32-1.94-2.67-2.84-4.06-.9-1.38-1.76-2.79-2.56-4.24-.81-1.44-1.57-2.91-2.29-4.4-.72-1.5-1.39-3.02-2.01-4.56-.62-1.55-1.2-3.12-1.72-4.71-.53-1.59-1.01-3.21-1.43-4.84-.43-1.64-.81-3.29-1.14-4.97-.33-1.67-.61-3.37-.84-5.08-.23-1.71-.42-3.43-.55-5.18-.13-1.74-.22-3.49-.25-5.26-.03-1.77-.02-3.55.05-5.34.07-1.79.19-3.59.35-5.4.17-1.81.39-3.62.65-5.44.27-1.82.58-3.65.95-5.48.37-1.83.78-3.67,1.25-5.5.46-1.84.98-3.67,1.54-5.51.56-1.84,1.17-3.67,1.83-5.51.66-1.83,1.36-3.67,2.12-5.49.75-1.83,1.55-3.65,2.4-5.46.85-1.81,1.74-3.62,2.67-5.42.94-1.8,1.92-3.58,2.94-5.36,1.02-1.78,2.09-3.54,3.2-5.29,1.11-1.75,2.26-3.49,3.46-5.21,1.19-1.72,2.43-3.43,3.7-5.11,1.28-1.69,2.59-3.36,3.94-5.01,1.35-1.65,2.74-3.28,4.17-4.89,1.43-1.61,2.89-3.19,4.39-4.76,1.5-1.56,3.03-3.1,4.59-4.62,1.57-1.51,3.17-3,4.79-4.46,1.63-1.46,3.29-2.89,4.98-4.3,1.69-1.41,3.41-2.78,5.15-4.13,1.74-1.34,3.51-2.66,5.31-3.94,1.8-1.28,3.62-2.53,5.46-3.75,1.84-1.22,3.71-2.4,5.6-3.55,1.89-1.15,3.79-2.26,5.72-3.33,1.93-1.08,3.87-2.12,5.83-3.12,1.96-1,3.93-1.96,5.92-2.89,1.99-.92,3.99-1.81,6-2.66,2.01-.85,4.03-1.65,6.07-2.42,2.03-.77,4.07-1.49,6.12-2.17,2.05-.68,4.1-1.32,6.16-1.92,2.05-.6,4.11-1.15,6.17-1.67,2.06-.51,4.12-.98,6.18-1.41,2.06-.43,4.12-.81,6.17-1.14,2.06-.34,4.11-.63,6.15-.88ZM709.85,1149.1c1.04-.06,2.09-.14,3.14-.25,1.05-.1,2.1-.23,3.16-.39,1.06-.15,2.12-.33,3.18-.52,1.06-.2,2.13-.42,3.19-.66s2.13-.51,3.19-.8c1.06-.29,2.12-.6,3.19-.93,1.06-.33,2.12-.68,3.17-1.06,1.05-.38,2.1-.77,3.15-1.19,1.05-.42,2.09-.85,3.12-1.31,1.04-.46,2.06-.94,3.08-1.44,1.02-.5,2.04-1.02,3.04-1.55,1.01-.54,2-1.1,2.99-1.67.99-.58,1.97-1.17,2.94-1.78.97-.61,1.92-1.24,2.87-1.89.95-.65,1.88-1.31,2.8-1.99s1.83-1.38,2.72-2.09c.89-.71,1.77-1.44,2.63-2.18.87-.74,1.71-1.5,2.55-2.27.83-.77,1.65-1.56,2.45-2.35.8-.8,1.58-1.6,2.34-2.43.76-.82,1.51-1.65,2.24-2.5.73-.84,1.44-1.7,2.12-2.56.69-.86,1.36-1.74,2.01-2.62.65-.88,1.27-1.77,1.88-2.67.61-.9,1.19-1.8,1.75-2.72.56-.91,1.1-1.83,1.62-2.76.52-.93,1.01-1.86,1.48-2.79.47-.94.92-1.88,1.35-2.82.42-.94.83-1.89,1.2-2.84.38-.95.73-1.9,1.06-2.85.33-.95.63-1.91.91-2.86.28-.95.53-1.91.76-2.86.23-.95.43-1.9.6-2.85.18-.95.33-1.89.45-2.84.13-.94.22-1.88.3-2.82.07-.93.12-1.86.14-2.79.02-.92.02-1.84-.01-2.75-.03-.91-.09-1.82-.17-2.71-.08-.9-.19-1.79-.33-2.67-.13-.88-.3-1.75-.48-2.61-.19-.86-.4-1.71-.64-2.55-.24-.84-.5-1.67-.79-2.49-.29-.82-.6-1.62-.94-2.42-.34-.79-.7-1.57-1.09-2.34-.39-.77-.8-1.52-1.24-2.25-.43-.74-.89-1.46-1.38-2.17-.48-.71-.99-1.4-1.52-2.07-.53-.68-1.08-1.33-1.65-1.97-.57-.64-1.17-1.27-1.79-1.87-.62-.61-1.25-1.2-1.91-1.77-.66-.57-1.34-1.12-2.04-1.65-.7-.53-1.42-1.05-2.15-1.54-.74-.49-1.49-.96-2.27-1.41-.77-.45-1.57-.88-2.37-1.3-.81-.41-1.64-.8-2.48-1.17-.84-.37-1.7-.72-2.57-1.04-.87-.33-1.76-.63-2.66-.91-.9-.28-1.82-.54-2.75-.78-.93-.24-1.87-.45-2.82-.64-.95-.19-1.92-.36-2.9-.5-.97-.15-1.96-.27-2.96-.37-1-.1-2-.17-3.01-.23-1.01-.05-2.04-.08-3.06-.09-1.03,0-2.06.01-3.11.05-1.41.05-2.82.15-4.25.29-1.43.14-2.86.32-4.29.54-1.44.22-2.88.49-4.32.8-1.44.3-2.88.65-4.32,1.04-1.44.39-2.88.82-4.31,1.28s-2.86.98-4.28,1.52c-1.42.55-2.83,1.13-4.23,1.75-1.4.62-2.79,1.28-4.16,1.97-1.38.69-2.74,1.42-4.08,2.19-1.34.77-2.67,1.56-3.97,2.39-1.31.83-2.59,1.69-3.85,2.59-1.26.89-2.5,1.82-3.71,2.77-1.21.95-2.4,1.93-3.56,2.94-1.16,1.01-2.29,2.04-3.39,3.1-1.1,1.06-2.17,2.14-3.21,3.25-1.04,1.1-2.04,2.23-3.01,3.37-.97,1.14-1.9,2.31-2.8,3.49-.9,1.18-1.75,2.38-2.58,3.59-.82,1.21-1.6,2.44-2.34,3.68-.74,1.24-1.44,2.49-2.1,3.75-.66,1.26-1.27,2.53-1.85,3.8-.57,1.28-1.1,2.55-1.58,3.84-.48,1.28-.92,2.57-1.32,3.86-.39,1.29-.74,2.57-1.04,3.86-.3,1.29-.55,2.57-.76,3.85-.21,1.28-.37,2.55-.48,3.82s-.18,2.52-.2,3.77,0,2.48.08,3.71c.07,1.22.2,2.43.37,3.63s.39,2.37.65,3.53c.26,1.16.57,2.3.92,3.42.36,1.12.76,2.22,1.2,3.3.45,1.08.94,2.13,1.47,3.16.54,1.03,1.11,2.03,1.73,3.01.62.98,1.28,1.92,1.99,2.84.7.92,1.45,1.81,2.23,2.66.79.86,1.61,1.68,2.47,2.47.86.79,1.76,1.55,2.7,2.27.94.72,1.91,1.41,2.91,2.06,1.01.65,2.05,1.27,3.12,1.84,1.07.58,2.17,1.12,3.3,1.62,1.13.5,2.29.96,3.48,1.38,1.19.42,2.4.8,3.64,1.14,1.24.34,2.5.64,3.79.89,1.28.26,2.59.47,3.91.65,1.32.17,2.66.3,4.02.39,1.36.09,2.73.14,4.11.14,1.39,0,2.78-.03,4.19-.11Z"></path><path class="cls-1" d="M291.75,978.36c2.02-.13,4.04-.21,6.04-.24,2-.04,3.99-.03,5.97.03,1.98.05,3.94.15,5.89.3,1.95.15,3.87.34,5.78.57,1.91.23,3.8.51,5.67.84,1.87.33,3.72.69,5.55,1.11,1.83.41,3.63.87,5.41,1.37,1.78.5,3.53,1.04,5.25,1.63,1.72.59,3.42,1.22,5.09,1.89,1.67.67,3.31,1.39,4.91,2.14,1.61.76,3.18,1.55,4.72,2.39,1.54.84,3.04,1.71,4.52,2.63,1.47.92,2.91,1.87,4.31,2.86,1.4.99,2.76,2.02,4.08,3.09,1.32,1.07,2.6,2.17,3.85,3.31,1.24,1.14,2.45,2.32,3.61,3.53,1.16,1.21,2.28,2.45,3.35,3.73,1.08,1.28,2.11,2.59,3.09,3.93.99,1.34,1.93,2.71,2.83,4.11.9,1.4,1.75,2.83,2.56,4.29.8,1.46,1.56,2.94,2.28,4.45.71,1.51,1.37,3.05,1.99,4.61.62,1.56,1.18,3.14,1.7,4.75.52,1.61.99,3.23,1.41,4.88.42,1.65.79,3.32,1.11,5.01.32,1.69.59,3.39.81,5.11.22,1.72.39,3.46.51,5.21.12,1.75.19,3.51.2,5.29.02,1.78-.01,3.56-.1,5.36-.08,1.8-.22,3.6-.4,5.42-.18,1.81-.42,3.64-.7,5.46-.28,1.83-.62,3.66-1,5.5-.38,1.84-.82,3.67-1.3,5.51-.48,1.84-1.01,3.68-1.59,5.52-.58,1.84-1.21,3.68-1.88,5.51-.67,1.83-1.4,3.66-2.17,5.49-.77,1.83-1.59,3.64-2.45,5.45-.86,1.81-1.77,3.61-2.72,5.41-.95,1.79-1.95,3.57-2.99,5.34s-2.12,3.53-3.25,5.27c-1.13,1.74-2.29,3.47-3.5,5.18-1.21,1.71-2.46,3.41-3.74,5.08-1.29,1.68-2.61,3.34-3.98,4.98-1.36,1.64-2.76,3.25-4.2,4.85-1.44,1.59-2.91,3.17-4.41,4.72-1.51,1.55-3.05,3.07-4.62,4.57-1.57,1.5-3.18,2.97-4.81,4.41-1.64,1.44-3.3,2.86-4.99,4.24-1.69,1.39-3.41,2.74-5.16,4.06-1.75,1.32-3.52,2.62-5.31,3.88-1.8,1.26-3.61,2.49-5.46,3.68-1.84,1.19-3.71,2.35-5.59,3.47-1.88,1.12-3.78,2.21-5.7,3.26-1.92,1.05-3.86,2.06-5.81,3.03-1.95.97-3.92,1.91-5.9,2.8-1.98.9-3.97,1.75-5.97,2.57-2,.82-4.01,1.59-6.03,2.33-2.02.73-4.05,1.43-6.08,2.08-2.03.65-4.07,1.26-6.11,1.82-2.04.56-4.08,1.08-6.13,1.56-2.04.48-4.09.91-6.13,1.31-2.04.39-4.08.74-6.12,1.04-2.03.3-4.06.56-6.09.77-2.02.21-4.04.38-6.05.5-2.01.12-4,.2-5.98.23-1.98.03-3.95.02-5.91-.04-1.96-.06-3.9-.16-5.83-.31-1.93-.15-3.84-.34-5.73-.58-1.89-.24-3.77-.52-5.62-.84-1.85-.33-3.69-.7-5.5-1.11-1.81-.42-3.6-.88-5.36-1.38-1.76-.5-3.5-1.05-5.21-1.64-1.71-.59-3.39-1.22-5.04-1.89-1.65-.67-3.27-1.39-4.87-2.15-1.59-.75-3.15-1.55-4.68-2.39-1.53-.84-3.02-1.72-4.48-2.63-1.46-.92-2.88-1.87-4.27-2.87-1.39-.99-2.74-2.02-4.06-3.09-1.31-1.07-2.59-2.18-3.83-3.32-1.24-1.14-2.43-2.32-3.59-3.52-1.16-1.21-2.27-2.45-3.34-3.73-1.07-1.28-2.1-2.58-3.09-3.92-.99-1.34-1.93-2.71-2.82-4.11-.9-1.4-1.75-2.83-2.56-4.28-.81-1.46-1.57-2.94-2.28-4.45-.71-1.51-1.38-3.04-2-4.6-.62-1.56-1.19-3.14-1.72-4.75-.52-1.6-1-3.23-1.43-4.88-.43-1.65-.8-3.31-1.13-5-.33-1.69-.61-3.39-.84-5.11-.23-1.72-.41-3.45-.54-5.2-.13-1.75-.21-3.51-.24-5.28-.03-1.77-.01-3.56.06-5.36.07-1.8.19-3.6.36-5.41.17-1.81.39-3.63.66-5.46.27-1.83.59-3.66.96-5.49.37-1.83.79-3.67,1.25-5.51.47-1.84.98-3.67,1.54-5.51.57-1.84,1.18-3.67,1.84-5.51.66-1.83,1.37-3.66,2.12-5.48.75-1.82,1.55-3.64,2.4-5.45.85-1.81,1.74-3.61,2.67-5.4.94-1.79,1.92-3.57,2.94-5.34,1.03-1.77,2.1-3.52,3.21-5.27,1.11-1.74,2.26-3.47,3.46-5.18,1.2-1.71,2.43-3.41,3.71-5.08,1.27-1.68,2.59-3.33,3.94-4.97,1.35-1.64,2.74-3.25,4.17-4.85,1.43-1.59,2.89-3.16,4.39-4.71,1.5-1.55,3.03-3.07,4.59-4.56,1.56-1.5,3.16-2.97,4.79-4.41,1.63-1.44,3.29-2.86,4.97-4.24,1.69-1.38,3.4-2.74,5.14-4.06,1.74-1.32,3.51-2.62,5.31-3.88,1.79-1.26,3.61-2.49,5.45-3.68,1.84-1.19,3.7-2.35,5.59-3.47,1.88-1.12,3.79-2.21,5.71-3.26,1.92-1.05,3.86-2.06,5.82-3.04,1.96-.97,3.93-1.91,5.91-2.81,1.98-.9,3.98-1.75,5.99-2.57,2.01-.82,4.03-1.59,6.05-2.33,2.03-.73,4.06-1.43,6.1-2.08,2.04-.65,4.09-1.26,6.14-1.83,2.05-.57,4.1-1.09,6.16-1.57,2.05-.48,4.11-.91,6.16-1.31,2.05-.39,4.1-.74,6.15-1.04,2.05-.3,4.09-.56,6.13-.78,2.04-.22,4.07-.39,6.09-.51ZM258.41,1148.54c1.05-.09,2.1-.2,3.16-.33,1.06-.13,2.12-.29,3.18-.47,1.06-.18,2.12-.38,3.19-.61,1.06-.23,2.13-.47,3.19-.74,1.06-.27,2.12-.56,3.18-.88,1.06-.31,2.12-.65,3.17-1.01,1.05-.36,2.1-.74,3.15-1.14,1.05-.4,2.09-.82,3.12-1.27,1.03-.44,2.06-.91,3.09-1.39,1.02-.48,2.04-.99,3.04-1.51,1.01-.52,2-1.07,2.99-1.63.99-.56,1.97-1.14,2.94-1.74s1.93-1.22,2.87-1.85c.95-.64,1.88-1.29,2.8-1.96.92-.67,1.83-1.36,2.73-2.06.9-.7,1.78-1.42,2.64-2.15.87-.73,1.72-1.48,2.55-2.24.84-.76,1.65-1.54,2.46-2.33.8-.79,1.59-1.59,2.35-2.4.77-.82,1.52-1.64,2.25-2.48.73-.84,1.44-1.69,2.13-2.55.69-.86,1.36-1.73,2.01-2.61.65-.88,1.28-1.77,1.89-2.67.61-.9,1.2-1.8,1.76-2.71.57-.91,1.11-1.83,1.63-2.76.52-.92,1.02-1.85,1.5-2.79.47-.93.93-1.87,1.35-2.82.43-.94.83-1.89,1.21-2.84.38-.95.74-1.9,1.07-2.86.33-.96.64-1.91.92-2.86.28-.96.54-1.91.77-2.87.23-.95.44-1.91.61-2.86.18-.95.33-1.9.46-2.85.13-.95.23-1.89.31-2.83.08-.94.13-1.88.15-2.81.02-.93.02-1.86,0-2.77-.03-.92-.08-1.83-.16-2.73-.08-.9-.19-1.8-.32-2.69-.13-.89-.29-1.77-.48-2.64-.18-.87-.39-1.73-.63-2.58-.23-.85-.49-1.69-.78-2.52-.29-.83-.6-1.64-.93-2.44s-.7-1.59-1.08-2.37c-.39-.78-.79-1.54-1.23-2.29-.43-.75-.89-1.48-1.37-2.2-.48-.72-.99-1.42-1.51-2.11-.53-.69-1.08-1.36-1.65-2.01-.57-.65-1.16-1.29-1.78-1.91-.61-.62-1.25-1.22-1.91-1.8-.66-.58-1.33-1.15-2.03-1.69-.7-.54-1.41-1.07-2.15-1.57-.74-.5-1.49-.99-2.26-1.46-.77-.47-1.56-.91-2.37-1.34-.81-.42-1.63-.83-2.47-1.21-.84-.38-1.7-.74-2.57-1.08-.87-.34-1.76-.65-2.66-.95-.9-.29-1.82-.57-2.75-.82-.93-.25-1.87-.47-2.82-.68-.95-.21-1.91-.39-2.89-.55-.98-.16-1.96-.29-2.95-.41-1-.11-2-.2-3.01-.27-1.01-.07-2.03-.11-3.06-.13-1.03-.02-2.06-.01-3.1.01-1.04.03-2.09.08-3.14.15-1.06.07-2.12.17-3.19.3-1.07.12-2.14.27-3.21.44-1.08.17-2.15.36-3.22.58-1.08.22-2.15.46-3.23.72-1.07.26-2.15.55-3.22.85-1.07.31-2.14.64-3.21.99-1.07.35-2.13.72-3.19,1.12-1.06.4-2.12.81-3.16,1.25-1.05.44-2.1.9-3.13,1.38-1.04.48-2.07.98-3.09,1.5-1.02.52-2.03,1.06-3.04,1.62-1,.56-2,1.14-2.98,1.74-.98.6-1.95,1.22-2.91,1.85-.96.64-1.91,1.29-2.84,1.96-.94.67-1.86,1.36-2.76,2.06-.91.7-1.8,1.42-2.68,2.16s-1.74,1.48-2.58,2.25-1.67,1.54-2.49,2.34c-.81.79-1.61,1.6-2.38,2.42-.78.82-1.53,1.65-2.27,2.5-.74.84-1.46,1.7-2.16,2.56-.7.87-1.38,1.74-2.04,2.63-.66.89-1.29,1.78-1.91,2.68-.61.9-1.21,1.81-1.78,2.73-.57.92-1.12,1.84-1.64,2.78-.52.93-1.03,1.87-1.5,2.81-.48.94-.93,1.89-1.36,2.84-.43.95-.84,1.91-1.21,2.86-.38.96-.74,1.92-1.07,2.88-.33.96-.64,1.93-.92,2.89-.28.97-.53,1.93-.76,2.9-.23.96-.43,1.93-.61,2.89-.18.96-.33,1.92-.45,2.88-.12.95-.22,1.91-.29,2.86-.07.95-.11,1.89-.13,2.83-.02.94-.01,1.87.02,2.8.03.93.09,1.85.18,2.76.09.91.2,1.82.34,2.71.14.9.31,1.78.5,2.66s.41,1.74.65,2.6c.24.86.51,1.7.81,2.53.29.83.61,1.65.96,2.46.35.81.71,1.6,1.11,2.38.39.78.81,1.55,1.26,2.3.44.75.91,1.49,1.4,2.21.49.72,1,1.43,1.54,2.12.54.69,1.1,1.36,1.68,2.01.58.66,1.19,1.29,1.81,1.91.63.62,1.27,1.22,1.94,1.8.67.58,1.35,1.15,2.06,1.69.71.54,1.44,1.07,2.19,1.57.75.5,1.51.99,2.3,1.45.78.46,1.58.9,2.4,1.32.82.42,1.65.82,2.51,1.19.85.38,1.72.73,2.6,1.07.88.33,1.78.64,2.69.93.91.29,1.84.55,2.77.8.94.24,1.89.46,2.85.65.96.2,1.94.37,2.92.51.98.15,1.98.27,2.98.38,1,.1,2.02.18,3.04.23,1.02.05,2.05.08,3.09.09,1.04,0,2.08,0,3.13-.05,1.05-.04,2.1-.1,3.16-.19Z"></path><path class="cls-1" d="M401.26,387.73h-191.15l14.27-53h191.49c5.31,8.83,10.61,17.67,15.91,26.5-10.18,8.83-20.35,17.67-30.52,26.5Z"></path><path class="cls-1" d="M379.95,360.83c-4.01,14.62,5.83,26.47,21.98,26.47s32.53-11.85,36.57-26.47-5.8-26.47-21.98-26.47-32.56,11.85-36.57,26.47Z"></path><path class="cls-1" d="M1009.26,334.73h191.49l-16,53h-191.15c-5.12-8.83-10.25-17.67-15.39-26.5,10.34-8.83,20.69-17.67,31.05-26.5Z"></path><path class="cls-1" d="M1030.84,360.83c4.33-14.62-5.27-26.47-21.45-26.47s-32.79,11.85-37.1,26.47,5.3,26.47,21.45,26.47,32.76-11.85,37.1-26.47Z"></path><path class="cls-1" d="M617.86,559.08v.08c-11.65,2.87-24.45,7.17-35.86,13.63-47.88,27.14-65.83,67.47-66.65,69.35l.05.04c1.83-.77,36.72-15.62,82.73-45.57,17.06-11.09,29.14-19.77,37.64-26.35.04-.03.08,0,.33.03l-32.51,113.99c-2.22,6.88,1.86,12.82,9.29,13.12,7.89.32,16.13-5.5,18.07-12.72l32.73-114.39c.14-.04.19-.06.22-.03,4.74,6.58,11.86,15.26,22.59,26.35,28.9,29.95,55.31,44.8,56.7,45.57l.07-.04c.26-1.87,5.34-42.2-27.03-69.35-7.72-6.46-18.05-10.77-28.06-13.63l.04-.08c25.35,2.36,65.97,3.24,125-3.39,111.05-12.46,220.2-77.54,223.99-79.81v-.07c-3.7-.27-102.06-7.12-213.94,13.13-20.85,3.78-43.73,10.76-65.73,18.78l-.03-.07c32.94-18.42,72.46-43.61,116.59-77.7,128.23-98.69,194.05-243.12,195.91-247.24l-.06-.04c-4.1,2.15-138.44,73.18-258.54,179.39-30.55,27.11-61.55,62.81-87.82,96.03l-.08-.03c25.93-44.13,54.21-103.1,75.19-176C848.89,107.81,813.72,2.72,812.79,0h-.07c-2.48,2.72-97.69,107.81-147.09,282.07-19.58,69.08-25.47,125.65-25.43,168.94l-.09.03c-6.78-31.46-16.49-64.48-30.17-90.01-57.8-107.13-150.33-179.31-153.17-181.5l-.08.04c-.54,4.13-19.15,148.78,51.15,248.49,25.45,36.32,51.56,62.74,74.56,81.68l-.07.07c-18.62-8.88-39.15-16.76-59.45-20.87-100.31-20.25-202.58-13.39-206.43-13.13l-.05.07c2.49,2.27,74.46,67.34,178.39,79.81,55.24,6.63,96.36,5.74,123.06,3.39Z"></path></svg></svg></g></g></svg></g></svg>