
<svg width="192" height="192" viewBox="0 0 512 512" xmlns="http://www.w3.org/2000/svg">
  <defs>
    <linearGradient id="leafGradient" x1="0%" y1="0%" x2="100%" y2="100%">
      <stop offset="0%" style="stop-color:#22c55e;stop-opacity:1" />
      <stop offset="100%" style="stop-color:#185a1b;stop-opacity:1" />
    </linearGradient>
    <filter id="shadow" x="-50%" y="-50%" width="200%" height="200%">
      <feDropShadow dx="2" dy="2" stdDeviation="3" flood-color="#000" flood-opacity="0.3"/>
    </filter>
  </defs>
  
  <!-- Background circle -->
  <circle cx="256" cy="256" r="240" fill="url(#leafGradient)" filter="url(#shadow)"/>
  
  <!-- Cannabis leaf -->
  <g transform="translate(256,256)">
    <!-- Main leaf shape -->
    <path d="M0,-100 C-20,-80 -30,-50 -35,-20 C-40,0 -35,20 -20,35 C-10,45 0,50 10,45 C20,35 35,20 40,0 C35,-20 30,-50 20,-80 C10,-90 0,-100 0,-100 Z" 
          fill="#ffffff" opacity="0.9"/>
    
    <!-- Left leaflets -->
    <path d="M-35,-20 C-50,-15 -60,-5 -65,10 C-60,20 -50,25 -35,20 C-25,15 -20,5 -25,-10 Z" 
          fill="#ffffff" opacity="0.8"/>
    <path d="M-45,-40 C-60,-35 -70,-25 -75,-10 C-70,0 -60,5 -45,-5 C-35,-10 -30,-20 -35,-35 Z" 
          fill="#ffffff" opacity="0.7"/>
    
    <!-- Right leaflets -->
    <path d="M35,-20 C50,-15 60,-5 65,10 C60,20 50,25 35,20 C25,15 20,5 25,-10 Z" 
          fill="#ffffff" opacity="0.8"/>
    <path d="M45,-40 C60,-35 70,-25 75,-10 C70,0 60,5 45,-5 C35,-10 30,-20 35,-35 Z" 
          fill="#ffffff" opacity="0.7"/>
    
    <!-- Center vein -->
    <line x1="0" y1="-90" x2="0" y2="40" stroke="#ffffff" stroke-width="2" opacity="0.6"/>
  </g>
  
  <!-- Brand text (for larger icons) -->
  
  <text x="256" y="400" text-anchor="middle" fill="#ffffff" font-family="Arial, sans-serif" font-size="36" font-weight="bold">
    DankDeals
  </text>
  <text x="256" y="430" text-anchor="middle" fill="#ffffff" font-family="Arial, sans-serif" font-size="16" opacity="0.8">
    Minnesota
  </text>
  
</svg>
