<?xml version="1.0" encoding="UTF-8"?>
<svg width="1024px" height="1024px" viewBox="0 0 1024 1024" version="1.1" xmlns="http://www.w3.org/2000/svg" xmlns:xlink="http://www.w3.org/1999/xlink">
    <title>x / Icon Grids / iOS &amp; iPadOSdankdealslogo</title>
    <defs>
        <linearGradient x1="48.4450579%" y1="83.8936138%" x2="37.620349%" y2="10.6428839%" id="linearGradient-1">
            <stop stop-color="#2C2C2E" offset="0%"></stop>
            <stop stop-color="#3A3A3C" offset="100%"></stop>
        </linearGradient>
        <path d="M585.371276,765.35549 L585.546249,765.335679 C640.534068,758.897309 674.377685,805.976652 649.641915,860.484883 C629.160771,904.681818 578.289441,936.814237 532.363423,924.254462 C496.650349,914.230416 482.873465,876.214317 495.149258,840.347643 C508.705123,800.231645 545.983752,769.971306 585.371276,765.35549 Z M565.954898,889.105315 C592.05664,888.099591 620.04968,862.050336 617.919675,832.227126 C616.882216,820.208223 609.00487,809.921954 598.566009,806.008591 C576.715096,797.922967 551.816072,811.256282 539.164577,831.131783 C522.331294,857.502172 534.57169,888.87919 564.857203,889.107955 L565.954898,889.105315 Z M283.056856,764.958556 C329.098928,761.532355 361.23381,799.63646 347.743835,848.038971 C332.631355,899.560711 275.90856,937.674718 226.148631,924.306594 C188.701203,913.552681 175.053613,872.883877 189.201861,836.086878 C204.249442,796.289478 243.022689,768.09759 282.889969,764.968458 L283.066127,764.968458 L283.056856,764.958556 Z M259.288911,888.021125 C285.655337,886.270672 314.36132,859.56885 309.496528,829.672698 C307.333367,817.459086 297.928723,807.955215 286.722992,804.988346 C262.965357,798.728252 236.617498,814.492217 226.40515,837.475564 C214.586678,864.068601 231.604164,889.999038 259.112516,888.031015 L259.288911,888.031015 L259.288911,888.021125 Z M82.6465989,174.988636 L239.115459,174.988636 C242.943717,174.988636 244.331935,175.387535 245.731489,176.136584 C247.131042,176.885633 248.22942,177.984831 248.97791,179.385431 L249.118396,179.657031 C249.75349,180.92999 250.100576,182.322814 250.123757,185.64319 L250.124364,308.099685 L376.526174,308.100589 L377.237316,308.105557 C380.533603,308.153517 381.832943,308.547814 383.142203,309.248537 C384.541757,309.997586 385.640134,311.096784 386.388624,312.497383 L386.529111,312.768984 C387.164205,314.041943 387.51129,315.434767 387.534472,318.755143 L387.535714,338.393428 C387.535714,342.224546 387.137113,343.613802 386.388624,345.014401 C385.640134,346.415 384.541757,347.514199 383.142203,348.263248 L382.870805,348.403839 C381.553368,349.062107 380.107447,349.411195 376.526174,349.411195 L250.124364,349.410999 L250.124364,615.241566 L744.478493,589.510328 L875.892757,354.000508 L759.884541,354.001263 C756.056283,354.001263 754.668065,353.602364 753.268511,352.853315 C751.868958,352.104266 750.77058,351.005068 750.02209,349.604468 L749.881604,349.332868 C749.24651,348.059909 748.899424,346.667085 748.876243,343.346709 L748.875,323.708423 C748.875,319.877306 749.273601,318.48805 750.02209,317.087451 C750.77058,315.686851 751.868958,314.587653 753.268511,313.838604 L753.539909,313.698012 C754.811917,313.062444 756.203702,312.715099 759.521599,312.6919 L915.990459,312.690657 C919.818717,312.690657 921.206935,313.089555 922.606489,313.838604 C924.006042,314.587653 925.10442,315.686851 925.85291,317.087451 L925.993396,317.359052 C926.651172,318.677473 927,320.124475 927,323.708423 L927,342.983496 L927,343.69517 C926.947111,346.993919 926.553109,348.29423 925.85291,349.604468 C925.629048,350.023367 925.373887,350.415304 925.088732,350.778976 L772.771514,623.753718 L772.421702,624.370523 C770.778683,627.217506 769.806201,628.158579 768.562436,628.960788 C767.232894,629.818321 765.745197,630.245066 764.163602,630.222592 C763.411741,630.211908 762.700314,630.133671 761.80175,629.856729 L250.124364,656.487942 L250.124364,691.370505 L740.410102,691.371212 L741.121245,691.37618 C744.417532,691.424141 745.716872,691.818437 747.026132,692.51916 C748.425685,693.268209 749.524063,694.367407 750.272552,695.768006 L750.413039,696.039607 C751.048133,697.312566 751.395218,698.70539 751.4184,702.025766 L751.419643,721.664051 C751.419643,725.495169 751.021042,726.884425 750.272552,728.285024 C749.524063,729.685623 748.425685,730.784822 747.026132,731.533871 L746.754733,731.674462 C745.482726,732.310031 744.090941,732.657375 740.773044,732.681818 L222.964898,732.681818 C219.136641,732.681818 217.748422,732.282919 216.348868,731.533871 C215.248738,730.945075 214.3347,730.139925 213.630414,729.1421 L213.804226,729.238837 C212.404672,728.489788 211.306294,727.39059 210.557805,725.98999 L210.417318,725.718389 C209.782224,724.445431 209.435139,723.052607 209.411957,719.73223 L209.410714,216.298995 L83.0095405,216.299242 L82.298398,216.294274 C79.0021113,216.246314 77.7027711,215.852018 76.3935113,215.151295 C74.9939578,214.402246 73.8955799,213.303048 73.1470905,211.902448 L73.0066037,211.630847 C72.3715097,210.357889 72.0244244,208.965065 72,205.644688 L72,186.006403 C72,182.175286 72.398601,180.78603 73.1470905,179.385431 C73.8955799,177.984831 74.9939578,176.885633 76.3935113,176.136584 L76.6649094,175.995992 C77.9369173,175.360424 79.3287018,175.013079 82.6465989,174.988636 Z M632.857751,72 L633.103917,72.822545 C635.629434,81.4613954 655.311536,154.902168 623.389847,272.815281 C609.280813,324.726714 590.437827,366.782781 573.080002,398.202859 C590.623472,374.491434 611.32291,349.121185 631.74388,329.800764 C712.035422,254.177906 801.794868,203.534985 804.579545,202.071317 L804.228982,202.893731 C799.779058,213.174274 755.855111,310.655984 673.606869,378.101816 L671.452533,379.86834 C642.801475,403.271685 617.098286,420.674331 595.635892,433.526053 C610.301862,427.866535 625.617589,422.890063 639.540978,420.157883 C714.355987,405.813934 780.074381,410.692828 782.580591,410.887984 L780.661822,412.080501 C768.392695,419.625342 701.175179,459.509091 632.857751,467.678311 C593.40815,472.36205 566.303953,471.776582 549.317419,470.117758 C556.000646,472.069316 562.869517,475.191808 568.067582,479.777969 C589.695246,499.098389 586.353633,527.786286 586.167988,529.152377 L584.991918,528.417501 C580.726453,525.707638 565.801785,515.724288 549.452671,497.928125 L548.29637,496.658942 C541.046926,488.735618 536.303692,482.578454 533.147724,477.894715 L532.980643,477.923989 L511.074511,559.40152 C509.774995,564.573148 504.298462,568.671419 499.007574,568.476263 C493.995154,568.281107 491.303299,563.987681 492.788461,559.108787 L514.508947,477.923989 L514.323302,477.923989 L512.973382,479.030967 C507.398956,483.563875 499.707314,489.363119 489.16838,496.658942 L487.328493,497.922502 C457.428177,518.352301 435.028675,528.576667 433.846115,529.054799 L434.071534,528.521752 C435.912123,524.279884 448.298593,497.841586 478.400959,479.680391 C485.478445,475.415963 493.358489,472.501413 500.69783,470.3876 L501.602523,470.129681 L501.183267,470.166463 C494.117289,470.777271 485.628659,471.211246 475.727888,471.230804 L474.232182,471.2306 L472.470638,471.22234 C458.560308,471.123214 442.028657,470.20653 422.902301,467.870698 L420.572485,467.580733 C351.048364,458.701146 302.966261,412.351652 301.295455,410.692828 L302.785625,410.591228 C313.4651,409.909297 376.995991,406.629685 439.322648,420.060305 C452.874746,422.987641 466.61249,428.647158 479.050717,434.892143 C463.642167,421.426395 446.19152,402.593864 429.204986,376.735725 C382.236754,305.699027 394.674982,202.656784 395.046272,199.729447 L396.290363,200.781717 C405.456335,208.611913 461.518386,258.055651 497.42959,329.020141 C506.526204,347.267205 513.023786,370.783474 517.572093,393.128809 L517.576813,391.267379 C517.73171,360.67866 521.732401,321.010948 534.558627,272.815281 C567.510647,148.793793 631.186945,73.9515576 632.857751,72 Z" id="path-2"></path>
        <filter x="-12.3%" y="-10.3%" width="121.5%" height="121.5%" filterUnits="objectBoundingBox" id="filter-3">
            <feOffset dx="-13" dy="4" in="SourceAlpha" result="shadowOffsetOuter1"></feOffset>
            <feGaussianBlur stdDeviation="28.5" in="shadowOffsetOuter1" result="shadowBlurOuter1"></feGaussianBlur>
            <feColorMatrix values="0 0 0 0 0   0 0 0 0 0   0 0 0 0 0  0 0 0 0.852655157 0" type="matrix" in="shadowBlurOuter1"></feColorMatrix>
        </filter>
    </defs>
    <g id="Symbols" stroke="none" stroke-width="1" fill="none" fill-rule="evenodd">
        <g id="x-/-Icon-Grids-/-iOS-&amp;-iPadOS"></g>
        <polygon id="Rectangle" fill="url(#linearGradient-1)" points="0 0 1024 0 1024 1024 0 1024"></polygon>
        <g id="Shape">
            <use fill="black" fill-opacity="1" filter="url(#filter-3)" xlink:href="#path-2"></use>
            <use fill="#6DD400" fill-rule="evenodd" xlink:href="#path-2"></use>
        </g>
    </g>
</svg>