<?xml version="1.0" encoding="UTF-8"?><svg id="Layer_2" xmlns="http://www.w3.org/2000/svg" viewBox="0 0 7258.3 770.59"><defs><style>.cls-1,.cls-2,.cls-3{fill:#fff;}.cls-2{stroke-width:2px;}.cls-2,.cls-3{stroke:#000;stroke-miterlimit:10;}.cls-3{stroke-width:.75px;}</style></defs><g id="Layer_1-2"><path class="cls-1" d="M284.33,244.05c.78-2.43,1.52-4.87,2.24-7.3-.13,0-.26-.01-.38-.03-.85,2.62-1.66,5.25-2.38,7.88h.04c.16-.18.32-.37.49-.54Z"/><path class="cls-3" d="M284.33,244.55c.78-2.43,1.52-4.87,2.24-7.3-.13,0-.26-.01-.38-.03-.85,2.62-1.66,5.25-2.38,7.88h.04c.16-.18.32-.37.49-.54Z"/><path class="cls-1" d="M890.01,217.44c-2.08-2.86-5.71-4.58-10.43-5.59-4.8-1.05-9.74-1.43-15.45-1.74-18.39-.7-32.91.41-48.48.42-18-.05-55.23-.04-82.89.08-5.6.13-11.88.88-15.69,3.04-3.46,1.82-5.59,4.66-7.07,8.05-2.34,5.63-6.9,18.63,1.47,21.46.91.31,1.88.43,2.86.44,31.19.47,71.61.02,103.54.17,1.57.06,2.94.01,4.19,0,6.13-.09,10.73,5.02,9.27,10.31-.8,2.89-2.43,5.76-3.87,7.91-34.17,52.34-80.01,122.99-112.66,173.01-4.3,6.39-9.43,12.42-16.2,17.45-13.25,10.08-34.27,9.73-51.06,10.47-127.9,5.7-392.16,16.96-449.91,19.9-13.93.89-21.76-1.75-21.75-15.25-.26-68.89,1.4-137.95.53-206.68-.06-4.42.41-9.88,3.6-13.04,3.55-3.63,9.77-4.16,15.07-4.23,15.17-.09,30.3.16,45.44.15,7.5-.15,16.95.43,24.82-.52,9.35-.83,13.61-9.12,14.77-16.63,1.39-6.89-.45-13.65-8.41-15.39-.47-.1-.96-.15-1.44-.18-20.68-1.24-41.46-.12-62.16-.39-13.5-.37-30.8,3.22-31.62-13.62-.55-17.49-.62-36.78-.91-54.73-.84-20.75,5.15-43.95-23.38-48.05-11.57-2.15-24-2.36-35.38-2.31-23.95.21-59.52-.16-83.85,0-12.37-.03-27.51,4.91-31.75,16.12-2.61,6.36.96,13.1,8,15.53,8.04,2.95,17.14,2.25,25.43,2.29,18.52-.32,46.99.1,65.37-.06,5.55.05,10.57-.09,16.12.16,5.37.46,15.91,2.16,15.58,7.6-.28,41.26.44,381.01-.6,418.87-.02,7.62-.17,17.27,4.18,22.31,3.16,3.6,7.82,4.57,12.96,5.17.26.03.52.05.77.06,37.97,1.85,76.17.46,114.29.67,101.01.08,314.75-.36,366.23.21,13.24-.19,27.78,1.29,38.22-5.69,5.24-3.31,9.95-8.51,10.37-14.3.43-5.59-3.97-10.66-9.97-12.07-4.39-1.15-11.63-1.29-17.3-1.46-43.8-.9-61.78.45-110.08.02-109.57.22-300.03-.44-343.9.33-5.71.09-11.77.18-16.02-1.74-6.51-2.81-7.53-9.91-7.53-15.74.01-4.31.31-8.87,4.12-11.62,2.89-1.93,6.18-2.19,9.86-2.45,4.31-.19,8.68-.24,13.05-.44,47.2-2.31,324.61-13.66,443.46-18.81,59.53-2.11,82.71-13.02,113.83-61.18,16.63-25.52,86.7-131.9,118.95-181.16,6.06-10.16,20.67-25.8,13.42-37.07l-.05-.07Z"/><path class="cls-3" d="M890.01,217.44c-2.08-2.86-5.71-4.58-10.43-5.59-4.8-1.05-9.74-1.43-15.45-1.74-18.39-.7-32.91.41-48.48.42-18-.05-55.23-.04-82.89.08-5.6.13-11.88.88-15.69,3.04-3.46,1.82-5.59,4.66-7.07,8.05-2.34,5.63-6.9,18.63,1.47,21.46.91.31,1.88.43,2.86.44,31.19.47,71.61.02,103.54.17,1.57.06,2.94.01,4.19,0,6.13-.09,10.73,5.02,9.27,10.31-.8,2.89-2.43,5.76-3.87,7.91-34.17,52.34-80.01,122.99-112.66,173.01-4.3,6.39-9.43,12.42-16.2,17.45-13.25,10.08-34.27,9.73-51.06,10.47-127.9,5.7-392.16,16.96-449.91,19.9-13.93.89-21.76-1.75-21.75-15.25-.26-68.89,1.4-137.95.53-206.68-.06-4.42.41-9.88,3.6-13.04,3.55-3.63,9.77-4.16,15.07-4.23,15.17-.09,30.3.16,45.44.15,7.5-.15,16.95.43,24.82-.52,9.35-.83,13.61-9.12,14.77-16.63,1.39-6.89-.45-13.65-8.41-15.39-.47-.1-.96-.15-1.44-.18-20.68-1.24-41.46-.12-62.16-.39-13.5-.37-30.8,3.22-31.62-13.62-.55-17.49-.62-36.78-.91-54.73-.84-20.75,5.15-43.95-23.38-48.05-11.57-2.15-24-2.36-35.38-2.31-23.95.21-59.52-.16-83.85,0-12.37-.03-27.51,4.91-31.75,16.12-2.61,6.36.96,13.1,8,15.53,8.04,2.95,17.14,2.25,25.43,2.29,18.52-.32,46.99.1,65.37-.06,5.55.05,10.57-.09,16.12.16,5.37.46,15.91,2.16,15.58,7.6-.28,41.26.44,381.01-.6,418.87-.02,7.62-.17,17.27,4.18,22.31,3.16,3.6,7.82,4.57,12.96,5.17.26.03.52.05.77.06,37.97,1.85,76.17.46,114.29.67,101.01.08,314.75-.36,366.23.21,13.24-.19,27.78,1.29,38.22-5.69,5.24-3.31,9.95-8.51,10.37-14.3.43-5.59-3.97-10.66-9.97-12.07-4.39-1.15-11.63-1.29-17.3-1.46-43.8-.9-61.78.45-110.08.02-109.57.22-300.03-.44-343.9.33-5.71.09-11.77.18-16.02-1.74-6.51-2.81-7.53-9.91-7.53-15.74.01-4.31.31-8.87,4.12-11.62,2.89-1.93,6.18-2.19,9.86-2.45,4.31-.19,8.68-.24,13.05-.44,47.2-2.31,324.61-13.66,443.46-18.81,59.53-2.11,82.71-13.02,113.83-61.18,16.63-25.52,86.7-131.9,118.95-181.16,6.06-10.16,20.67-25.8,13.42-37.07l-.05-.07Z"/><path class="cls-1" d="M530.59,629.6c1.45-.16,2.9-.29,4.34-.39,1.44-.1,2.88-.17,4.3-.22,1.43-.04,2.85-.06,4.26-.04,1.41.01,2.81.05,4.2.13,1.39.07,2.76.17,4.13.3,1.36.13,2.71.28,4.05.47,1.34.18,2.66.4,3.96.64,1.3.24,2.59.51,3.86.8,1.27.3,2.52.62,3.75.97,1.23.35,2.44.73,3.63,1.13,1.19.4,2.36.83,3.51,1.29,1.15.46,2.27.94,3.37,1.45,1.1.51,2.18,1.04,3.23,1.6,1.05.56,2.08,1.14,3.08,1.75,1,.61,1.97,1.24,2.92,1.9.95.66,1.86,1.34,2.75,2.04.89.7,1.75,1.43,2.58,2.18.83.75,1.63,1.52,2.4,2.31.77.79,1.51,1.6,2.21,2.43.71.83,1.38,1.68,2.03,2.55.64.87,1.25,1.76,1.83,2.66.58.91,1.12,1.83,1.63,2.77.51.94.99,1.9,1.43,2.87.44.97.85,1.96,1.22,2.96.37,1,.71,2.02,1.01,3.05.3,1.03.57,2.07.8,3.13.23,1.06.43,2.12.59,3.2.16,1.08.28,2.16.37,3.26.09,1.1.14,2.2.15,3.32.02,1.12,0,2.24-.06,3.36-.06,1.13-.15,2.26-.28,3.4-.13,1.14-.29,2.29-.49,3.44-.2,1.15-.44,2.3-.71,3.46-.27,1.16-.58,2.31-.92,3.47-.34,1.16-.72,2.32-1.13,3.48-.41,1.16-.86,2.32-1.34,3.47-.48,1.16-.99,2.31-1.54,3.46-.55,1.15-1.13,2.3-1.74,3.44-.61,1.14-1.26,2.28-1.94,3.41s-1.39,2.26-2.13,3.38c-.74,1.12-1.51,2.23-2.31,3.33-.8,1.1-1.63,2.2-2.49,3.28-.86,1.08-1.75,2.16-2.66,3.22-.92,1.06-1.86,2.11-2.83,3.15-.97,1.04-1.97,2.07-2.99,3.08-1.02,1.01-2.07,2.01-3.14,2.99-1.07.98-2.17,1.95-3.29,2.9-1.12.95-2.26,1.89-3.43,2.8-1.16.92-2.35,1.82-3.56,2.7-1.21.88-2.43,1.75-3.67,2.59-1.25.84-2.51,1.67-3.79,2.47-1.28.8-2.57,1.59-3.89,2.35-1.31.76-2.64,1.5-3.98,2.22-1.34.72-2.7,1.41-4.06,2.09-1.37.67-2.75,1.32-4.14,1.95-1.39.63-2.79,1.23-4.2,1.8-1.41.58-2.83,1.13-4.25,1.66-1.43.53-2.86,1.03-4.29,1.5-1.44.48-2.88.92-4.33,1.35-1.45.42-2.9.82-4.35,1.19-1.45.37-2.91.71-4.36,1.02-1.45.31-2.91.6-4.36.86-1.45.26-2.91.49-4.35.69-1.45.2-2.89.38-4.33.52-1.43.15-2.86.26-4.28.35-1.42.09-2.83.15-4.24.18-1.41.03-2.8.04-4.19.02-1.39-.02-2.76-.07-4.13-.15-1.36-.08-2.72-.19-4.06-.32-1.34-.14-2.67-.3-3.98-.49-1.31-.19-2.61-.41-3.89-.66-1.28-.25-2.55-.52-3.79-.82-1.25-.3-2.48-.63-3.69-.99-1.21-.36-2.4-.74-3.57-1.15-1.17-.41-2.32-.84-3.45-1.3-1.13-.46-2.23-.95-3.31-1.46-1.08-.51-2.14-1.05-3.18-1.61-1.03-.56-2.04-1.15-3.02-1.76-.98-.61-1.94-1.24-2.87-1.9-.93-.66-1.83-1.34-2.71-2.04-.88-.7-1.72-1.43-2.54-2.18-.82-.75-1.61-1.51-2.37-2.3-.76-.79-1.49-1.6-2.19-2.43-.7-.83-1.37-1.68-2-2.54-.64-.87-1.24-1.75-1.81-2.66s-1.11-1.82-1.62-2.76c-.51-.94-.98-1.89-1.42-2.86-.44-.97-.84-1.95-1.22-2.95-.37-1-.71-2.01-1.01-3.04-.3-1.03-.57-2.06-.81-3.11-.23-1.05-.43-2.11-.6-3.18-.17-1.07-.29-2.15-.39-3.25-.09-1.09-.15-2.19-.18-3.3-.02-1.11-.01-2.22.04-3.35.05-1.12.13-2.25.25-3.38.12-1.13.27-2.27.46-3.41s.41-2.29.67-3.44c.26-1.15.55-2.3.88-3.45.33-1.15.69-2.3,1.09-3.46s.83-2.3,1.29-3.45c.47-1.15.96-2.3,1.49-3.44.53-1.15,1.1-2.29,1.69-3.42.6-1.14,1.23-2.27,1.89-3.4s1.35-2.25,2.08-3.36c.72-1.11,1.48-2.22,2.26-3.32.78-1.1,1.6-2.19,2.44-3.27.84-1.08,1.71-2.15,2.61-3.21.9-1.06,1.83-2.1,2.78-3.14.96-1.03,1.94-2.06,2.95-3.06,1.01-1.01,2.04-2,3.1-2.98,1.06-.98,2.14-1.94,3.24-2.89,1.11-.95,2.24-1.88,3.39-2.8,1.15-.92,2.32-1.81,3.51-2.69,1.19-.88,2.41-1.74,3.64-2.59,1.23-.84,2.48-1.67,3.75-2.47,1.27-.8,2.55-1.59,3.86-2.35,1.3-.76,2.62-1.5,3.95-2.22,1.33-.72,2.68-1.42,4.04-2.09,1.36-.67,2.73-1.33,4.11-1.96,1.38-.63,2.78-1.23,4.18-1.81,1.4-.58,2.82-1.14,4.24-1.67,1.42-.53,2.85-1.04,4.28-1.52,1.44-.48,2.88-.93,4.32-1.36,1.45-.43,2.89-.83,4.35-1.21,1.45-.37,2.9-.72,4.36-1.04,1.46-.32,2.91-.62,4.37-.88,1.46-.27,2.91-.51,4.36-.72,1.45-.21,2.9-.4,4.34-.55ZM509.77,736.31c.74-.04,1.48-.09,2.22-.16.74-.07,1.49-.15,2.23-.24.75-.09,1.5-.2,2.25-.33s1.5-.26,2.25-.41c.75-.15,1.5-.32,2.25-.5.75-.18,1.5-.37,2.25-.58.75-.21,1.5-.43,2.24-.66.74-.24,1.49-.48,2.23-.75.74-.26,1.47-.53,2.2-.82.73-.29,1.46-.59,2.18-.9.72-.31,1.44-.64,2.15-.97.71-.34,1.41-.69,2.11-1.05.7-.36,1.39-.73,2.07-1.12.68-.38,1.36-.78,2.03-1.18.67-.41,1.33-.82,1.98-1.25.65-.43,1.29-.86,1.92-1.31.63-.45,1.25-.9,1.86-1.37.61-.47,1.21-.94,1.8-1.42.59-.48,1.17-.98,1.73-1.48.56-.5,1.12-1.01,1.66-1.52.54-.52,1.07-1.04,1.58-1.57.51-.53,1.01-1.06,1.5-1.61.49-.54.96-1.09,1.42-1.64.46-.55.9-1.11,1.33-1.68.43-.56.84-1.13,1.24-1.71.4-.57.78-1.15,1.15-1.73.37-.58.71-1.16,1.05-1.75.33-.59.65-1.18.95-1.77.3-.59.58-1.18.85-1.78.27-.6.51-1.19.75-1.79.23-.6.45-1.2.64-1.79.2-.6.37-1.2.53-1.79.16-.6.3-1.19.43-1.79.13-.59.23-1.19.32-1.78.09-.59.16-1.18.21-1.77.05-.59.08-1.17.1-1.75.01-.58.01-1.16-.01-1.73-.02-.57-.06-1.14-.12-1.7-.06-.56-.14-1.12-.23-1.67-.09-.55-.21-1.1-.34-1.64-.13-.54-.28-1.07-.45-1.6-.17-.53-.35-1.05-.56-1.56-.2-.51-.42-1.02-.66-1.52-.24-.5-.49-.99-.77-1.47-.28-.48-.57-.95-.87-1.41-.31-.46-.63-.92-.97-1.36-.34-.44-.7-.88-1.07-1.3-.37-.42-.76-.84-1.17-1.24-.41-.4-.83-.79-1.26-1.17-.44-.38-.89-.75-1.35-1.11-.47-.36-.94-.7-1.44-1.04-.49-.33-1-.66-1.52-.96-.52-.31-1.06-.6-1.6-.89-.55-.28-1.11-.55-1.68-.81-.57-.26-1.16-.5-1.75-.73-.59-.23-1.2-.45-1.82-.65-.62-.2-1.24-.39-1.88-.57-.64-.18-1.28-.34-1.94-.49-.66-.15-1.32-.28-1.99-.4-.67-.12-1.36-.23-2.05-.32-.69-.09-1.38-.17-2.09-.23-.7-.06-1.41-.11-2.13-.14-.72-.03-1.44-.05-2.16-.06-.73,0-1.46,0-2.19.03-.99.03-1.99.09-3,.18-1.01.09-2.02.2-3.03.34-1.01.14-2.03.31-3.05.5-1.02.19-2.03.41-3.05.65-1.02.24-2.03.51-3.05.81-1.01.29-2.02.61-3.02.95-1,.34-2,.71-2.99,1.1-.99.39-1.97.8-2.94,1.24-.97.44-1.93.89-2.88,1.37-.95.48-1.89.98-2.81,1.5-.92.52-1.83,1.06-2.72,1.62-.89.56-1.77,1.14-2.62,1.74-.86.6-1.69,1.21-2.51,1.84-.82.63-1.62,1.28-2.4,1.94-.78.66-1.53,1.34-2.26,2.04-.73.69-1.44,1.4-2.13,2.12-.68.72-1.34,1.45-1.98,2.19-.63.74-1.24,1.49-1.82,2.25-.58.76-1.13,1.53-1.65,2.31-.52.78-1.02,1.56-1.48,2.35-.47.79-.9,1.58-1.3,2.38-.4.8-.78,1.6-1.12,2.41-.34.81-.65,1.61-.93,2.42-.28.81-.52,1.61-.74,2.42-.21.81-.39,1.61-.54,2.41-.15.8-.26,1.6-.34,2.39s-.13,1.58-.14,2.36c-.01.78,0,1.56.06,2.32.05.77.14,1.53.26,2.27.12.75.27,1.49.46,2.22.19.73.4,1.44.65,2.15.25.7.54,1.39.85,2.07.31.68.66,1.34,1.04,1.98.38.65.79,1.27,1.22,1.89.44.61.91,1.21,1.41,1.78.5.58,1.02,1.13,1.58,1.67.55.54,1.14,1.06,1.75,1.55.61.5,1.24.97,1.91,1.42.66.45,1.35.88,2.06,1.29.71.41,1.45.79,2.2,1.15.76.36,1.53.7,2.33,1.01.8.31,1.62.6,2.46.86.84.26,1.69.5,2.57.72.88.21,1.77.4,2.67.56.91.16,1.83.3,2.76.41.93.11,1.88.19,2.84.25.96.06,1.93.08,2.9.09.98,0,1.96-.02,2.96-.07Z"/><path class="cls-3" d="M530.59,629.6c1.45-.16,2.9-.29,4.34-.39,1.44-.1,2.88-.17,4.3-.22,1.43-.04,2.85-.06,4.26-.04,1.41.01,2.81.05,4.2.13,1.39.07,2.76.17,4.13.3,1.36.13,2.71.28,4.05.47,1.34.18,2.66.4,3.96.64,1.3.24,2.59.51,3.86.8,1.27.3,2.52.62,3.75.97,1.23.35,2.44.73,3.63,1.13,1.19.4,2.36.83,3.51,1.29,1.15.46,2.27.94,3.37,1.45,1.1.51,2.18,1.04,3.23,1.6,1.05.56,2.08,1.14,3.08,1.75,1,.61,1.97,1.24,2.92,1.9.95.66,1.86,1.34,2.75,2.04.89.7,1.75,1.43,2.58,2.18.83.75,1.63,1.52,2.4,2.31.77.79,1.51,1.6,2.21,2.43.71.83,1.38,1.68,2.03,2.55.64.87,1.25,1.76,1.83,2.66.58.91,1.12,1.83,1.63,2.77.51.94.99,1.9,1.43,2.87.44.97.85,1.96,1.22,2.96.37,1,.71,2.02,1.01,3.05.3,1.03.57,2.07.8,3.13.23,1.06.43,2.12.59,3.2.16,1.08.28,2.16.37,3.26.09,1.1.14,2.2.15,3.32.02,1.12,0,2.24-.06,3.36-.06,1.13-.15,2.26-.28,3.4-.13,1.14-.29,2.29-.49,3.44-.2,1.15-.44,2.3-.71,3.46-.27,1.16-.58,2.31-.92,3.47-.34,1.16-.72,2.32-1.13,3.48-.41,1.16-.86,2.32-1.34,3.47-.48,1.16-.99,2.31-1.54,3.46-.55,1.15-1.13,2.3-1.74,3.44-.61,1.14-1.26,2.28-1.94,3.41s-1.39,2.26-2.13,3.38c-.74,1.12-1.51,2.23-2.31,3.33-.8,1.1-1.63,2.2-2.49,3.28-.86,1.08-1.75,2.16-2.66,3.22-.92,1.06-1.86,2.11-2.83,3.15-.97,1.04-1.97,2.07-2.99,3.08-1.02,1.01-2.07,2.01-3.14,2.99-1.07.98-2.17,1.95-3.29,2.9-1.12.95-2.26,1.89-3.43,2.8-1.16.92-2.35,1.82-3.56,2.7-1.21.88-2.43,1.75-3.67,2.59-1.25.84-2.51,1.67-3.79,2.47-1.28.8-2.57,1.59-3.89,2.35-1.31.76-2.64,1.5-3.98,2.22-1.34.72-2.7,1.41-4.06,2.09-1.37.67-2.75,1.32-4.14,1.95-1.39.63-2.79,1.23-4.2,1.8-1.41.58-2.83,1.13-4.25,1.66-1.43.53-2.86,1.03-4.29,1.5-1.44.48-2.88.92-4.33,1.35-1.45.42-2.9.82-4.35,1.19-1.45.37-2.91.71-4.36,1.02-1.45.31-2.91.6-4.36.86-1.45.26-2.91.49-4.35.69-1.45.2-2.89.38-4.33.52-1.43.15-2.86.26-4.28.35-1.42.09-2.83.15-4.24.18-1.41.03-2.8.04-4.19.02-1.39-.02-2.76-.07-4.13-.15-1.36-.08-2.72-.19-4.06-.32-1.34-.14-2.67-.3-3.98-.49-1.31-.19-2.61-.41-3.89-.66-1.28-.25-2.55-.52-3.79-.82-1.25-.3-2.48-.63-3.69-.99-1.21-.36-2.4-.74-3.57-1.15-1.17-.41-2.32-.84-3.45-1.3-1.13-.46-2.23-.95-3.31-1.46-1.08-.51-2.14-1.05-3.18-1.61-1.03-.56-2.04-1.15-3.02-1.76-.98-.61-1.94-1.24-2.87-1.9-.93-.66-1.83-1.34-2.71-2.04-.88-.7-1.72-1.43-2.54-2.18-.82-.75-1.61-1.51-2.37-2.3-.76-.79-1.49-1.6-2.19-2.43-.7-.83-1.37-1.68-2-2.54-.64-.87-1.24-1.75-1.81-2.66s-1.11-1.82-1.62-2.76c-.51-.94-.98-1.89-1.42-2.86-.44-.97-.84-1.95-1.22-2.95-.37-1-.71-2.01-1.01-3.04-.3-1.03-.57-2.06-.81-3.11-.23-1.05-.43-2.11-.6-3.18-.17-1.07-.29-2.15-.39-3.25-.09-1.09-.15-2.19-.18-3.3-.02-1.11-.01-2.22.04-3.35.05-1.12.13-2.25.25-3.38.12-1.13.27-2.27.46-3.41s.41-2.29.67-3.44c.26-1.15.55-2.3.88-3.45.33-1.15.69-2.3,1.09-3.46s.83-2.3,1.29-3.45c.47-1.15.96-2.3,1.49-3.44.53-1.15,1.1-2.29,1.69-3.42.6-1.14,1.23-2.27,1.89-3.4s1.35-2.25,2.08-3.36c.72-1.11,1.48-2.22,2.26-3.32.78-1.1,1.6-2.19,2.44-3.27.84-1.08,1.71-2.15,2.61-3.21.9-1.06,1.83-2.1,2.78-3.14.96-1.03,1.94-2.06,2.95-3.06,1.01-1.01,2.04-2,3.1-2.98,1.06-.98,2.14-1.94,3.24-2.89,1.11-.95,2.24-1.88,3.39-2.8,1.15-.92,2.32-1.81,3.51-2.69,1.19-.88,2.41-1.74,3.64-2.59,1.23-.84,2.48-1.67,3.75-2.47,1.27-.8,2.55-1.59,3.86-2.35,1.3-.76,2.62-1.5,3.95-2.22,1.33-.72,2.68-1.42,4.04-2.09,1.36-.67,2.73-1.33,4.11-1.96,1.38-.63,2.78-1.23,4.18-1.81,1.4-.58,2.82-1.14,4.24-1.67,1.42-.53,2.85-1.04,4.28-1.52,1.44-.48,2.88-.93,4.32-1.36,1.45-.43,2.89-.83,4.35-1.21,1.45-.37,2.9-.72,4.36-1.04,1.46-.32,2.91-.62,4.37-.88,1.46-.27,2.91-.51,4.36-.72,1.45-.21,2.9-.4,4.34-.55ZM509.77,736.31c.74-.04,1.48-.09,2.22-.16.74-.07,1.49-.15,2.23-.24.75-.09,1.5-.2,2.25-.33s1.5-.26,2.25-.41c.75-.15,1.5-.32,2.25-.5.75-.18,1.5-.37,2.25-.58.75-.21,1.5-.43,2.24-.66.74-.24,1.49-.48,2.23-.75.74-.26,1.47-.53,2.2-.82.73-.29,1.46-.59,2.18-.9.72-.31,1.44-.64,2.15-.97.71-.34,1.41-.69,2.11-1.05.7-.36,1.39-.73,2.07-1.12.68-.38,1.36-.78,2.03-1.18.67-.41,1.33-.82,1.98-1.25.65-.43,1.29-.86,1.92-1.31.63-.45,1.25-.9,1.86-1.37.61-.47,1.21-.94,1.8-1.42.59-.48,1.17-.98,1.73-1.48.56-.5,1.12-1.01,1.66-1.52.54-.52,1.07-1.04,1.58-1.57.51-.53,1.01-1.06,1.5-1.61.49-.54.96-1.09,1.42-1.64.46-.55.9-1.11,1.33-1.68.43-.56.84-1.13,1.24-1.71.4-.57.78-1.15,1.15-1.73.37-.58.71-1.16,1.05-1.75.33-.59.65-1.18.95-1.77.3-.59.58-1.18.85-1.78.27-.6.51-1.19.75-1.79.23-.6.45-1.2.64-1.79.2-.6.37-1.2.53-1.79.16-.6.3-1.19.43-1.79.13-.59.23-1.19.32-1.78.09-.59.16-1.18.21-1.77.05-.59.08-1.17.1-1.75.01-.58.01-1.16-.01-1.73-.02-.57-.06-1.14-.12-1.7-.06-.56-.14-1.12-.23-1.67-.09-.55-.21-1.1-.34-1.64-.13-.54-.28-1.07-.45-1.6-.17-.53-.35-1.05-.56-1.56-.2-.51-.42-1.02-.66-1.52-.24-.5-.49-.99-.77-1.47-.28-.48-.57-.95-.87-1.41-.31-.46-.63-.92-.97-1.36-.34-.44-.7-.88-1.07-1.3-.37-.42-.76-.84-1.17-1.24-.41-.4-.83-.79-1.26-1.17-.44-.38-.89-.75-1.35-1.11-.47-.36-.94-.7-1.44-1.04-.49-.33-1-.66-1.52-.96-.52-.31-1.06-.6-1.6-.89-.55-.28-1.11-.55-1.68-.81-.57-.26-1.16-.5-1.75-.73-.59-.23-1.2-.45-1.82-.65-.62-.2-1.24-.39-1.88-.57-.64-.18-1.28-.34-1.94-.49-.66-.15-1.32-.28-1.99-.4-.67-.12-1.36-.23-2.05-.32-.69-.09-1.38-.17-2.09-.23-.7-.06-1.41-.11-2.13-.14-.72-.03-1.44-.05-2.16-.06-.73,0-1.46,0-2.19.03-.99.03-1.99.09-3,.18-1.01.09-2.02.2-3.03.34-1.01.14-2.03.31-3.05.5-1.02.19-2.03.41-3.05.65-1.02.24-2.03.51-3.05.81-1.01.29-2.02.61-3.02.95-1,.34-2,.71-2.99,1.1-.99.39-1.97.8-2.94,1.24-.97.44-1.93.89-2.88,1.37-.95.48-1.89.98-2.81,1.5-.92.52-1.83,1.06-2.72,1.62-.89.56-1.77,1.14-2.62,1.74-.86.6-1.69,1.21-2.51,1.84-.82.63-1.62,1.28-2.4,1.94-.78.66-1.53,1.34-2.26,2.04-.73.69-1.44,1.4-2.13,2.12-.68.72-1.34,1.45-1.98,2.19-.63.74-1.24,1.49-1.82,2.25-.58.76-1.13,1.53-1.65,2.31-.52.78-1.02,1.56-1.48,2.35-.47.79-.9,1.58-1.3,2.38-.4.8-.78,1.6-1.12,2.41-.34.81-.65,1.61-.93,2.42-.28.81-.52,1.61-.74,2.42-.21.81-.39,1.61-.54,2.41-.15.8-.26,1.6-.34,2.39s-.13,1.58-.14,2.36c-.01.78,0,1.56.06,2.32.05.77.14,1.53.26,2.27.12.75.27,1.49.46,2.22.19.73.4,1.44.65,2.15.25.7.54,1.39.85,2.07.31.68.66,1.34,1.04,1.98.38.65.79,1.27,1.22,1.89.44.61.91,1.21,1.41,1.78.5.58,1.02,1.13,1.58,1.67.55.54,1.14,1.06,1.75,1.55.61.5,1.24.97,1.91,1.42.66.45,1.35.88,2.06,1.29.71.41,1.45.79,2.2,1.15.76.36,1.53.7,2.33,1.01.8.31,1.62.6,2.46.86.84.26,1.69.5,2.57.72.88.21,1.77.4,2.67.56.91.16,1.83.3,2.76.41.93.11,1.88.19,2.84.25.96.06,1.93.08,2.9.09.98,0,1.96-.02,2.96-.07Z"/><path class="cls-1" d="M212.84,629.28c1.43-.08,2.85-.13,4.26-.15,1.41-.02,2.82-.02,4.21.02,1.4.03,2.78.1,4.16.19,1.37.09,2.73.21,4.08.36,1.35.15,2.69.32,4.01.53,1.32.2,2.63.44,3.92.7,1.29.26,2.56.54,3.82.86,1.26.31,2.49.65,3.71,1.02,1.22.37,2.42.76,3.59,1.18,1.18.42,2.33.87,3.47,1.34,1.13.47,2.24.97,3.33,1.5,1.09.52,2.15,1.07,3.19,1.65,1.04.57,2.05,1.17,3.04,1.8.99.62,1.95,1.27,2.88,1.94.93.67,1.84,1.36,2.72,2.08.88.72,1.73,1.45,2.55,2.21.82.76,1.61,1.54,2.37,2.34.76.8,1.49,1.62,2.19,2.46.7.84,1.36,1.7,2,2.58s1.23,1.77,1.8,2.69c.57.91,1.1,1.84,1.61,2.79.5.95.97,1.91,1.4,2.89.43.98.83,1.97,1.2,2.98.37,1.01.7,2.03.99,3.06.29,1.03.56,2.08.78,3.14.23,1.06.42,2.12.57,3.2.16,1.08.27,2.17.36,3.27.08,1.1.13,2.2.14,3.32.01,1.11-.01,2.24-.07,3.36-.06,1.13-.15,2.26-.28,3.4-.13,1.14-.3,2.28-.5,3.43-.2,1.15-.44,2.3-.71,3.45-.27,1.15-.58,2.3-.92,3.46-.34,1.15-.72,2.31-1.13,3.46-.41,1.15-.85,2.31-1.33,3.46-.48,1.15-.99,2.3-1.53,3.44-.54,1.14-1.12,2.28-1.73,3.42-.61,1.14-1.25,2.27-1.92,3.39-.67,1.12-1.38,2.24-2.11,3.35s-1.5,2.21-2.29,3.31c-.8,1.09-1.62,2.18-2.47,3.25-.85,1.07-1.73,2.14-2.64,3.19-.91,1.05-1.84,2.09-2.81,3.12-.96,1.03-1.95,2.04-2.96,3.04-1.02,1-2.05,1.99-3.12,2.96-1.06.97-2.15,1.93-3.26,2.87-1.11.94-2.24,1.86-3.4,2.76-1.15.91-2.33,1.79-3.53,2.66-1.2.87-2.41,1.72-3.64,2.55-1.23.83-2.48,1.64-3.75,2.43-1.27.79-2.55,1.56-3.85,2.31-1.3.75-2.62,1.47-3.95,2.18-1.33.7-2.67,1.39-4.03,2.04-1.36.66-2.72,1.29-4.1,1.9-1.38.61-2.77,1.2-4.16,1.76s-2.8,1.1-4.22,1.61c-1.41.51-2.83,1-4.26,1.46-1.43.46-2.86.9-4.29,1.3-1.44.41-2.87.79-4.31,1.14-1.44.35-2.88.68-4.33.98-1.44.3-2.89.57-4.33.82-1.44.24-2.88.46-4.32.65-1.44.19-2.87.35-4.3.48-1.43.13-2.85.24-4.27.32-1.42.08-2.83.13-4.23.14-1.4.02-2.79.01-4.18-.02-1.38-.04-2.76-.1-4.12-.2-1.36-.09-2.71-.21-4.05-.36-1.34-.15-2.66-.33-3.97-.53-1.31-.2-2.6-.44-3.88-.7-1.28-.26-2.54-.55-3.78-.86-1.24-.32-2.47-.66-3.68-1.03-1.21-.37-2.39-.77-3.56-1.19-1.17-.42-2.31-.87-3.44-1.35-1.12-.47-2.23-.97-3.31-1.5-1.08-.53-2.13-1.08-3.16-1.65-1.03-.58-2.04-1.18-3.02-1.8-.98-.62-1.94-1.27-2.86-1.94-.93-.67-1.83-1.36-2.7-2.08-.87-.72-1.72-1.45-2.53-2.21-.82-.76-1.6-1.54-2.36-2.34-.76-.8-1.48-1.62-2.18-2.46-.7-.84-1.36-1.7-1.99-2.58-.64-.88-1.24-1.77-1.81-2.69-.57-.91-1.11-1.84-1.61-2.79-.5-.95-.98-1.91-1.41-2.89-.44-.98-.84-1.97-1.21-2.98-.37-1.01-.71-2.03-1.01-3.06-.3-1.03-.57-2.08-.8-3.13-.23-1.06-.43-2.12-.59-3.2-.16-1.08-.29-2.17-.38-3.26-.09-1.1-.15-2.2-.17-3.31-.02-1.11,0-2.23.04-3.36.05-1.13.14-2.26.26-3.4.12-1.14.27-2.28.46-3.42.19-1.15.42-2.29.68-3.44.26-1.15.55-2.3.88-3.45.33-1.15.69-2.3,1.09-3.46.4-1.15.83-2.3,1.3-3.45.47-1.15.97-2.29,1.5-3.44.53-1.14,1.1-2.28,1.69-3.42.6-1.14,1.23-2.26,1.89-3.39.66-1.12,1.35-2.24,2.08-3.35.73-1.11,1.48-2.21,2.27-3.3.78-1.09,1.6-2.18,2.44-3.25.84-1.07,1.72-2.14,2.62-3.19.9-1.05,1.83-2.09,2.78-3.12.96-1.03,1.94-2.04,2.94-3.04,1.01-1,2.04-1.98,3.1-2.95,1.06-.97,2.14-1.92,3.24-2.86,1.1-.94,2.23-1.86,3.38-2.76,1.15-.91,2.32-1.79,3.51-2.66,1.19-.87,2.4-1.72,3.63-2.55,1.23-.83,2.48-1.64,3.75-2.43,1.27-.79,2.55-1.56,3.85-2.31,1.3-.75,2.62-1.47,3.95-2.18,1.33-.7,2.67-1.39,4.03-2.04,1.36-.66,2.73-1.29,4.11-1.9,1.38-.61,2.77-1.2,4.17-1.76,1.4-.56,2.81-1.1,4.23-1.61,1.42-.51,2.84-1,4.27-1.46,1.43-.46,2.87-.9,4.31-1.3,1.44-.41,2.89-.79,4.33-1.15,1.45-.36,2.9-.68,4.35-.99,1.45-.3,2.9-.57,4.35-.82,1.45-.25,2.9-.47,4.34-.66,1.45-.19,2.89-.35,4.33-.49,1.44-.14,2.87-.24,4.3-.32ZM189.29,735.99c.74-.05,1.48-.12,2.23-.21.75-.08,1.49-.18,2.24-.3.75-.11,1.5-.24,2.25-.38.75-.14,1.5-.3,2.25-.47.75-.17,1.5-.35,2.25-.55s1.49-.41,2.24-.63c.74-.23,1.48-.46,2.22-.72s1.47-.52,2.2-.8c.73-.28,1.46-.57,2.18-.87.72-.3,1.44-.62,2.15-.95.71-.33,1.42-.67,2.11-1.02.7-.35,1.39-.72,2.08-1.09.68-.38,1.36-.76,2.03-1.16.67-.4,1.33-.81,1.98-1.23.65-.42,1.29-.85,1.92-1.29.63-.44,1.26-.89,1.87-1.35.61-.46,1.21-.93,1.8-1.41.59-.48,1.17-.97,1.73-1.46.57-.49,1.12-1,1.66-1.51.54-.51,1.07-1.03,1.59-1.56.51-.53,1.02-1.06,1.5-1.6s.96-1.08,1.42-1.63c.46-.55.9-1.11,1.34-1.67.43-.56.85-1.13,1.24-1.7.4-.57.78-1.15,1.15-1.73.37-.58.72-1.16,1.06-1.75s.65-1.18.96-1.77c.3-.59.59-1.18.85-1.78.27-.6.52-1.19.75-1.79.23-.6.45-1.2.65-1.8.2-.6.38-1.2.54-1.8.16-.6.31-1.2.43-1.79.13-.6.24-1.19.33-1.79.09-.59.16-1.19.22-1.78.05-.59.09-1.18.1-1.76.02-.58.01-1.16,0-1.74-.02-.58-.06-1.15-.12-1.71-.06-.57-.13-1.13-.23-1.69-.09-.56-.2-1.11-.34-1.65-.13-.55-.28-1.08-.44-1.62-.16-.53-.35-1.06-.55-1.58-.2-.52-.42-1.03-.66-1.53-.24-.5-.49-1-.76-1.49-.27-.49-.56-.96-.87-1.43-.31-.47-.63-.93-.97-1.38-.34-.45-.7-.89-1.07-1.32-.37-.43-.76-.85-1.16-1.26-.4-.41-.82-.81-1.26-1.2-.43-.39-.88-.77-1.35-1.13-.46-.37-.94-.72-1.43-1.06-.49-.34-1-.67-1.52-.99-.52-.32-1.05-.62-1.6-.91-.54-.29-1.1-.57-1.67-.84-.57-.27-1.15-.52-1.75-.76-.59-.24-1.2-.47-1.81-.68-.62-.21-1.24-.41-1.88-.59-.64-.18-1.28-.36-1.94-.51-.66-.16-1.32-.3-1.99-.43-.67-.13-1.35-.24-2.04-.34-.69-.1-1.38-.18-2.09-.25-.7-.07-1.41-.13-2.13-.17-.71-.04-1.44-.07-2.16-.08-.73-.01-1.46,0-2.19,0-.73.02-1.47.05-2.22.1-.75.05-1.5.11-2.25.19-.75.08-1.51.17-2.27.27-.76.11-1.52.23-2.28.36-.76.14-1.52.29-2.28.45-.76.16-1.52.34-2.28.54-.76.19-1.51.4-2.27.62-.75.22-1.51.45-2.25.7-.75.25-1.49.51-2.23.78-.74.28-1.48.56-2.21.87-.73.3-1.46.62-2.18.94-.72.33-1.44.67-2.14,1.02-.71.35-1.41.72-2.1,1.09-.69.38-1.38.76-2.06,1.16-.68.4-1.35.81-2.01,1.23-.66.42-1.31.85-1.95,1.29-.64.44-1.27.89-1.89,1.35s-1.23.93-1.82,1.41c-.6.48-1.18.97-1.76,1.47-.57.5-1.13,1-1.68,1.52-.55.51-1.08,1.04-1.6,1.56-.52.53-1.03,1.06-1.52,1.61-.49.54-.97,1.09-1.44,1.65-.46.56-.91,1.12-1.35,1.68-.43.57-.85,1.14-1.25,1.71-.4.58-.79,1.16-1.16,1.74-.37.58-.72,1.17-1.06,1.76-.34.59-.66,1.18-.96,1.78-.3.6-.59,1.2-.86,1.8-.27.6-.52,1.2-.75,1.81-.23.6-.45,1.21-.65,1.81-.2.61-.38,1.21-.54,1.82-.16.6-.3,1.21-.43,1.81-.13.6-.23,1.2-.32,1.8-.09.6-.16,1.2-.21,1.79-.05.6-.08,1.19-.09,1.77-.01.59,0,1.17.02,1.75.02.58.07,1.16.13,1.73.06.57.14,1.14.24,1.7.1.56.22,1.12.35,1.67s.29,1.09.46,1.63c.17.54.36,1.07.57,1.59.21.52.43,1.04.68,1.54.24.51.5,1,.78,1.49.28.49.57.97.89,1.44.31.47.64.93.99,1.39.35.45.71.89,1.09,1.33.38.43.78.85,1.19,1.26.41.41.84.81,1.28,1.2.44.39.9.77,1.37,1.13.47.37.96.72,1.46,1.06.5.34,1.02.67,1.54.98.53.32,1.07.62,1.62.91.55.29,1.12.57,1.7.83.58.26,1.17.51,1.77.75.6.24,1.21.46,1.84.67.62.21,1.26.4,1.9.58.64.18,1.3.35,1.96.5.66.15,1.34.29,2.02.41.68.12,1.37.23,2.06.32.7.09,1.4.17,2.11.24.71.06,1.42.11,2.15.15.72.03,1.45.05,2.18.06.73,0,1.47,0,2.21-.03.74-.03,1.48-.07,2.23-.12Z"/><path class="cls-3" d="M212.84,629.28c1.43-.08,2.85-.13,4.26-.15,1.41-.02,2.82-.02,4.21.02,1.4.03,2.78.1,4.16.19,1.37.09,2.73.21,4.08.36,1.35.15,2.69.32,4.01.53,1.32.2,2.63.44,3.92.7,1.29.26,2.56.54,3.82.86,1.26.31,2.49.65,3.71,1.02,1.22.37,2.42.76,3.59,1.18,1.18.42,2.33.87,3.47,1.34,1.13.47,2.24.97,3.33,1.5,1.09.52,2.15,1.07,3.19,1.65,1.04.57,2.05,1.17,3.04,1.8.99.62,1.95,1.27,2.88,1.94.93.67,1.84,1.36,2.72,2.08.88.72,1.73,1.45,2.55,2.21.82.76,1.61,1.54,2.37,2.34.76.8,1.49,1.62,2.19,2.46.7.84,1.36,1.7,2,2.58s1.23,1.77,1.8,2.69c.57.91,1.1,1.84,1.61,2.79.5.95.97,1.91,1.4,2.89.43.98.83,1.97,1.2,2.98.37,1.01.7,2.03.99,3.06.29,1.03.56,2.08.78,3.14.23,1.06.42,2.12.57,3.2.16,1.08.27,2.17.36,3.27.08,1.1.13,2.2.14,3.32.01,1.11-.01,2.24-.07,3.36-.06,1.13-.15,2.26-.28,3.4-.13,1.14-.3,2.28-.5,3.43-.2,1.15-.44,2.3-.71,3.45-.27,1.15-.58,2.3-.92,3.46-.34,1.15-.72,2.31-1.13,3.46-.41,1.15-.85,2.31-1.33,3.46-.48,1.15-.99,2.3-1.53,3.44-.54,1.14-1.12,2.28-1.73,3.42-.61,1.14-1.25,2.27-1.92,3.39-.67,1.12-1.38,2.24-2.11,3.35s-1.5,2.21-2.29,3.31c-.8,1.09-1.62,2.18-2.47,3.25-.85,1.07-1.73,2.14-2.64,3.19-.91,1.05-1.84,2.09-2.81,3.12-.96,1.03-1.95,2.04-2.96,3.04-1.02,1-2.05,1.99-3.12,2.96-1.06.97-2.15,1.93-3.26,2.87-1.11.94-2.24,1.86-3.4,2.76-1.15.91-2.33,1.79-3.53,2.66-1.2.87-2.41,1.72-3.64,2.55-1.23.83-2.48,1.64-3.75,2.43-1.27.79-2.55,1.56-3.85,2.31-1.3.75-2.62,1.47-3.95,2.18-1.33.7-2.67,1.39-4.03,2.04-1.36.66-2.72,1.29-4.1,1.9-1.38.61-2.77,1.2-4.16,1.76s-2.8,1.1-4.22,1.61c-1.41.51-2.83,1-4.26,1.46-1.43.46-2.86.9-4.29,1.3-1.44.41-2.87.79-4.31,1.14-1.44.35-2.88.68-4.33.98-1.44.3-2.89.57-4.33.82-1.44.24-2.88.46-4.32.65-1.44.19-2.87.35-4.3.48-1.43.13-2.85.24-4.27.32-1.42.08-2.83.13-4.23.14-1.4.02-2.79.01-4.18-.02-1.38-.04-2.76-.1-4.12-.2-1.36-.09-2.71-.21-4.05-.36-1.34-.15-2.66-.33-3.97-.53-1.31-.2-2.6-.44-3.88-.7-1.28-.26-2.54-.55-3.78-.86-1.24-.32-2.47-.66-3.68-1.03-1.21-.37-2.39-.77-3.56-1.19-1.17-.42-2.31-.87-3.44-1.35-1.12-.47-2.23-.97-3.31-1.5-1.08-.53-2.13-1.08-3.16-1.65-1.03-.58-2.04-1.18-3.02-1.8-.98-.62-1.94-1.27-2.86-1.94-.93-.67-1.83-1.36-2.7-2.08-.87-.72-1.72-1.45-2.53-2.21-.82-.76-1.6-1.54-2.36-2.34-.76-.8-1.48-1.62-2.18-2.46-.7-.84-1.36-1.7-1.99-2.58-.64-.88-1.24-1.77-1.81-2.69-.57-.91-1.11-1.84-1.61-2.79-.5-.95-.98-1.91-1.41-2.89-.44-.98-.84-1.97-1.21-2.98-.37-1.01-.71-2.03-1.01-3.06-.3-1.03-.57-2.08-.8-3.13-.23-1.06-.43-2.12-.59-3.2-.16-1.08-.29-2.17-.38-3.26-.09-1.1-.15-2.2-.17-3.31-.02-1.11,0-2.23.04-3.36.05-1.13.14-2.26.26-3.4.12-1.14.27-2.28.46-3.42.19-1.15.42-2.29.68-3.44.26-1.15.55-2.3.88-3.45.33-1.15.69-2.3,1.09-3.46.4-1.15.83-2.3,1.3-3.45.47-1.15.97-2.29,1.5-3.44.53-1.14,1.1-2.28,1.69-3.42.6-1.14,1.23-2.26,1.89-3.39.66-1.12,1.35-2.24,2.08-3.35.73-1.11,1.48-2.21,2.27-3.3.78-1.09,1.6-2.18,2.44-3.25.84-1.07,1.72-2.14,2.62-3.19.9-1.05,1.83-2.09,2.78-3.12.96-1.03,1.94-2.04,2.94-3.04,1.01-1,2.04-1.98,3.1-2.95,1.06-.97,2.14-1.92,3.24-2.86,1.1-.94,2.23-1.86,3.38-2.76,1.15-.91,2.32-1.79,3.51-2.66,1.19-.87,2.4-1.72,3.63-2.55,1.23-.83,2.48-1.64,3.75-2.43,1.27-.79,2.55-1.56,3.85-2.31,1.3-.75,2.62-1.47,3.95-2.18,1.33-.7,2.67-1.39,4.03-2.04,1.36-.66,2.73-1.29,4.11-1.9,1.38-.61,2.77-1.2,4.17-1.76,1.4-.56,2.81-1.1,4.23-1.61,1.42-.51,2.84-1,4.27-1.46,1.43-.46,2.87-.9,4.31-1.3,1.44-.41,2.89-.79,4.33-1.15,1.45-.36,2.9-.68,4.35-.99,1.45-.3,2.9-.57,4.35-.82,1.45-.25,2.9-.47,4.34-.66,1.45-.19,2.89-.35,4.33-.49,1.44-.14,2.87-.24,4.3-.32ZM189.29,735.99c.74-.05,1.48-.12,2.23-.21.75-.08,1.49-.18,2.24-.3.75-.11,1.5-.24,2.25-.38.75-.14,1.5-.3,2.25-.47.75-.17,1.5-.35,2.25-.55s1.49-.41,2.24-.63c.74-.23,1.48-.46,2.22-.72s1.47-.52,2.2-.8c.73-.28,1.46-.57,2.18-.87.72-.3,1.44-.62,2.15-.95.71-.33,1.42-.67,2.11-1.02.7-.35,1.39-.72,2.08-1.09.68-.38,1.36-.76,2.03-1.16.67-.4,1.33-.81,1.98-1.23.65-.42,1.29-.85,1.92-1.29.63-.44,1.26-.89,1.87-1.35.61-.46,1.21-.93,1.8-1.41.59-.48,1.17-.97,1.73-1.46.57-.49,1.12-1,1.66-1.51.54-.51,1.07-1.03,1.59-1.56.51-.53,1.02-1.06,1.5-1.6s.96-1.08,1.42-1.63c.46-.55.9-1.11,1.34-1.67.43-.56.85-1.13,1.24-1.7.4-.57.78-1.15,1.15-1.73.37-.58.72-1.16,1.06-1.75s.65-1.18.96-1.77c.3-.59.59-1.18.85-1.78.27-.6.52-1.19.75-1.79.23-.6.45-1.2.65-1.8.2-.6.38-1.2.54-1.8.16-.6.31-1.2.43-1.79.13-.6.24-1.19.33-1.79.09-.59.16-1.19.22-1.78.05-.59.09-1.18.1-1.76.02-.58.01-1.16,0-1.74-.02-.58-.06-1.15-.12-1.71-.06-.57-.13-1.13-.23-1.69-.09-.56-.2-1.11-.34-1.65-.13-.55-.28-1.08-.44-1.62-.16-.53-.35-1.06-.55-1.58-.2-.52-.42-1.03-.66-1.53-.24-.5-.49-1-.76-1.49-.27-.49-.56-.96-.87-1.43-.31-.47-.63-.93-.97-1.38-.34-.45-.7-.89-1.07-1.32-.37-.43-.76-.85-1.16-1.26-.4-.41-.82-.81-1.26-1.2-.43-.39-.88-.77-1.35-1.13-.46-.37-.94-.72-1.43-1.06-.49-.34-1-.67-1.52-.99-.52-.32-1.05-.62-1.6-.91-.54-.29-1.1-.57-1.67-.84-.57-.27-1.15-.52-1.75-.76-.59-.24-1.2-.47-1.81-.68-.62-.21-1.24-.41-1.88-.59-.64-.18-1.28-.36-1.94-.51-.66-.16-1.32-.3-1.99-.43-.67-.13-1.35-.24-2.04-.34-.69-.1-1.38-.18-2.09-.25-.7-.07-1.41-.13-2.13-.17-.71-.04-1.44-.07-2.16-.08-.73-.01-1.46,0-2.19,0-.73.02-1.47.05-2.22.1-.75.05-1.5.11-2.25.19-.75.08-1.51.17-2.27.27-.76.11-1.52.23-2.28.36-.76.14-1.52.29-2.28.45-.76.16-1.52.34-2.28.54-.76.19-1.51.4-2.27.62-.75.22-1.51.45-2.25.7-.75.25-1.49.51-2.23.78-.74.28-1.48.56-2.21.87-.73.3-1.46.62-2.18.94-.72.33-1.44.67-2.14,1.02-.71.35-1.41.72-2.1,1.09-.69.38-1.38.76-2.06,1.16-.68.4-1.35.81-2.01,1.23-.66.42-1.31.85-1.95,1.29-.64.44-1.27.89-1.89,1.35s-1.23.93-1.82,1.41c-.6.48-1.18.97-1.76,1.47-.57.5-1.13,1-1.68,1.52-.55.51-1.08,1.04-1.6,1.56-.52.53-1.03,1.06-1.52,1.61-.49.54-.97,1.09-1.44,1.65-.46.56-.91,1.12-1.35,1.68-.43.57-.85,1.14-1.25,1.71-.4.58-.79,1.16-1.16,1.74-.37.58-.72,1.17-1.06,1.76-.34.59-.66,1.18-.96,1.78-.3.6-.59,1.2-.86,1.8-.27.6-.52,1.2-.75,1.81-.23.6-.45,1.21-.65,1.81-.2.61-.38,1.21-.54,1.82-.16.6-.3,1.21-.43,1.81-.13.6-.23,1.2-.32,1.8-.09.6-.16,1.2-.21,1.79-.05.6-.08,1.19-.09,1.77-.01.59,0,1.17.02,1.75.02.58.07,1.16.13,1.73.06.57.14,1.14.24,1.7.1.56.22,1.12.35,1.67s.29,1.09.46,1.63c.17.54.36,1.07.57,1.59.21.52.43,1.04.68,1.54.24.51.5,1,.78,1.49.28.49.57.97.89,1.44.31.47.64.93.99,1.39.35.45.71.89,1.09,1.33.38.43.78.85,1.19,1.26.41.41.84.81,1.28,1.2.44.39.9.77,1.37,1.13.47.37.96.72,1.46,1.06.5.34,1.02.67,1.54.98.53.32,1.07.62,1.62.91.55.29,1.12.57,1.7.83.58.26,1.17.51,1.77.75.6.24,1.21.46,1.84.67.62.21,1.26.4,1.9.58.64.18,1.3.35,1.96.5.66.15,1.34.29,2.02.41.68.12,1.37.23,2.06.32.7.09,1.4.17,2.11.24.71.06,1.42.11,2.15.15.72.03,1.45.05,2.18.06.73,0,1.47,0,2.21-.03.74-.03,1.48-.07,2.23-.12Z"/><path class="cls-1" d="M425.39,354.51c-.19.78-3.69,2.04-5.08,2.56-3.51,1.29-7.19,2.72-10.55,4.28-8.76,4.02-16.77,9.4-24.03,15.47-4.57,3.46-24.44,22.74-21.73,26.53.61.48,2.11.16,4.07-.62,2.78-1.14,6.34-2.76,9.39-4.15,18.27-8.36,35.51-17.58,52.34-27.87,3.01-1.53,10.53-7.46,13.72-6.73,1.83,1.48-.37,6.05-.84,8.22-4.74,14.92-9.67,30.23-14.45,45.24-1.51,6.04-7.14,15.93,1.02,19.66,9.08,2.69,14.5-6.26,16.33-12.87,4.46-13.76,9.73-30.33,14.76-45.97,1.15-3.45,2.29-7.56,3.68-10.66.59-1.25,1.28-2.21,2.09-2.72,3.38-1.92,7.9,4.04,10.17,5.97,10.2,10.21,21.76,19.54,34.17,27.59,2.09,1.34,4.38,2.88,6.71,3.73,9.07,3.08,3.94-12.23,2.89-15.85-3.09-8.85-8.43-17.35-16.12-23.25-3.37-2.84-8.34-4.88-11.7-7.49-3.54-3.06,12.62-1.22,14.25-1.53,8.63.11,17.82-.02,26.49-.38,18.29-.79,36.89-2.22,55.12-4.9,61.33-9.46,125.79-38.23,141.4-47.66.07-.25-.21-.47-.95-.65-.12-.03-.25-.06-.39-.09-5-.75-10.56-.61-15.68-.79-53.95-.34-113.4,2.22-166.06,16.79-.87.17-7.26,2.15-5.86.58,32.38-18.2,70.64-40.12,100.73-65.09,52.76-40.76,108.31-121.23,112.36-135.63.4-1.02.39-1.44-.73-1-12.65,5.19-101.99,53.28-155.94,93.26-29.3,21.01-55.27,44.2-78.92,70.19-.45.43-4.65,5.01-4.38,3.27,45.33-72.45,79.18-178.53,63.98-261.98-1.09-6.31-2.4-11.89-3.9-16.41-.47-1.49-1.36-3.99-3.43-2.96-34.14,34.51-64.01,82.86-89.25,139.1-16.74,39.71-29.53,91.91-31.28,129.99-.16,7.07-1.04,11.21-4.11,1.26-2.17-7.14-4.49-14.35-7.21-21.19-19.23-48.12-73.29-104.24-116.83-135.11-.1-.05-.2-.1-.29-.14-.12-.06-.12-.06-.34-.15-1.48-.63-2.16-.37-2.48.86-3.32,16.77-4.11,97.18,30.48,145.93,9.41,13.17,19.83,25.41,31.47,36.77,4.91,4.8,9.94,9.35,15.23,13.79,2.52,2.27,11.26,8.9,2.23,5.94-50.79-17.73-121.5-18.92-170.02-17.75-1.97.02-6.06.58-5.72,2.02.06.39.38.82.85,1.26,10.21,8.26,40.77,26.55,73.93,36.99,35.91,12.33,81.97,14.33,118.16,13.84,1.93.13,9.56-.83,10.24.48v.02Z"/><path class="cls-3" d="M425.39,354.51c-.19.78-3.69,2.04-5.08,2.56-3.51,1.29-7.19,2.72-10.55,4.28-8.76,4.02-16.77,9.4-24.03,15.47-4.57,3.46-24.44,22.74-21.73,26.53.61.48,2.11.16,4.07-.62,2.78-1.14,6.34-2.76,9.39-4.15,18.27-8.36,35.51-17.58,52.34-27.87,3.01-1.53,10.53-7.46,13.72-6.73,1.83,1.48-.37,6.05-.84,8.22-4.74,14.92-9.67,30.23-14.45,45.24-1.51,6.04-7.14,15.93,1.02,19.66,9.08,2.69,14.5-6.26,16.33-12.87,4.46-13.76,9.73-30.33,14.76-45.97,1.15-3.45,2.29-7.56,3.68-10.66.59-1.25,1.28-2.21,2.09-2.72,3.38-1.92,7.9,4.04,10.17,5.97,10.2,10.21,21.76,19.54,34.17,27.59,2.09,1.34,4.38,2.88,6.71,3.73,9.07,3.08,3.94-12.23,2.89-15.85-3.09-8.85-8.43-17.35-16.12-23.25-3.37-2.84-8.34-4.88-11.7-7.49-3.54-3.06,12.62-1.22,14.25-1.53,8.63.11,17.82-.02,26.49-.38,18.29-.79,36.89-2.22,55.12-4.9,61.33-9.46,125.79-38.23,141.4-47.66.07-.25-.21-.47-.95-.65-.12-.03-.25-.06-.39-.09-5-.75-10.56-.61-15.68-.79-53.95-.34-113.4,2.22-166.06,16.79-.87.17-7.26,2.15-5.86.58,32.38-18.2,70.64-40.12,100.73-65.09,52.76-40.76,108.31-121.23,112.36-135.63.4-1.02.39-1.44-.73-1-12.65,5.19-101.99,53.28-155.94,93.26-29.3,21.01-55.27,44.2-78.92,70.19-.45.43-4.65,5.01-4.38,3.27,45.33-72.45,79.18-178.53,63.98-261.98-1.09-6.31-2.4-11.89-3.9-16.41-.47-1.49-1.36-3.99-3.43-2.96-34.14,34.51-64.01,82.86-89.25,139.1-16.74,39.71-29.53,91.91-31.28,129.99-.16,7.07-1.04,11.21-4.11,1.26-2.17-7.14-4.49-14.35-7.21-21.19-19.23-48.12-73.29-104.24-116.83-135.11-.1-.05-.2-.1-.29-.14-.12-.06-.12-.06-.34-.15-1.48-.63-2.16-.37-2.48.86-3.32,16.77-4.11,97.18,30.48,145.93,9.41,13.17,19.83,25.41,31.47,36.77,4.91,4.8,9.94,9.35,15.23,13.79,2.52,2.27,11.26,8.9,2.23,5.94-50.79-17.73-121.5-18.92-170.02-17.75-1.97.02-6.06.58-5.72,2.02.06.39.38.82.85,1.26,10.21,8.26,40.77,26.55,73.93,36.99,35.91,12.33,81.97,14.33,118.16,13.84,1.93.13,9.56-.83,10.24.48v.02Z"/><path class="cls-1" d="M1069.61,133.59h266.27c112.51,0,203.45,30.86,266.27,84.46,62.82,53.6,97.51,125.07,97.51,209.54,0,79.59-30.94,152.69-93.76,207.1-62.82,54.41-151.89,86.9-269.08,86.9h-267.21V133.59ZM1457.39,538.41c31.84-26.77,48.69-66.52,48.69-110.32s-16.86-83.55-48.69-110.32c-31.84-26.77-73.04-42.18-123.61-42.18h-71.17v305h71.17c50.57,0,91.77-15.41,123.61-42.18Z"/><path class="cls-2" d="M1069.61,133.59h266.27c112.51,0,203.45,30.86,266.27,84.46,62.82,53.6,97.51,125.07,97.51,209.54,0,79.59-30.94,152.69-93.76,207.1-62.82,54.41-151.89,86.9-269.08,86.9h-267.21V133.59ZM1457.39,538.41c31.84-26.77,48.69-66.52,48.69-110.32s-16.86-83.55-48.69-110.32c-31.84-26.77-73.04-42.18-123.61-42.18h-71.17v305h71.17c50.57,0,91.77-15.41,123.61-42.18Z"/><path class="cls-1" d="M2033.84,133.59h199.7l270.02,588h-210.29l-47.74-120h-232.13l-49.61,120h-199.98l270.02-588ZM2196.17,478.59l-22.55-56.15c-13.15-33.36-29.12-74.05-41.33-109.85h-1.88c-13.15,36.62-29.12,77.3-43.21,111.48l-22.55,54.52h131.51Z"/><path class="cls-2" d="M2033.84,133.59h199.7l270.02,588h-210.29l-47.74-120h-232.13l-49.61,120h-199.98l270.02-588ZM2196.17,478.59l-22.55-56.15c-13.15-33.36-29.12-74.05-41.33-109.85h-1.88c-13.15,36.62-29.12,77.3-43.21,111.48l-22.55,54.52h131.51Z"/><path class="cls-1" d="M2593.61,134.59h180.36l180.36,212.36c37.58,43.77,70.45,83.49,104.27,125.64h1.88c-.94-50.25-1.88-100.51-1.88-149.95v-188.05h186v587h-180.94l-180-212.36c-37.5-43.77-70.31-83.49-104.06-125.64h-1.87c.94,50.25,1.87,100.51,1.87,149.95v189.05h-186V134.59Z"/><path class="cls-2" d="M2593.61,134.59h180.36l180.36,212.36c37.58,43.77,70.45,83.49,104.27,125.64h1.88c-.94-50.25-1.88-100.51-1.88-149.95v-188.05h186v587h-180.94l-180-212.36c-37.5-43.77-70.31-83.49-104.06-125.64h-1.87c.94,50.25,1.87,100.51,1.87,149.95v189.05h-186V134.59Z"/><polygon class="cls-1" points="3385.61 133.59 3578.61 133.59 3578.61 393.48 3580.48 394.29 3779.1 133.59 4003.96 133.59 3778.16 411.35 4017.07 721.59 3785.66 721.59 3580.48 438.15 3578.61 438.96 3578.61 721.59 3385.61 721.59 3385.61 133.59"/><polygon class="cls-2" points="3385.61 133.59 3578.61 133.59 3578.61 393.48 3580.48 394.29 3779.1 133.59 4003.96 133.59 3778.16 411.35 4017.07 721.59 3785.66 721.59 3580.48 438.15 3578.61 438.96 3578.61 721.59 3385.61 721.59 3385.61 133.59"/><path class="cls-1" d="M4092.61,133.59h266.27c112.51,0,203.45,30.86,266.27,84.46,62.82,53.6,97.51,125.07,97.51,209.54,0,79.59-30.94,152.69-93.76,207.1-62.82,54.41-151.89,86.9-269.08,86.9h-267.21V133.59ZM4481.39,538.41c31.84-26.77,48.7-66.52,48.7-110.32s-16.86-83.55-48.7-110.32c-31.84-26.77-73.04-42.18-123.61-42.18h-71.17v305h71.17c50.57,0,91.77-15.41,123.61-42.18Z"/><path class="cls-2" d="M4092.61,133.59h266.27c112.51,0,203.45,30.86,266.27,84.46,62.82,53.6,97.51,125.07,97.51,209.54,0,79.59-30.94,152.69-93.76,207.1-62.82,54.41-151.89,86.9-269.08,86.9h-267.21V133.59ZM4481.39,538.41c31.84-26.77,48.7-66.52,48.7-110.32s-16.86-83.55-48.7-110.32c-31.84-26.77-73.04-42.18-123.61-42.18h-71.17v305h71.17c50.57,0,91.77-15.41,123.61-42.18Z"/><polygon class="cls-1" points="4838.61 133.59 5280.61 133.59 5280.61 274.59 5028.61 274.59 5028.61 358.59 5242.61 358.59 5242.61 491.59 5029.61 491.59 5029.61 580.59 5292.61 580.59 5292.61 721.59 4838.61 721.59 4838.61 133.59"/><polygon class="cls-2" points="4838.61 133.59 5280.61 133.59 5280.61 274.59 5028.61 274.59 5028.61 358.59 5242.61 358.59 5242.61 491.59 5029.61 491.59 5029.61 580.59 5292.61 580.59 5292.61 721.59 4838.61 721.59 4838.61 133.59"/><path class="cls-1" d="M5631.76,133.59h199.7l270.02,588h-210.29l-47.74-120h-232.13l-49.61,120h-199.98l270.02-588ZM5794.09,478.59l-22.55-56.15c-13.15-33.36-29.12-74.05-41.33-109.85h-1.88c-13.15,36.62-29.12,77.3-43.21,111.48l-22.55,54.52h131.51Z"/><path class="cls-2" d="M5631.76,133.59h199.7l270.02,588h-210.29l-47.74-120h-232.13l-49.61,120h-199.98l270.02-588ZM5794.09,478.59l-22.55-56.15c-13.15-33.36-29.12-74.05-41.33-109.85h-1.88c-13.15,36.62-29.12,77.3-43.21,111.48l-22.55,54.52h131.51Z"/><polygon class="cls-1" points="6190.61 133.59 6384.61 133.59 6384.61 580.59 6667.61 580.59 6667.61 721.59 6190.61 721.59 6190.61 133.59"/><polygon class="cls-2" points="6190.61 133.59 6384.61 133.59 6384.61 580.59 6667.61 580.59 6667.61 721.59 6190.61 721.59 6190.61 133.59"/><path class="cls-1" d="M6991.52,592.36c43.2,0,69.5-13.02,69.5-41.49,0-21.96-16.9-32.54-57.29-43.93-40.38-11.39-125.84-26.03-178.44-56.13-52.59-30.1-79.83-72.4-79.83-134.23,0-120.4,100.49-191.99,254.51-191.99,69.5,0,157.78,15.46,221.64,43.12v151.31c-81.71-39.05-169.05-55.32-215.06-55.32-41.32,0-64.8,13.02-64.8,38.24,0,21.96,17.84,32.54,57.29,43.12,39.44,10.58,123.97,26.03,177.5,55.32,53.53,29.29,80.77,76.47,80.77,136.67,0,123.65-105.18,194.43-263.9,194.43-72.31,0-165.29-14.64-234.79-44.74v-158.64c86.4,46.37,185.95,64.27,232.91,64.27Z"/><path class="cls-2" d="M6991.52,592.36c43.2,0,69.5-13.02,69.5-41.49,0-21.96-16.9-32.54-57.29-43.93-40.38-11.39-125.84-26.03-178.44-56.13-52.59-30.1-79.83-72.4-79.83-134.23,0-120.4,100.49-191.99,254.51-191.99,69.5,0,157.78,15.46,221.64,43.12v151.31c-81.71-39.05-169.05-55.32-215.06-55.32-41.32,0-64.8,13.02-64.8,38.24,0,21.96,17.84,32.54,57.29,43.12,39.44,10.58,123.97,26.03,177.5,55.32,53.53,29.29,80.77,76.47,80.77,136.67,0,123.65-105.18,194.43-263.9,194.43-72.31,0-165.29-14.64-234.79-44.74v-158.64c86.4,46.37,185.95,64.27,232.91,64.27Z"/></g></svg>