<?xml version="1.0" encoding="UTF-8"?><svg id="Layer_2" xmlns="http://www.w3.org/2000/svg" viewBox="0 0 38.23 41.79"><defs><style>.cls-1{fill:#185a1b;}</style></defs><g id="Layer_1-2"><path class="cls-1" d="M26.3,32.66c-.2,0-.39-.12-.46-.32-.1-.26.02-.55.28-.65l4.18-1.65c1.48-.66,3.87-1.73,3.87-5.27v-4.46c0-1.15-.57-2.22-1.53-2.85-.96-.64-2.17-.75-3.23-.29l-2.91,1.24c-.25.11-.55,0-.66-.26-.11-.25,0-.55.26-.66l2.91-1.24c1.37-.58,2.93-.44,4.17.38,1.24.82,1.98,2.2,1.98,3.69v4.46c0,4.19-2.98,5.52-4.41,6.16l-4.27,1.69c-.06.02-.12.03-.18.03Z"/><path class="cls-1" d="M16.24,41.79h-5.68c-5.82,0-10.56-4.74-10.56-10.56V13.18c0-.28.22-.5.5-.5h25.8c.28,0,.5.22.5.5v18.05c0,5.82-4.74,10.56-10.56,10.56ZM1,13.68v17.55c0,5.27,4.29,9.56,9.56,9.56h5.68c5.27,0,9.56-4.29,9.56-9.56V13.68H1Z"/><rect class="cls-1" x=".5" y="17.95" width="25.8" height="4.44"/><path class="cls-1" d="M26.3,22.89H.5c-.28,0-.5-.22-.5-.5v-4.44c0-.28.22-.5.5-.5h25.8c.28,0,.5.22.5.5v4.44c0,.28-.22.5-.5.5ZM1,21.89h24.8v-3.44H1v3.44Z"/><path class="cls-1" d="M18.7,39.36c-.16,0-.32-.08-.41-.22-.16-.23-.09-.54.13-.69,1.77-1.19,3.66-3.47,3.66-6.28V15.92c0-.28.22-.5.5-.5s.5.22.5.5v16.24c0,4.03-3.14,6.46-4.1,7.11-.09.06-.18.09-.28.09Z"/><path class="cls-1" d="M32.3,11.78c-1.95,0-3.71-.92-5.26-2.75-1.29-1.52-2.7-2.3-4.17-2.3h0c-2.53,0-4.51,2.28-4.53,2.3-.18.21-.49.24-.7.06-.21-.18-.24-.49-.06-.7.09-.11,2.29-2.65,5.29-2.65h0c1.78,0,3.44.89,4.94,2.65,1.42,1.67,3.02,2.47,4.78,2.39,2.55-.13,4.54-2.06,4.72-2.32.12-.25.41-.33.66-.21.25.12.34.44.21.69-.17.35-2.25,2.46-5.1,2.8-.26.03-.51.05-.76.05Z"/><path class="cls-1" d="M32.51,6.17c-1.54,0-3.03-.55-4.43-1.65-.22-.17-.26-.48-.09-.7.17-.22.48-.26.7-.09,1.49,1.16,3.08,1.62,4.72,1.36,2.22-.35,3.75-1.87,3.88-2.07.12-.25.41-.34.66-.21.25.12.34.44.22.68-.21.42-1.86,1.98-4.15,2.5-.51.12-1.01.17-1.51.17Z"/><path class="cls-1" d="M9.53,9.25c-.09,0-.19-.03-.28-.08-.23-.15-.29-.46-.14-.69.08-.13,8.44-12.58,16.82-7.07.23.15.29.46.14.69-.15.23-.47.29-.69.14-7.55-4.97-15.36,6.67-15.44,6.79-.1.15-.25.22-.42.22Z"/></g></svg>