<?xml version="1.0" encoding="UTF-8"?><svg id="Layer_2" xmlns="http://www.w3.org/2000/svg" viewBox="0 0 36.96 42.37"><defs><style>.cls-1{fill:#185a1b;}</style></defs><g id="Layer_1-2"><path class="cls-1" d="M18.48,30.43c-3.46,0-6.28-2.96-6.28-6.61s2.82-6.61,6.28-6.61,6.28,2.96,6.28,6.61-2.82,6.61-6.28,6.61ZM18.48,20.51c-1.65,0-2.99,1.49-2.99,3.32s1.34,3.32,2.99,3.32,2.99-1.49,2.99-3.32-1.34-3.32-2.99-3.32Z"/><path class="cls-1" d="M18.48,30.93c-3.74,0-6.78-3.19-6.78-7.11s3.04-7.11,6.78-7.11,6.78,3.19,6.78,7.11-3.04,7.11-6.78,7.11ZM18.48,17.72c-3.19,0-5.78,2.74-5.78,6.11s2.59,6.11,5.78,6.11,5.78-2.74,5.78-6.11-2.59-6.11-5.78-6.11ZM18.48,27.65c-1.93,0-3.49-1.71-3.49-3.82s1.57-3.82,3.49-3.82,3.49,1.71,3.49,3.82-1.57,3.82-3.49,3.82ZM18.48,21.01c-1.37,0-2.49,1.26-2.49,2.82s1.12,2.82,2.49,2.82,2.49-1.27,2.49-2.82-1.12-2.82-2.49-2.82Z"/><path class="cls-1" d="M18.48,32.58c-6.86,0-13.04-3.17-16.13-8.28l-.28-.47.28-.47c3.09-5.11,9.27-8.28,16.13-8.28s13.04,3.17,16.13,8.28l.28.47-.28.47c-3.09,5.11-9.27,8.28-16.13,8.28ZM3.24,23.83c2.92,4.78,8.76,7.75,15.24,7.75s12.32-2.97,15.24-7.75c-2.92-4.78-8.76-7.75-15.24-7.75s-12.32,2.97-15.24,7.75ZM34.31,19.03c-.17,0-.33-.09-.43-.24l-.13-.21c-2.91-4.81-8.76-7.8-15.27-7.8s-12.36,2.99-15.27,7.8l-.13.21c-.14.24-.45.31-.69.17-.24-.14-.31-.45-.17-.69l.13-.21c3.09-5.11,9.27-8.28,16.13-8.28s13.04,3.17,16.13,8.28l.13.21c.14.24.07.54-.17.69-.08.05-.17.07-.26.07Z"/><path class="cls-1" d="M18.48,42.37c-.28,0-.5-.22-.5-.5v-4.86c0-.28.22-.5.5-.5s.5.22.5.5v4.86c0,.28-.22.5-.5.5Z"/><path class="cls-1" d="M27.95,40.91c-.22,0-.42-.14-.48-.36l-1.38-4.66c-.08-.26.07-.54.34-.62.27-.08.54.07.62.34l1.38,4.66c.08.26-.07.54-.34.62-.05.01-.1.02-.14.02Z"/><path class="cls-1" d="M36.46,36.66c-.16,0-.32-.08-.42-.23l-2.66-4.07c-.15-.23-.09-.54.15-.69.23-.15.54-.09.69.15l2.66,4.07c.15.23.09.54-.15.69-.08.06-.18.08-.27.08Z"/><path class="cls-1" d="M9.01,40.91s-.09,0-.14-.02c-.26-.08-.41-.36-.34-.62l1.38-4.66c.08-.26.35-.42.62-.34.26.08.41.36.34.62l-1.38,4.66c-.06.22-.26.36-.48.36Z"/><path class="cls-1" d="M.5,36.66c-.09,0-.19-.03-.27-.08-.23-.15-.3-.46-.15-.69l2.66-4.07c.15-.23.46-.3.69-.15.23.15.3.46.15.69l-2.66,4.07c-.1.15-.26.23-.42.23Z"/><path class="cls-1" d="M18.48,5.86c-.28,0-.5-.22-.5-.5V.5c0-.28.22-.5.5-.5s.5.22.5.5v4.86c0,.28-.22.5-.5.5Z"/><path class="cls-1" d="M10.39,7.12c-.22,0-.41-.14-.48-.36l-1.38-4.66c-.08-.26.07-.54.34-.62.27-.08.54.07.62.34l1.38,4.66c.08.26-.07.54-.34.62-.05.01-.1.02-.14.02Z"/><path class="cls-1" d="M3.16,10.77c-.16,0-.32-.08-.42-.23L.08,6.48c-.15-.23-.09-.54.15-.69.23-.15.54-.09.69.15l2.66,4.07c.15.23.09.54-.15.69-.08.06-.18.08-.27.08Z"/><path class="cls-1" d="M26.57,7.12s-.09,0-.14-.02c-.26-.08-.42-.36-.34-.62l1.38-4.66c.08-.26.35-.42.62-.34.26.08.42.36.34.62l-1.38,4.66c-.06.22-.26.36-.48.36Z"/><path class="cls-1" d="M33.81,10.77c-.09,0-.19-.03-.27-.08-.23-.15-.3-.46-.15-.69l2.66-4.07c.15-.23.46-.3.69-.15.23.15.3.46.15.69l-2.66,4.07c-.1.15-.26.23-.42.23Z"/></g></svg>