<?xml version="1.0" encoding="UTF-8"?><svg id="Layer_2" xmlns="http://www.w3.org/2000/svg" viewBox="0 0 33.12 39.16"><defs><style>.cls-1{fill:#185a1b;}</style></defs><g id="Layer_1-2"><path class="cls-1" d="M31.26,39.16H1.87c-1.03,0-1.87-.84-1.87-1.87V4.96C0,1.3,2.01,0,3.73,0h25.67c1.72,0,3.73,1.3,3.73,4.96v32.33c0,1.03-.84,1.87-1.87,1.87ZM3.73,1c-1.68,0-2.73,1.52-2.73,3.96v32.33c0,.48.39.87.87.87h29.39c.48,0,.87-.39.87-.87V4.96c0-2.44-1.04-3.96-2.73-3.96H3.73Z"/><path class="cls-1" d="M20.92,22.71h-8.71c-.14-1.67-1.58-2.96-3.3-2.88-1.63.08-2.96,1.43-3.01,3.05-.03.85.28,1.62.8,2.21.36.41.36,1.04,0,1.44-.52.58-.83,1.36-.8,2.21.05,1.63,1.38,2.98,3.01,3.05,1.65.08,3.04-1.12,3.27-2.69h8.76c.23,1.57,1.62,2.77,3.27,2.69,1.63-.08,2.96-1.43,3.01-3.05.03-.85-.28-1.62-.8-2.21-.36-.41-.36-1.04,0-1.44.52-.58.83-1.36.8-2.21-.05-1.63-1.38-2.98-3.01-3.05-1.72-.08-3.15,1.22-3.3,2.88Z"/><path class="cls-1" d="M9.06,32.29c-.06,0-.12,0-.17,0-1.89-.09-3.42-1.64-3.49-3.54-.03-.95.3-1.85.93-2.56.19-.22.19-.56,0-.78-.63-.7-.96-1.61-.93-2.55.06-1.89,1.59-3.45,3.49-3.54,1.79-.07,3.38,1.15,3.75,2.88h7.85c.37-1.73,1.94-2.95,3.75-2.88,1.89.09,3.42,1.64,3.49,3.54.03.95-.3,1.85-.93,2.56-.2.22-.2.56,0,.78.63.7.96,1.61.93,2.55-.06,1.89-1.59,3.45-3.49,3.54-1.76.07-3.26-1.05-3.7-2.69h-7.95c-.43,1.58-1.86,2.69-3.53,2.69ZM9.06,20.33s-.08,0-.13,0c-1.37.06-2.49,1.19-2.53,2.57-.02.69.22,1.35.67,1.86.54.6.54,1.51,0,2.11-.46.51-.69,1.17-.67,1.86.04,1.38,1.16,2.5,2.53,2.57,1.36.07,2.55-.91,2.76-2.26.04-.25.25-.43.49-.43h8.76c.25,0,.46.18.49.43.2,1.35,1.39,2.32,2.76,2.27,1.37-.06,2.49-1.19,2.53-2.57.02-.69-.22-1.35-.67-1.86-.54-.6-.54-1.51,0-2.11.46-.51.69-1.17.67-1.86-.04-1.38-1.16-2.5-2.53-2.57-1.42-.07-2.65,1-2.78,2.43-.02.26-.24.46-.5.46h-8.71c-.26,0-.48-.2-.5-.46-.12-1.38-1.27-2.43-2.65-2.43Z"/><path class="cls-1" d="M30.52.5H2.6C1.44.5.5,1.44.5,2.6v5.94h32.12V2.6c0-1.16-.94-2.1-2.1-2.1ZM16.56,6.43c-1.06,0-1.91-.86-1.91-1.91s.86-1.91,1.91-1.91,1.91.86,1.91,1.91-.86,1.91-1.91,1.91Z"/><path class="cls-1" d="M32.62,9.04H.5c-.28,0-.5-.22-.5-.5V2.6C0,1.17,1.17,0,2.6,0h27.92c1.43,0,2.6,1.17,2.6,2.6v5.94c0,.28-.22.5-.5.5ZM1,8.04h31.12V2.6c0-.88-.72-1.6-1.6-1.6H2.6c-.88,0-1.6.72-1.6,1.6v5.44ZM16.56,6.93c-1.33,0-2.41-1.08-2.41-2.41s1.08-2.41,2.41-2.41,2.41,1.08,2.41,2.41-1.08,2.41-2.41,2.41ZM16.56,3.11c-.78,0-1.41.63-1.41,1.41s.63,1.41,1.41,1.41,1.41-.63,1.41-1.41-.63-1.41-1.41-1.41Z"/></g></svg>