<?xml version="1.0" encoding="UTF-8"?><svg id="Layer_2" xmlns="http://www.w3.org/2000/svg" viewBox="0 0 43.81 38.78"><defs><style>.cls-1{fill:#185a1b;}</style></defs><g id="Layer_1-2"><path class="cls-1" d="M9.05,35.33h-4.88c-.38,0-.7-.34-.7-.77v-13.89c0-.42.31-.77.7-.77h4.88c.39,0,.7.34.7.77v13.89c0,.43-.31.77-.7.77ZM4.47,34.33h4.28v-13.42h-4.28v13.42Z"/><path class="cls-1" d="M18.65,34.56c0,.15-.09.27-.19.27h-4.88c-.11,0-.2-.12-.2-.27V12.03c0-.15.09-.27.2-.27h4.88c.11,0,.19.12.19.27v22.53Z"/><path class="cls-1" d="M18.46,35.33h-4.88c-.38,0-.7-.34-.7-.77V12.03c0-.42.31-.77.7-.77h4.88c.38,0,.69.34.69.77v22.53c0,.42-.31.77-.69.77ZM13.88,34.33h4.27V12.26h-4.27v22.06Z"/><path class="cls-1" d="M37.26,35.33h-4.88c-.39,0-.7-.34-.7-.77v-16.17c0-.43.31-.77.7-.77h4.88c.39,0,.69.34.69.77v16.17c0,.42-.31.77-.69.77ZM32.68,34.33h4.27v-15.7h-4.27v15.7Z"/><path class="cls-1" d="M27.86,35.33h-4.88c-.38,0-.7-.34-.7-.77v-11.79c0-.43.31-.77.7-.77h4.88c.39,0,.7.34.7.77v11.79c0,.42-.31.77-.7.77ZM23.28,34.33h4.27v-11.33h-4.27v11.33Z"/><path class="cls-1" d="M6.61,15.64c-1.62,0-2.94-1.32-2.94-2.94s1.32-2.94,2.94-2.94,2.94,1.32,2.94,2.94-1.32,2.94-2.94,2.94ZM6.61,10.76c-1.07,0-1.94.87-1.94,1.94s.87,1.94,1.94,1.94,1.94-.87,1.94-1.94-.87-1.94-1.94-1.94Z"/><path class="cls-1" d="M16.01,5.88c-1.62,0-2.94-1.32-2.94-2.94s1.32-2.94,2.94-2.94,2.94,1.32,2.94,2.94-1.32,2.94-2.94,2.94ZM16.01,1c-1.07,0-1.94.87-1.94,1.94s.87,1.94,1.94,1.94,1.94-.87,1.94-1.94-.87-1.94-1.94-1.94Z"/><path class="cls-1" d="M25.42,15.98c-1.62,0-2.94-1.32-2.94-2.94s1.32-2.94,2.94-2.94,2.94,1.32,2.94,2.94-1.32,2.94-2.94,2.94ZM25.42,11.1c-1.07,0-1.94.87-1.94,1.94s.87,1.94,1.94,1.94,1.94-.87,1.94-1.94-.87-1.94-1.94-1.94Z"/><path class="cls-1" d="M34.82,9.35c-1.62,0-2.94-1.32-2.94-2.94s1.32-2.94,2.94-2.94,2.94,1.32,2.94,2.94-1.32,2.94-2.94,2.94ZM34.82,4.48c-1.07,0-1.94.87-1.94,1.94s.87,1.94,1.94,1.94,1.94-.87,1.94-1.94-.87-1.94-1.94-1.94Z"/><path class="cls-1" d="M7.84,11.1c-.13,0-.26-.05-.36-.15-.19-.2-.19-.51.01-.71l6.31-6.09c.2-.19.51-.19.71.01.19.2.19.51-.01.71l-6.31,6.09c-.1.09-.22.14-.35.14Z"/><path class="cls-1" d="M23.77,11.75c-.14,0-.29-.06-.39-.18l-5.56-6.74c-.18-.21-.15-.53.07-.7.21-.18.53-.15.7.07l5.56,6.74c.18.21.15.53-.07.7-.09.08-.21.11-.32.11Z"/><path class="cls-1" d="M27.51,12.31c-.15,0-.31-.07-.4-.2-.16-.22-.12-.54.11-.7l5.37-3.93c.22-.16.54-.12.7.11.16.22.12.54-.11.7l-5.37,3.93c-.09.07-.19.1-.29.1Z"/><path class="cls-1" d="M43.31,38.78H.5c-.28,0-.5-.22-.5-.5s.22-.5.5-.5h42.81c.28,0,.5.22.5.5s-.22.5-.5.5Z"/></g></svg>