<?xml version="1.0" encoding="UTF-8"?><svg id="Layer_2" xmlns="http://www.w3.org/2000/svg" viewBox="0 0 42.95 38.38"><defs><style>.cls-1{fill:#185a1b;}</style></defs><g id="Layer_1-2"><path class="cls-1" d="M19.19,25.92c6.58-11.43,0-20.88,0-20.88,0,0-6.58,9.45,0,20.88Z"/><path class="cls-1" d="M19.19,26.42c-.18,0-.34-.1-.43-.25-6.66-11.57-.04-21.32.02-21.42.19-.27.63-.27.82,0,.07.1,6.68,9.85.02,21.42-.09.16-.25.25-.43.25ZM19.19,6.01c-1.26,2.27-4.71,9.92,0,18.88,4.72-8.97,1.26-16.61,0-18.88Z"/><path class="cls-1" d="M19.19,26.36c-3.9-10.36-13.53-11.14-13.53-11.14,0,0,2.61,9.31,13.53,11.14Z"/><path class="cls-1" d="M19.19,26.86s-.06,0-.08,0c-11.1-1.87-13.9-11.41-13.93-11.5-.04-.16,0-.33.1-.45.1-.13.28-.19.43-.18.1,0,10,.93,13.96,11.47.06.17.03.36-.08.49-.1.12-.24.18-.39.18ZM6.42,15.84c.87,2.13,3.98,8.13,11.97,9.86-3.23-7.53-9.71-9.42-11.97-9.86Z"/><path class="cls-1" d="M19.19,26.46c-7.43-2.49-12.16,2.45-12.16,2.45,0,0,6.28,2.72,12.16-2.45Z"/><path class="cls-1" d="M11.08,30.11c-2.49,0-4.22-.73-4.25-.74-.15-.07-.26-.2-.29-.36-.03-.16.02-.33.13-.44.05-.05,5.04-5.14,12.68-2.58.17.06.3.2.33.38.04.18-.03.36-.16.47-2.96,2.6-6.05,3.27-8.44,3.27ZM8.01,28.72c1.71.49,5.93,1.19,10.14-2.05-5.1-1.33-8.75.95-10.14,2.05Z"/><path class="cls-1" d="M19.19,26.36c3.9-10.36,13.53-11.14,13.53-11.14,0,0-2.61,9.31-13.53,11.14Z"/><path class="cls-1" d="M19.19,26.86c-.15,0-.29-.07-.39-.18-.11-.14-.15-.33-.08-.49,3.96-10.54,13.86-11.46,13.96-11.47.15,0,.32.05.43.18.1.13.14.3.1.45-.03.1-2.83,9.63-13.93,11.5-.03,0-.06,0-.08,0ZM31.97,15.84c-2.26.44-8.74,2.34-11.97,9.86,8.01-1.73,11.11-7.73,11.97-9.86Z"/><path class="cls-1" d="M19.19,26.46c7.43-2.49,12.16,2.45,12.16,2.45,0,0-6.28,2.72-12.16-2.45Z"/><path class="cls-1" d="M27.3,30.11c-2.39,0-5.48-.67-8.44-3.27-.13-.12-.2-.3-.16-.47.04-.18.16-.32.33-.38,7.64-2.57,12.63,2.52,12.68,2.58.11.12.16.28.13.44-.03.16-.14.29-.29.36-.03.01-1.76.74-4.25.74ZM20.23,26.67c4.18,3.2,8.44,2.51,10.14,2.04-1.38-1.11-5-3.39-10.14-2.04Z"/><path class="cls-1" d="M19.19,33.84c-.28,0-.5-.22-.5-.5v-6.44c0-.28.22-.5.5-.5s.5.22.5.5v6.44c0,.28-.22.5-.5.5Z"/><path class="cls-1" d="M22.12,31.37c-.16,0-.32-.08-.42-.23l-2.92-4.5c-.15-.23-.08-.54.15-.69.23-.15.54-.09.69.15l2.92,4.5c.15.23.08.54-.15.69-.08.05-.18.08-.27.08Z"/><path class="cls-1" d="M16.27,31.37c-.09,0-.19-.03-.27-.08-.23-.15-.3-.46-.15-.69l2.92-4.5c.15-.23.46-.29.69-.15.23.15.3.46.15.69l-2.92,4.5c-.1.15-.26.23-.42.23Z"/><path class="cls-1" d="M19.19,38.38C8.61,38.38,0,29.77,0,19.19S8.61,0,19.19,0s19.19,8.61,19.19,19.19-8.61,19.19-19.19,19.19ZM19.19,1C9.16,1,1,9.16,1,19.19s8.16,18.19,18.19,18.19,18.19-8.16,18.19-18.19S29.22,1,19.19,1Z"/><path class="cls-1" d="M23.76,38.38h-4.84c-.28,0-.5-.22-.5-.5s.22-.5.5-.5h4.84c10.03,0,18.19-8.16,18.19-18.19S33.79,1,23.76,1h-4.29c-.28,0-.5-.22-.5-.5s.22-.5.5-.5h4.29c10.58,0,19.19,8.61,19.19,19.19s-8.61,19.19-19.19,19.19Z"/></g></svg>