<?xml version="1.0" encoding="UTF-8"?><svg id="Layer_2" xmlns="http://www.w3.org/2000/svg" viewBox="0 0 33.18 43.16"><defs><style>.cls-1{fill:#185a1b;}</style></defs><g id="Layer_1-2"><polygon class="cls-1" points="22.4 43.16 13.26 26.51 14.14 26.03 22.35 41 25.13 35.35 31.38 36.04 24.45 23.41 25.33 22.93 33.18 37.25 25.71 36.42 22.4 43.16"/><path class="cls-1" d="M10.41,42.58h-.01c-.19,0-.35-.11-.44-.28l-2.89-5.88-6.51.72c-.19.02-.37-.06-.47-.22-.1-.16-.11-.36-.02-.52l7.54-13.74c.13-.24.44-.33.68-.2.24.13.33.44.2.68l-7.07,12.9,5.91-.66c.21-.02.41.09.5.28l2.62,5.33,5.52-10.06c.13-.24.44-.33.68-.2.24.13.33.44.2.68l-5.98,10.9c-.09.16-.26.26-.44.26Z"/><circle class="cls-1" cx="16.39" cy="14.23" r="13.73"/><path class="cls-1" d="M16.39,28.47c-7.85,0-14.23-6.39-14.23-14.24S8.54,0,16.39,0s14.23,6.39,14.23,14.23-6.39,14.24-14.23,14.24ZM16.39,1C9.09,1,3.16,6.94,3.16,14.23s5.94,13.24,13.23,13.24,13.23-5.94,13.23-13.24S23.69,1,16.39,1Z"/><circle class="cls-1" cx="16.39" cy="14.23" r="8.7"/><path class="cls-1" d="M16.39,23.43c-5.07,0-9.2-4.13-9.2-9.2s4.13-9.2,9.2-9.2,9.2,4.13,9.2,9.2-4.13,9.2-9.2,9.2ZM16.39,6.04c-4.52,0-8.2,3.68-8.2,8.2s3.68,8.2,8.2,8.2,8.2-3.68,8.2-8.2-3.68-8.2-8.2-8.2Z"/></g></svg>