<?xml version="1.0" encoding="UTF-8"?><svg id="Layer_2" xmlns="http://www.w3.org/2000/svg" viewBox="0 0 42.06 38.34"><defs><style>.cls-1{fill:#185a1b;}</style></defs><g id="Layer_1-2"><path class="cls-1" d="M36.37,38.34c-2.38,0-4.31-1.93-4.31-4.31V3.9c0-.28.22-.5.5-.5s.5.22.5.5v30.13c0,1.83,1.49,3.31,3.31,3.31s3.31-1.49,3.31-3.31V3.9c0-.28.22-.5.5-.5s.5.22.5.5v30.13c0,2.38-1.93,4.31-4.31,4.31Z"/><path class="cls-1" d="M22.4,38.34H5.64c-2.06,0-3.89-1.07-4.9-2.86-1.01-1.79-.98-3.91.08-5.68l7.33-12.19V3.94c0-.28.22-.5.5-.5s.5.22.5.5v13.81c0,.09-.02.18-.07.26L1.67,30.32c-.87,1.45-.9,3.2-.06,4.67.83,1.47,2.34,2.35,4.03,2.35h16.76c1.69,0,3.2-.88,4.03-2.35.83-1.47.81-3.22-.06-4.67l-7.41-12.31c-.05-.08-.07-.17-.07-.26V3.94c0-.28.22-.5.5-.5s.5.22.5.5v13.67l7.33,12.19c1.06,1.76,1.09,3.89.08,5.68-1.01,1.79-2.85,2.86-4.9,2.86Z"/><path class="cls-1" d="M21.41,4.44H6.64c-.28,0-.5-.22-.5-.5V.5c0-.28.22-.5.5-.5h14.77c.28,0,.5.22.5.5v3.44c0,.28-.22.5-.5.5ZM7.14,3.44h13.77V1H7.14v2.44Z"/><path class="cls-1" d="M11.76,9.47h-3.11c-.28,0-.5-.22-.5-.5s.22-.5.5-.5h3.11c.28,0,.5.22.5.5s-.22.5-.5.5Z"/><path class="cls-1" d="M11.76,12.38h-3.11c-.28,0-.5-.22-.5-.5s.22-.5.5-.5h3.11c.28,0,.5.22.5.5s-.22.5-.5.5Z"/><path class="cls-1" d="M11.76,15.29h-3.11c-.28,0-.5-.22-.5-.5s.22-.5.5-.5h3.11c.28,0,.5.22.5.5s-.22.5-.5.5Z"/><path class="cls-1" d="M24.45,26.16H3.59l-2.35,3.9c-2.06,3.42.41,7.78,4.4,7.78h16.76c3.99,0,6.46-4.36,4.4-7.78l-2.35-3.9Z"/><path class="cls-1" d="M22.4,38.34H5.64c-2.06,0-3.89-1.07-4.9-2.86-1.01-1.79-.98-3.91.08-5.68l2.35-3.9c.09-.15.25-.24.43-.24h20.86c.18,0,.34.09.43.24l2.35,3.9c1.06,1.76,1.09,3.89.08,5.68-1.01,1.79-2.85,2.86-4.9,2.86ZM3.88,26.66l-2.2,3.66c-.87,1.45-.9,3.2-.06,4.67.83,1.47,2.34,2.35,4.03,2.35h16.76c1.69,0,3.2-.88,4.03-2.35.83-1.47.81-3.22-.06-4.67l-2.2-3.66H3.88Z"/><path class="cls-1" d="M41.56,4.44h-10.38c-.28,0-.5-.22-.5-.5V.62c0-.28.22-.5.5-.5h10.38c.28,0,.5.22.5.5v3.32c0,.28-.22.5-.5.5ZM31.68,3.44h9.38V1.12h-9.38v2.32Z"/><path class="cls-1" d="M40.18,18.58h-7.24c-.28,0-.5-.22-.5-.5s.22-.5.5-.5h7.24c.28,0,.5.22.5.5s-.22.5-.5.5Z"/></g></svg>