<?xml version="1.0" encoding="UTF-8"?><svg id="Layer_2" xmlns="http://www.w3.org/2000/svg" viewBox="0 0 48.52 35.94"><defs><style>.cls-1{fill:#185a1b;}</style></defs><g id="Layer_1-2"><path class="cls-1" d="M32.02,5.33c-.28,0-.5-.22-.5-.5V.5c0-.28.22-.5.5-.5s.5.22.5.5v4.33c0,.28-.22.5-.5.5Z"/><path class="cls-1" d="M26.19,6.9c-.17,0-.34-.09-.43-.25l-2.17-3.75c-.14-.24-.06-.54.18-.68.24-.14.54-.06.68.18l2.17,3.75c.14.24.06.54-.18.68-.08.05-.16.07-.25.07Z"/><path class="cls-1" d="M21.92,11.17c-.09,0-.17-.02-.25-.07l-3.75-2.17c-.24-.14-.32-.44-.18-.68.14-.24.44-.32.68-.18l3.75,2.17c.24.14.32.44.18.68-.09.16-.26.25-.43.25Z"/><path class="cls-1" d="M40.02,30.86c-.17,0-.34-.09-.43-.25l-2.17-3.75c-.14-.24-.06-.54.18-.68.24-.14.54-.06.68.18l2.17,3.75c.14.24.06.54-.18.68-.08.05-.16.07-.25.07Z"/><path class="cls-1" d="M45.88,25c-.09,0-.17-.02-.25-.07l-3.75-2.17c-.24-.14-.32-.44-.18-.68.14-.24.44-.32.68-.18l3.75,2.17c.24.14.32.44.18.68-.09.16-.26.25-.43.25Z"/><path class="cls-1" d="M48.02,17h-4.33c-.28,0-.5-.22-.5-.5s.22-.5.5-.5h4.33c.28,0,.5.22.5.5s-.22.5-.5.5Z"/><path class="cls-1" d="M42.12,11.17c-.17,0-.34-.09-.43-.25-.14-.24-.06-.55.18-.68l3.75-2.17c.24-.14.54-.06.68.18.14.24.06.55-.18.68l-3.75,2.17c-.08.05-.16.07-.25.07Z"/><path class="cls-1" d="M37.85,6.9c-.08,0-.17-.02-.25-.07-.24-.14-.32-.44-.18-.68l2.17-3.75c.14-.24.44-.32.68-.18.24.14.32.44.18.68l-2.17,3.75c-.09.16-.26.25-.43.25Z"/><path class="cls-1" d="M7.08,35.94l-.34-.03c-3.78-.29-6.74-3.49-6.74-7.29,0-3.3,2.26-6.22,5.43-7.07,1.07-4.31,5-7.4,9.47-7.4,3.39,0,6.48,1.72,8.28,4.6.15.23.07.54-.16.69-.24.14-.54.07-.69-.16-1.61-2.59-4.39-4.13-7.43-4.13-4.1,0-7.7,2.91-8.56,6.92l-.07.31-.31.07c-2.87.63-4.95,3.23-4.95,6.17,0,3.28,2.56,6.04,5.83,6.29l.31.03,19.06-.03c3.78-.28,6.72-3.46,6.72-7.23,0-.5-.05-1.01-.16-1.5-.06-.27.12-.54.39-.59.27-.05.54.12.59.39.12.56.18,1.14.18,1.71,0,4.29-3.35,7.91-7.63,8.23l-.27.03H7.08Z"/><path class="cls-1" d="M8.67,23.08s-.07,0-.1-.01c-.27-.06-.44-.32-.38-.59.73-3.42,3.8-5.9,7.3-5.9.28,0,.5.22.5.5s-.22.5-.5.5c-3.03,0-5.69,2.15-6.32,5.11-.05.24-.26.4-.49.4Z"/><path class="cls-1" d="M41.6,16.57c0-5.3-4.3-9.59-9.59-9.59s-9.59,4.3-9.59,9.59c0,.85.12,1.67.33,2.45.25.39.47.81.65,1.24.71-.22,1.47-.33,2.25-.33,3.73,0,6.85,2.64,7.59,6.15,4.72-.6,8.37-4.62,8.37-9.51Z"/><path class="cls-1" d="M33.24,26.57c-.23,0-.44-.16-.49-.4-.7-3.33-3.69-5.75-7.1-5.75-.71,0-1.42.1-2.1.31-.24.08-.5-.05-.6-.28-.16-.38-.37-.78-.62-1.17-.03-.04-.05-.09-.06-.14-.23-.87-.35-1.74-.35-2.58,0-5.56,4.53-10.09,10.09-10.09s10.09,4.53,10.09,10.09c0,5.06-3.78,9.36-8.8,10-.02,0-.04,0-.06,0ZM25.65,19.42c3.72,0,7,2.53,7.96,6.08,4.3-.76,7.49-4.53,7.49-8.94,0-5.01-4.08-9.09-9.09-9.09s-9.09,4.08-9.09,9.09c0,.74.1,1.49.29,2.25.17.28.33.56.47.84.65-.16,1.31-.24,1.97-.24Z"/></g></svg>