<?xml version="1.0" encoding="UTF-8"?><svg id="Layer_2" xmlns="http://www.w3.org/2000/svg" viewBox="0 0 40.87 40.86"><defs><style>.cls-1{fill:#185a1b;}</style></defs><g id="Layer_1-2"><path class="cls-1" d="M20.43,20.42c8.43,0,15.26-6.83,15.26-15.26-8.43,0-15.26,6.83-15.26,15.26Z"/><path class="cls-1" d="M20.43,20.92c-.28,0-.5-.22-.5-.5,0-8.69,7.07-15.76,15.76-15.76.28,0,.5.22.5.5,0,8.69-7.07,15.76-15.76,15.76ZM35.19,5.67c-7.73.26-13.98,6.51-14.24,14.24,7.73-.26,13.98-6.51,14.24-14.24Z"/><path class="cls-1" d="M20.43,20.42c0,8.43,6.83,15.26,15.26,15.26,0-8.43-6.83-15.26-15.26-15.26Z"/><path class="cls-1" d="M35.69,36.18c-8.69,0-15.76-7.07-15.76-15.76,0-.28.22-.5.5-.5,8.69,0,15.76,7.07,15.76,15.76,0,.28-.22.5-.5.5ZM20.94,20.93c.26,7.74,6.51,13.98,14.24,14.24-.26-7.74-6.51-13.98-14.24-14.24Z"/><path class="cls-1" d="M20.43,20.42c0-8.43-6.83-15.26-15.26-15.26,0,8.43,6.83,15.26,15.26,15.26Z"/><path class="cls-1" d="M20.43,20.92c-8.69,0-15.76-7.07-15.76-15.76,0-.28.22-.5.5-.5,8.69,0,15.76,7.07,15.76,15.76,0,.28-.22.5-.5.5ZM5.68,5.67c.26,7.74,6.51,13.98,14.24,14.24-.26-7.74-6.51-13.98-14.24-14.24Z"/><path class="cls-1" d="M20.43,20.42c-8.43,0-15.26,6.83-15.26,15.26,8.43,0,15.26-6.83,15.26-15.26Z"/><path class="cls-1" d="M5.17,36.18c-.28,0-.5-.22-.5-.5,0-8.69,7.07-15.76,15.76-15.76.28,0,.5.22.5.5,0,8.69-7.07,15.76-15.76,15.76ZM19.93,20.93c-7.74.26-13.98,6.51-14.24,14.24,7.74-.26,13.98-6.51,14.24-14.24Z"/><path class="cls-1" d="M20.43,40.86c-.16,0-.31-.08-.4-.21l-5.82-7.96c-.16-.22-.11-.54.11-.7.22-.16.54-.11.7.11l5.42,7.4,5.42-7.4c.16-.22.48-.27.7-.11.22.16.27.48.11.7l-5.82,7.96c-.09.13-.24.21-.4.21Z"/><path class="cls-1" d="M32.41,26.75c-.15,0-.31-.07-.4-.21-.16-.22-.11-.54.11-.7l7.41-5.42-7.41-5.42c-.22-.16-.27-.48-.11-.7.16-.22.48-.27.7-.11l7.96,5.82c.13.09.2.24.2.4s-.08.31-.2.4l-7.96,5.82c-.09.07-.19.1-.3.1Z"/><path class="cls-1" d="M8.46,26.75c-.1,0-.21-.03-.29-.1L.2,20.83c-.13-.09-.2-.24-.2-.4s.08-.31.2-.4l7.96-5.82c.22-.16.54-.11.7.11.16.22.11.54-.11.7l-7.41,5.42,7.41,5.42c.22.16.27.48.11.7-.1.13-.25.21-.4.21Z"/><path class="cls-1" d="M14.61,8.95c-.1,0-.21-.03-.29-.1-.22-.16-.27-.48-.11-.7L20.03.19c.19-.26.62-.26.81,0l5.82,7.96c.16.22.11.54-.11.7-.22.16-.54.11-.7-.11l-5.42-7.41-5.42,7.41c-.1.13-.25.21-.4.21Z"/><path class="cls-1" d="M15.6,25.68c-.13,0-.26-.05-.35-.15-.2-.2-.2-.51,0-.71l9.51-9.51c.2-.2.51-.2.71,0s.2.51,0,.71l-9.51,9.51c-.1.1-.23.15-.35.15Z"/><path class="cls-1" d="M25.11,25.68c-.13,0-.26-.05-.35-.15l-9.51-9.51c-.2-.2-.2-.51,0-.71s.51-.2.71,0l9.51,9.51c.2.2.2.51,0,.71-.1.1-.23.15-.35.15Z"/></g></svg>