<?xml version="1.0" encoding="UTF-8"?><svg id="Layer_2" xmlns="http://www.w3.org/2000/svg" viewBox="0 0 44.83 38.1"><defs><style>.cls-1{fill:#185a1b;}</style></defs><g id="Layer_1-2"><path class="cls-1" d="M22.42,38.1h-12.51c-.28,0-.5-.22-.5-.5v-12.51c0-.28.22-.5.5-.5h12.51c.28,0,.5.22.5.5v12.51c0,.28-.22.5-.5.5ZM10.4,37.1h11.51v-11.51h-11.51v11.51Z"/><path class="cls-1" d="M18.39,33.34h-4.46c-.28,0-.5-.22-.5-.5v-2.72c0-.28.22-.5.5-.5h4.46c.28,0,.5.22.5.5v2.72c0,.28-.22.5-.5.5ZM14.43,32.34h3.46v-1.72h-3.46v1.72Z"/><path class="cls-1" d="M34.93,38.1h-12.51c-.28,0-.5-.22-.5-.5v-12.51c0-.28.22-.5.5-.5h12.51c.28,0,.5.22.5.5v12.51c0,.28-.22.5-.5.5ZM22.92,37.1h11.51v-11.51h-11.51v11.51Z"/><path class="cls-1" d="M30.9,33.34h-4.46c-.28,0-.5-.22-.5-.5v-2.72c0-.28.22-.5.5-.5h4.46c.28,0,.5.22.5.5v2.72c0,.28-.22.5-.5.5ZM26.94,32.34h3.46v-1.72h-3.46v1.72Z"/><path class="cls-1" d="M28.67,25.59h-12.51c-.28,0-.5-.22-.5-.5v-12.51c0-.28.22-.5.5-.5h12.51c.28,0,.5.22.5.5v12.51c0,.28-.22.5-.5.5ZM16.66,24.59h11.51v-11.51h-11.51v11.51Z"/><path class="cls-1" d="M24.65,20.83h-4.46c-.28,0-.5-.22-.5-.5v-2.72c0-.28.22-.5.5-.5h4.46c.28,0,.5.22.5.5v2.72c0,.28-.22.5-.5.5ZM20.69,19.83h3.46v-1.72h-3.46v1.72Z"/><path class="cls-1" d="M4.48,38.1c-.28,0-.5-.22-.5-.5V10.62c0-.28.22-.5.5-.5s.5.22.5.5v26.97c0,.28-.22.5-.5.5Z"/><path class="cls-1" d="M40.36,38.1c-.28,0-.5-.22-.5-.5V10.62c0-.28.22-.5.5-.5s.5.22.5.5v26.97c0,.28-.22.5-.5.5Z"/><path class="cls-1" d="M40.24,14.54c-4.25-5.68-10.75-8.93-17.83-8.93s-13.58,3.26-17.83,8.93L.5,11.48C5.72,4.5,13.71.5,22.42.5s16.69,4,21.92,10.98l-4.09,3.06Z"/><path class="cls-1" d="M4.59,15.04c-.11,0-.21-.03-.3-.1L.2,11.88c-.22-.17-.27-.48-.1-.7C5.42,4.08,13.55,0,22.42,0s17,4.08,22.32,11.18c.17.22.12.53-.1.7l-4.09,3.06c-.11.08-.24.12-.37.09-.13-.02-.25-.09-.33-.2-4.15-5.55-10.5-8.73-17.43-8.73s-13.27,3.18-17.43,8.73c-.08.11-.2.18-.33.2-.02,0-.05,0-.07,0ZM22.42,5.11c7.07,0,13.58,3.18,17.92,8.74l3.29-2.46C38.5,4.78,30.8,1,22.42,1S6.33,4.78,1.2,11.38l3.29,2.46c4.35-5.56,10.85-8.74,17.92-8.74Z"/><path class="cls-1" d="M40.24,14.54c-4.25-5.68-10.75-8.93-17.83-8.93s-13.58,3.26-17.83,8.93L.5,11.48C5.72,4.5,13.71.5,22.42.5s16.69,4,21.92,10.98l-4.09,3.06Z"/><path class="cls-1" d="M4.59,15.04c-.11,0-.21-.03-.3-.1L.2,11.88c-.22-.17-.27-.48-.1-.7C5.42,4.08,13.55,0,22.42,0s17,4.08,22.32,11.18c.17.22.12.53-.1.7l-4.09,3.06c-.11.08-.24.12-.37.09-.13-.02-.25-.09-.33-.2-4.15-5.55-10.5-8.73-17.43-8.73s-13.27,3.18-17.43,8.73c-.08.11-.2.18-.33.2-.02,0-.05,0-.07,0ZM22.42,5.11c7.07,0,13.58,3.18,17.92,8.74l3.29-2.46C38.5,4.78,30.8,1,22.42,1S6.33,4.78,1.2,11.38l3.29,2.46c4.35-5.56,10.85-8.74,17.92-8.74Z"/></g></svg>