<?xml version="1.0" encoding="UTF-8"?><svg id="Layer_2" xmlns="http://www.w3.org/2000/svg" viewBox="0 0 44.41 41.22"><defs><style>.cls-1{fill:#185a1b;}</style></defs><g id="Layer_1-2"><path class="cls-1" d="M33.01,30.33c-6.29,0-11.4-5.11-11.4-11.4S32.19.68,32.64.17c.1-.11.23-.17.38-.17h0c.14,0,.28.06.38.17.45.51,11.02,12.62,11.02,18.76s-5.11,11.4-11.4,11.4ZM33.01,1.27c-1.91,2.24-10.4,12.52-10.4,17.66,0,5.74,4.67,10.4,10.4,10.4s10.4-4.67,10.4-10.4c0-5.14-8.49-15.42-10.4-17.66Z"/><path class="cls-1" d="M37.43,25.09c-.1,0-.2-.03-.28-.09-.23-.16-.29-.47-.13-.69,4.18-6.13-.21-11.05-.25-11.1-.19-.2-.17-.52.03-.71.2-.19.52-.17.71.03.05.05,4.96,5.56.34,12.34-.1.14-.25.22-.41.22Z"/><path class="cls-1" d="M22.11,32.29c0,4.66-3.78,8.44-8.43,8.44s-8.44-3.78-8.44-8.44,8.44-14.26,8.44-14.26c0,0,8.43,9.6,8.43,14.26Z"/><path class="cls-1" d="M13.68,41.22c-4.93,0-8.94-4.01-8.94-8.94s8.21-14.19,8.56-14.59c.1-.11.23-.17.38-.17h0c.14,0,.28.06.38.17.35.4,8.56,9.8,8.56,14.59s-4.01,8.94-8.93,8.94ZM13.68,18.8c-1.62,1.92-7.94,9.62-7.94,13.49,0,4.38,3.56,7.94,7.94,7.94s7.93-3.56,7.93-7.94c0-3.87-6.31-11.58-7.93-13.49Z"/><path class="cls-1" d="M17.1,37.17c-.1,0-.2-.03-.28-.09-.23-.16-.29-.47-.13-.69,3.17-4.65-.05-8.3-.19-8.45-.18-.2-.17-.52.03-.71.2-.19.52-.17.7.03.04.04,3.9,4.37.27,9.69-.1.14-.25.22-.41.22Z"/><path class="cls-1" d="M37.13,40.14c-.28,0-.5-.22-.5-.5v-4.24c0-.28.22-.5.5-.5s.5.22.5.5v4.24c0,.28-.22.5-.5.5Z"/><path class="cls-1" d="M39.26,38.01h-4.24c-.28,0-.5-.22-.5-.5s.22-.5.5-.5h4.24c.28,0,.5.22.5.5s-.22.5-.5.5Z"/><path class="cls-1" d="M2.62,19.2c-.28,0-.5-.22-.5-.5v-4.24c0-.28.22-.5.5-.5s.5.22.5.5v4.24c0,.28-.22.5-.5.5Z"/><path class="cls-1" d="M4.74,17.08H.5c-.28,0-.5-.22-.5-.5s.22-.5.5-.5h4.24c.28,0,.5.22.5.5s-.22.5-.5.5Z"/><path class="cls-1" d="M17.1,7.85c-.28,0-.5-.22-.5-.5V3.11c0-.28.22-.5.5-.5s.5.22.5.5v4.24c0,.28-.22.5-.5.5Z"/><path class="cls-1" d="M19.23,5.73h-4.24c-.28,0-.5-.22-.5-.5s.22-.5.5-.5h4.24c.28,0,.5.22.5.5s-.22.5-.5.5Z"/></g></svg>