<?xml version="1.0" encoding="UTF-8"?><svg id="Layer_2" xmlns="http://www.w3.org/2000/svg" viewBox="0 0 40.24 37.97"><defs><style>.cls-1{fill:#185a1b;}</style></defs><g id="Layer_1-2"><path class="cls-1" d="M35.02,23.43H5.22c-3-.32-5.22-2.79-5.22-5.76,0-2.55,1.67-4.79,4.09-5.53C6.1,4.98,12.65,0,20.12,0s14.02,4.98,16.04,12.14c2.42.74,4.09,2.98,4.09,5.53,0,2.97-2.22,5.44-5.17,5.76-.02,0-.04,0-.05,0ZM20.12,1c-7.11,0-13.34,4.8-15.14,11.67-.05.18-.18.31-.36.36-2.13.54-3.62,2.44-3.62,4.64,0,2.46,1.84,4.5,4.28,4.76h29.71c2.43-.27,4.25-2.32,4.25-4.76,0-2.19-1.49-4.1-3.62-4.64-.18-.04-.32-.18-.36-.36-1.8-6.87-8.03-11.67-15.14-11.67Z"/><path class="cls-1" d="M29.68,19.93c-.85,1.79-2.67,3.03-4.78,3.03s-3.93-1.24-4.78-3.03c-.85,1.79-2.67,3.03-4.78,3.03s-3.93-1.24-4.78-3.03c-.85,1.79-2.67,3.03-4.78,3.03,0,0,0,0-.01,0l3.96,12.25c.44,1.35,1.69,2.27,3.11,2.27h14.55c1.42,0,2.68-.91,3.11-2.27l3.96-12.25s0,0-.01,0c-2.11,0-3.93-1.24-4.78-3.03Z"/><path class="cls-1" d="M27.39,37.97h-14.55c-1.64,0-3.08-1.05-3.59-2.61l-3.96-12.25c-.05-.15-.02-.32.07-.45.09-.13.27-.21.41-.21,1.85,0,3.54-1.08,4.34-2.74.08-.17.26-.29.45-.29h0c.19,0,.37.11.45.29.79,1.67,2.49,2.74,4.32,2.74s3.53-1.08,4.32-2.74c.17-.35.74-.35.9,0,.79,1.67,2.49,2.74,4.33,2.74s3.53-1.08,4.32-2.74c.17-.35.74-.35.9,0,.79,1.67,2.49,2.74,4.33,2.74.16,0,.32.08.41.2.09.13.13.3.08.45l-3.96,12.25c-.5,1.56-1.95,2.61-3.59,2.61ZM6.45,23.42l3.76,11.63c.37,1.15,1.43,1.92,2.64,1.92h14.55c1.21,0,2.27-.77,2.64-1.92l3.76-11.64c-1.67-.2-3.17-1.11-4.12-2.49-1.07,1.56-2.86,2.53-4.78,2.53s-3.71-.97-4.78-2.53c-1.07,1.56-2.86,2.53-4.78,2.53s-3.71-.97-4.78-2.53c-.95,1.38-2.46,2.29-4.12,2.49Z"/><path class="cls-1" d="M35.64,13.04h-18.11c-.28,0-.5-.22-.5-.5s.22-.5.5-.5h18.11c.28,0,.5.22.5.5s-.22.5-.5.5Z"/><path class="cls-1" d="M26.09,35.26s-.06,0-.09,0c-.27-.05-.45-.31-.41-.58l1.68-9.56c.05-.27.31-.45.58-.41.27.05.45.31.41.58l-1.68,9.56c-.04.24-.25.41-.49.41Z"/><path class="cls-1" d="M14.15,35.26c-.24,0-.45-.17-.49-.41l-1.68-9.56c-.05-.27.13-.53.41-.58.26-.05.53.13.58.41l1.68,9.56c.05.27-.13.53-.41.58-.03,0-.06,0-.09,0Z"/><path class="cls-1" d="M20.12,35.26c-.28,0-.5-.22-.5-.5v-9.56c0-.28.22-.5.5-.5s.5.22.5.5v9.56c0,.28-.22.5-.5.5Z"/></g></svg>