<?xml version="1.0" encoding="UTF-8"?><svg id="Layer_2" xmlns="http://www.w3.org/2000/svg" viewBox="0 0 34.09 42.14"><defs><style>.cls-1{fill:#185a1b;}</style></defs><g id="Layer_1-2"><path class="cls-1" d="M11.16,39.78h-4.08v-6.2c0-.41-.33-.74-.74-.74H.69c-.28,0-.5-.22-.5-.5s.22-.5.5-.5h5.64c.96,0,1.74.78,1.74,1.74v5.2h3.08c.28,0,.5.22.5.5s-.22.5-.5.5Z"/><path class="cls-1" d="M19.24,37.6c-2.57,0-5.03-.97-6.91-2.74l-.16-.15v-1.13c0-.96.78-1.74,1.74-1.74h4.62c.28,0,.5.22.5.5s-.22.5-.5.5h-4.62c-.41,0-.74.33-.74.74v.7c1.68,1.5,3.82,2.32,6.07,2.32,5.04,0,9.14-4.1,9.14-9.14,0-3.42-1.89-6.53-4.93-8.12-.25-.13-.34-.43-.21-.67.13-.25.43-.34.67-.21,3.38,1.76,5.47,5.21,5.47,9,0,5.59-4.55,10.14-10.14,10.14Z"/><path class="cls-1" d="M27.34,39.78c-.16,0-.32-.08-.41-.22-.16-.23-.1-.54.13-.69,3.78-2.59,6.04-6.86,6.04-11.41,0-5.16-2.85-9.86-7.43-12.27-.24-.13-.34-.43-.21-.67.13-.24.43-.34.67-.21,4.91,2.58,7.96,7.62,7.96,13.15,0,4.88-2.42,9.46-6.47,12.24-.09.06-.18.09-.28.09Z"/><path class="cls-1" d="M13.84,26.5l-4.8-2.44,1.41-2.78c.12-.25.43-.34.67-.22.25.12.34.43.22.67l-.96,1.88,3.02,1.53.96-1.89c.12-.25.43-.34.67-.22.25.12.34.43.22.67l-1.41,2.78Z"/><path class="cls-1" d="M23.6,6.69c-.08,0-.15-.02-.23-.05-.25-.12-.34-.43-.22-.67l.61-1.21-3.02-1.53-.61,1.21c-.13.25-.42.34-.67.22-.25-.12-.34-.43-.22-.67l1.06-2.1,4.8,2.44-1.07,2.1c-.09.17-.26.27-.45.27Z"/><path class="cls-1" d="M24.85,5.11c-.25,0-.5-.06-.73-.18l-3.71-1.88c-.79-.4-1.11-1.37-.71-2.17.4-.79,1.37-1.11,2.17-.71l3.71,1.88c.38.19.67.53.8.93.13.41.1.85-.09,1.23h0c-.2.38-.53.67-.94.8-.16.05-.33.08-.5.08ZM21.14,1c-.22,0-.44.12-.55.33-.15.3-.03.67.27.82l3.71,1.88c.15.07.31.09.47.04.16-.05.28-.16.35-.3h0c.07-.15.09-.31.04-.47-.05-.15-.16-.28-.3-.35l-3.71-1.88c-.09-.04-.18-.07-.28-.07Z"/><path class="cls-1" d="M16.14,24.38c-.45,0-.9-.1-1.33-.32l-4.36-2.22c-1.45-.74-2.03-2.52-1.29-3.97l6.57-12.94c.74-1.45,2.51-2.03,3.97-1.29l4.36,2.22c.7.36,1.22.97,1.47,1.72.25.75.18,1.55-.17,2.25l-6.57,12.94c-.52,1.02-1.56,1.61-2.64,1.61ZM18.36,4.32c-.2,0-.41.03-.61.1-.5.16-.9.51-1.13.97l-6.57,12.94c-.49.96-.1,2.14.86,2.62l4.36,2.22c.96.49,2.14.1,2.62-.86l6.57-12.94c.24-.46.28-.99.12-1.49-.16-.5-.51-.9-.97-1.13l-4.36-2.22c-.28-.14-.58-.21-.88-.21Z"/><path class="cls-1" d="M25.9,15.16c0,2.35-1.9,4.25-4.25,4.25s-4.25-1.9-4.25-4.25,1.9-4.25,4.25-4.25,4.25,1.9,4.25,4.25Z"/><path class="cls-1" d="M21.65,19.91c-2.62,0-4.75-2.13-4.75-4.75s2.13-4.75,4.75-4.75,4.75,2.13,4.75,4.75-2.13,4.75-4.75,4.75ZM21.65,11.41c-2.07,0-3.75,1.68-3.75,3.75s1.68,3.75,3.75,3.75,3.75-1.68,3.75-3.75-1.68-3.75-3.75-3.75Z"/><path class="cls-1" d="M33.7,42.14H1.85v-3.36h31.85v3.36ZM2.85,41.14h29.85v-1.36H2.85v1.36Z"/><rect class="cls-1" x=".5" y="28.95" width="18.86" height="3.39"/><path class="cls-1" d="M19.36,32.83H.5c-.28,0-.5-.22-.5-.5v-3.39c0-.28.22-.5.5-.5h18.86c.28,0,.5.22.5.5v3.39c0,.28-.22.5-.5.5ZM1,31.83h17.86v-2.39H1v2.39Z"/></g></svg>