<?xml version="1.0" encoding="UTF-8"?><svg id="Layer_2" xmlns="http://www.w3.org/2000/svg" viewBox="0 0 24.67 41.74"><defs><style>.cls-1{fill:#185a1b;}</style></defs><g id="Layer_1-2"><path class="cls-1" d="M21.88,41.74H2.79c-1.54,0-2.79-1.25-2.79-2.79V15.33c0-.28.22-.5.5-.5h23.67c.28,0,.5.22.5.5v23.62c0,1.54-1.25,2.79-2.79,2.79ZM1,15.83v23.12c0,.99.8,1.79,1.79,1.79h19.08c.99,0,1.79-.8,1.79-1.79V15.83H1Z"/><path class="cls-1" d="M24.17,15.83H.5c-.28,0-.5-.22-.5-.5V2.79C0,1.25,1.25,0,2.79,0h19.08c1.54,0,2.79,1.25,2.79,2.79v12.54c0,.28-.22.5-.5.5ZM1,14.83h22.67V2.79c0-.99-.8-1.79-1.79-1.79H2.79c-.99,0-1.79.8-1.79,1.79v12.04Z"/><path class="cls-1" d="M19.31,13.23H7.25c-.28,0-.5-.22-.5-.5v-5.89h-2.11c-.28,0-.5-.22-.5-.5v-2.98c0-.28.22-.5.5-.5h14.67c.28,0,.5.22.5.5v9.37c0,.28-.22.5-.5.5ZM7.75,12.23h11.06V3.86H5.15v1.98h2.11c.28,0,.5.22.5.5v5.89Z"/><path class="cls-1" d="M21.5,15.83H3.17c-.28,0-.5-.22-.5-.5v-1.03c0-1.14.93-2.07,2.07-2.07h15.19c1.14,0,2.07.93,2.07,2.07v1.03c0,.28-.22.5-.5.5ZM3.67,14.83h17.33v-.53c0-.59-.48-1.07-1.07-1.07H4.74c-.59,0-1.07.48-1.07,1.07v.53Z"/><rect class="cls-1" x=".5" y="22.48" width="23.67" height="12.38"/><path class="cls-1" d="M24.17,35.35H.5c-.28,0-.5-.22-.5-.5v-12.38c0-.28.22-.5.5-.5h23.67c.28,0,.5.22.5.5v12.38c0,.28-.22.5-.5.5ZM1,34.35h22.67v-11.38H1v11.38Z"/></g></svg>