<?xml version="1.0" encoding="UTF-8"?><svg id="Layer_2" xmlns="http://www.w3.org/2000/svg" viewBox="0 0 41.88 41.45"><defs><style>.cls-1{fill:#185a1b;}</style></defs><g id="Layer_1-2"><path class="cls-1" d="M29.57,31.37H12.79c-.28,0-.5-.22-.5-.5v-10.74c0-.28.22-.5.5-.5s.5.22.5.5v10.24h15.78v-10.26c0-.28.22-.5.5-.5s.5.22.5.5v10.76c0,.28-.22.5-.5.5Z"/><path class="cls-1" d="M23.67,31.29c-.28,0-.5-.22-.5-.5v-6.49h-3.98v6.49c0,.28-.22.5-.5.5s-.5-.22-.5-.5v-6.99c0-.28.22-.5.5-.5h4.98c.28,0,.5.22.5.5v6.99c0,.28-.22.5-.5.5Z"/><polygon class="cls-1" points="33.47 19.36 21.16 9.33 21.15 9.33 21.15 9.33 8.84 19.36 10.64 21.57 21.15 13.01 31.66 21.57 33.47 19.36"/><path class="cls-1" d="M31.66,22.07c-.11,0-.22-.04-.32-.11l-10.19-8.3-10.19,8.3c-.21.18-.53.14-.7-.07l-1.81-2.22c-.08-.1-.12-.23-.11-.37.01-.13.08-.25.18-.34l12.31-10.03c.12-.1.27-.13.4-.1.08.01.17.05.24.1l12.31,10.03c.1.08.17.2.18.34.01.13-.03.26-.11.37l-1.81,2.22c-.1.12-.24.18-.39.18ZM21.15,12.51c.11,0,.22.04.32.11l10.12,8.25,1.17-1.44-11.61-9.46-11.61,9.46,1.17,1.44,10.12-8.25c.09-.07.2-.11.32-.11Z"/><path class="cls-1" d="M21.15,41.45c-7.59,0-14.57-4.14-18.21-10.82-.13-.24-.04-.55.2-.68.24-.13.55-.04.68.2,3.46,6.35,10.1,10.3,17.33,10.3,6.85,0,13.11-3.47,16.74-9.29.15-.23.46-.31.69-.16.23.15.31.45.16.69-3.82,6.11-10.39,9.76-17.59,9.76Z"/><path class="cls-1" d="M39.42,29.92c-.07,0-.15-.02-.21-.05-.25-.12-.35-.42-.24-.67.54-1.12.97-2.31,1.28-3.51.07-.27.34-.43.61-.36.27.07.43.34.36.61-.33,1.27-.78,2.51-1.34,3.69-.09.18-.26.29-.45.29Z"/><path class="cls-1" d="M41.2,23.91s-.04,0-.07,0c-.27-.04-.47-.29-.43-.56.11-.86.17-1.74.17-2.62,0-.28.22-.5.5-.5s.5.22.5.5c0,.92-.06,1.84-.18,2.75-.03.25-.25.43-.5.43Z"/><path class="cls-1" d="M38.26,10.42c-.17,0-.33-.08-.42-.23C34.19,4.43,27.95,1,21.15,1c-5.82,0-11.31,2.55-15.07,7-.18.21-.49.24-.7.06-.21-.18-.24-.49-.06-.7C9.27,2.68,15.04,0,21.15,0c7.14,0,13.7,3.61,17.52,9.65.15.23.08.54-.15.69-.08.05-.18.08-.27.08Z"/><path class="cls-1" d="M2.01,14.68c-.05,0-.11,0-.16-.03-.26-.09-.4-.37-.31-.63.52-1.53,1.23-3,2.09-4.37.15-.23.46-.3.69-.15.23.15.3.46.15.69-.83,1.3-1.5,2.7-1.99,4.16-.07.21-.27.34-.47.34Z"/><path class="cls-1" d="M39.25,6.78c.88-.58,1.62-.2,1.65.85l.16,5.63c.03,1.05-.73,1.56-1.69,1.12l-5.13-2.32c-.96-.43-1.03-1.27-.15-1.85l5.16-3.43Z"/><path class="cls-1" d="M40.02,15.04c-.28,0-.57-.07-.86-.2l-5.13-2.32c-.63-.28-1.01-.75-1.06-1.28-.04-.53.26-1.06.83-1.44l5.16-3.43c.57-.38,1.17-.46,1.65-.21.47.25.76.78.77,1.47l.16,5.62c.02.68-.24,1.24-.7,1.55-.24.16-.53.24-.83.24ZM40.02,7.01c-.14,0-.31.07-.5.19h0s-5.16,3.43-5.16,3.43c-.26.17-.4.37-.39.52.01.16.19.33.47.45l5.13,2.32c.3.14.56.15.73.03.17-.11.26-.36.25-.69l-.16-5.62c0-.31-.1-.54-.24-.61-.04-.02-.09-.03-.14-.03Z"/><path class="cls-1" d="M2.31,34.61c-.88.58-1.62.2-1.65-.85l-.16-5.62c-.03-1.05.73-1.56,1.69-1.12l5.13,2.32c.96.43,1.03,1.27.15,1.85l-5.16,3.43Z"/><path class="cls-1" d="M1.53,35.38c-.21,0-.41-.05-.59-.14-.47-.25-.76-.78-.78-1.47L0,28.14c-.02-.68.24-1.24.7-1.55.46-.31,1.08-.32,1.7-.04l5.13,2.32c.63.28,1.01.75,1.06,1.28.04.53-.26,1.06-.84,1.44l-5.16,3.43h0c-.35.24-.72.36-1.06.36ZM1.54,27.35c-.11,0-.21.03-.28.08-.17.11-.26.36-.25.69l.16,5.62c0,.31.1.54.24.61.14.07.38.01.63-.16l5.16-3.43c.26-.17.41-.37.39-.52-.01-.16-.19-.33-.47-.45l-5.13-2.32c-.16-.07-.32-.11-.45-.11Z"/></g></svg>