<?xml version="1.0" encoding="UTF-8"?><svg id="Layer_2" xmlns="http://www.w3.org/2000/svg" viewBox="0 0 34.84 38.45"><defs><style>.cls-1{fill:#185a1b;}</style></defs><g id="Layer_1-2"><path class="cls-1" d="M26.44,38.45c-.11,0-.22,0-.33,0-4.31-.16-7.93-3.81-8.07-8.12-.09-2.91,1.34-5.67,3.77-7.28V4.63c0-2.55,2.08-4.63,4.63-4.63s4.63,2.08,4.63,4.63v18.41c2.37,1.57,3.77,4.16,3.77,7,0,2.31-.92,4.46-2.58,6.06-1.58,1.52-3.64,2.35-5.82,2.35ZM26.43,1c-2,0-3.63,1.63-3.63,3.63v18.68c0,.17-.09.34-.24.43-2.26,1.39-3.62,3.9-3.53,6.55.12,3.8,3.31,7.01,7.11,7.15,2.03.09,3.96-.66,5.42-2.06,1.46-1.41,2.27-3.3,2.27-5.34,0-2.58-1.32-4.94-3.54-6.3-.15-.09-.24-.25-.24-.43V4.63c0-2-1.63-3.63-3.63-3.63Z"/><path class="cls-1" d="M22.3,16.77v6.55c-2.33,1.43-3.86,4.03-3.77,6.99.13,4.09,3.5,7.48,7.59,7.64,4.51.17,8.21-3.43,8.21-7.9,0-2.85-1.51-5.34-3.77-6.73v-6.55h-8.26Z"/><path class="cls-1" d="M26.44,38.45c-.11,0-.22,0-.33,0-4.31-.16-7.93-3.81-8.07-8.12-.09-2.91,1.34-5.67,3.77-7.28v-6.27c0-.28.22-.5.5-.5h8.26c.28,0,.5.22.5.5v6.27c2.37,1.57,3.77,4.16,3.77,7,0,2.31-.92,4.46-2.58,6.06-1.58,1.52-3.64,2.35-5.82,2.35ZM22.8,17.27v6.05c0,.17-.09.34-.24.43-2.26,1.39-3.62,3.9-3.53,6.55.12,3.8,3.31,7.01,7.11,7.15,2.03.09,3.96-.66,5.42-2.06,1.46-1.41,2.27-3.3,2.27-5.34,0-2.58-1.32-4.94-3.54-6.3-.15-.09-.24-.25-.24-.43v-6.05h-7.26Z"/><path class="cls-1" d="M26.35,36.11c-.28,0-.5-.22-.5-.5s.22-.5.5-.5c2.79,0,5.06-2.27,5.06-5.06,0-2.19-1.4-4.12-3.47-4.81-.2-.07-.34-.26-.34-.47v-2.29c0-.28.22-.5.5-.5s.5.22.5.5v1.94c2.3.92,3.81,3.13,3.81,5.63,0,3.34-2.72,6.06-6.06,6.06Z"/><path class="cls-1" d="M27.98,20.28c-.28,0-.5-.22-.5-.5v-8.81c0-.28.22-.5.5-.5s.5.22.5.5v8.81c0,.28-.22.5-.5.5Z"/><path class="cls-1" d="M9.69,2.72H.5c-.28,0-.5-.22-.5-.5s.22-.5.5-.5h9.19c.28,0,.5.22.5.5s-.22.5-.5.5Z"/><path class="cls-1" d="M5.09,6.18H.5c-.28,0-.5-.22-.5-.5s.22-.5.5-.5h4.59c.28,0,.5.22.5.5s-.22.5-.5.5Z"/><path class="cls-1" d="M9.69,9.64H.5c-.28,0-.5-.22-.5-.5s.22-.5.5-.5h9.19c.28,0,.5.22.5.5s-.22.5-.5.5Z"/><path class="cls-1" d="M5.09,13.11H.5c-.28,0-.5-.22-.5-.5s.22-.5.5-.5h4.59c.28,0,.5.22.5.5s-.22.5-.5.5Z"/><path class="cls-1" d="M9.69,16.57H.5c-.28,0-.5-.22-.5-.5s.22-.5.5-.5h9.19c.28,0,.5.22.5.5s-.22.5-.5.5Z"/><path class="cls-1" d="M5.09,20.03H.5c-.28,0-.5-.22-.5-.5s.22-.5.5-.5h4.59c.28,0,.5.22.5.5s-.22.5-.5.5Z"/><path class="cls-1" d="M9.69,23.49H.5c-.28,0-.5-.22-.5-.5s.22-.5.5-.5h9.19c.28,0,.5.22.5.5s-.22.5-.5.5Z"/><path class="cls-1" d="M5.09,26.96H.5c-.28,0-.5-.22-.5-.5s.22-.5.5-.5h4.59c.28,0,.5.22.5.5s-.22.5-.5.5Z"/><path class="cls-1" d="M9.69,30.42H.5c-.28,0-.5-.22-.5-.5s.22-.5.5-.5h9.19c.28,0,.5.22.5.5s-.22.5-.5.5Z"/><path class="cls-1" d="M5.09,33.88H.5c-.28,0-.5-.22-.5-.5s.22-.5.5-.5h4.59c.28,0,.5.22.5.5s-.22.5-.5.5Z"/></g></svg>