<?xml version="1.0" encoding="UTF-8"?><svg id="Layer_2" xmlns="http://www.w3.org/2000/svg" viewBox="0 0 29.22 41.19"><defs><style>.cls-1{fill:#185a1b;}</style></defs><g id="Layer_1-2"><path class="cls-1" d="M25.28,41.19H3.94c-2.17,0-3.94-1.77-3.94-3.94v-18.93c0-1.99.99-3.84,2.65-4.95l3.15-2.09c.59-.39.94-1.05.94-1.75v-2.91c0-.28.22-.5.5-.5s.5.22.5.5v2.91c0,1.04-.52,2.01-1.39,2.59l-3.15,2.09c-1.38.92-2.21,2.45-2.21,4.11v18.93c0,1.62,1.32,2.94,2.94,2.94h21.34c1.62,0,2.94-1.32,2.94-2.94v-18.93c0-1.66-.83-3.2-2.21-4.11l-3.15-2.09c-.87-.58-1.39-1.54-1.39-2.59v-2.91c0-.28.22-.5.5-.5s.5.22.5.5v2.91c0,.71.35,1.36.94,1.75l3.15,2.09c1.66,1.1,2.65,2.95,2.65,4.94v18.93c0,2.17-1.77,3.94-3.94,3.94Z"/><path class="cls-1" d="M23.94,6.79H5.27c-1.12,0-2.04-.92-2.04-2.04v-2.71c0-1.12.92-2.04,2.04-2.04h18.67c1.12,0,2.04.92,2.04,2.04v2.71c0,1.12-.92,2.04-2.04,2.04ZM5.27,1c-.57,0-1.04.47-1.04,1.04v2.71c0,.57.47,1.04,1.04,1.04h18.67c.57,0,1.04-.47,1.04-1.04v-2.71c0-.57-.47-1.04-1.04-1.04H5.27Z"/><path class="cls-1" d="M15.19,4.25H3.73c-.28,0-.5-.22-.5-.5s.22-.5.5-.5h11.46c.28,0,.5.22.5.5s-.22.5-.5.5Z"/><path class="cls-1" d="M21.62,9.12h-4.49c-.28,0-.5-.22-.5-.5s.22-.5.5-.5h4.49c.28,0,.5.22.5.5s-.22.5-.5.5Z"/><rect class="cls-1" x="5.33" y="18.5" width="18.56" height="16.32"/><path class="cls-1" d="M23.89,35.32H5.33c-.28,0-.5-.22-.5-.5v-16.32c0-.28.22-.5.5-.5h18.56c.28,0,.5.22.5.5v16.32c0,.28-.22.5-.5.5ZM5.83,34.32h17.56v-15.32H5.83v15.32Z"/></g></svg>