<?xml version="1.0" encoding="UTF-8"?><svg id="Layer_2" xmlns="http://www.w3.org/2000/svg" viewBox="0 0 38.36 41.56"><defs><style>.cls-1{fill:#185a1b;}</style></defs><g id="Layer_1-2"><path class="cls-1" d="M23.17,29.73c0,6.26-5.07,11.33-11.33,11.33S.5,35.99.5,29.73,11.83,10.57,11.83,10.57c0,0,11.33,12.9,11.33,19.16Z"/><path class="cls-1" d="M11.83,41.56c-6.53,0-11.83-5.31-11.83-11.83S10.99,10.77,11.46,10.24c.19-.22.56-.22.75,0,.47.53,11.46,13.11,11.46,19.49s-5.31,11.83-11.83,11.83ZM11.83,11.34C9.88,13.63,1,24.36,1,29.73c0,5.97,4.86,10.83,10.83,10.83s10.83-4.86,10.83-10.83c0-5.37-8.88-16.1-10.83-18.39Z"/><path class="cls-1" d="M16.42,36.11c-.1,0-.2-.03-.28-.09-.23-.16-.29-.47-.13-.69,4.34-6.36-.07-11.35-.26-11.56-.18-.2-.17-.52.03-.71.2-.19.52-.17.71.03.05.06,5.14,5.77.35,12.8-.1.14-.25.22-.41.22Z"/><path class="cls-1" d="M31.05,12.81l-5.49-5.49,6.18-6.18c1.52-1.51,3.98-1.51,5.49,0,1.51,1.51,1.51,3.98,0,5.49l-6.18,6.18ZM26.97,7.31l4.08,4.08,5.47-5.47c1.12-1.12,1.12-2.96,0-4.08-1.12-1.12-2.96-1.12-4.08,0l-5.47,5.47Z"/><path class="cls-1" d="M23.16,18.51l-9.09,9.09c-.91.91-4.12,2.64-5.04,1.73s.81-4.12,1.73-5.04l9.09-9.09,3.31,3.31Z"/><path class="cls-1" d="M9.82,30.08c-.45,0-.85-.12-1.13-.4-1.27-1.27.82-4.84,1.72-5.74l9.44-9.44,4.02,4.02-9.44,9.44c-.7.7-3.01,2.12-4.61,2.12ZM19.85,15.91l-8.74,8.73c-1.02,1.02-2.24,3.82-1.72,4.33.51.51,3.31-.71,4.33-1.73l8.73-8.73-2.6-2.6Z"/><path class="cls-1" d="M25.85,21.07c-.51,0-1.02-.19-1.41-.58l-6.56-6.56c-.38-.38-.58-.88-.58-1.41s.21-1.03.58-1.41l5.04-5.04c.78-.78,2.04-.78,2.82,0l6.56,6.56c.78.78.78,2.04,0,2.82l-5.04,5.04c-.39.39-.9.58-1.41.58ZM25.14,19.78c.39.39,1.02.39,1.41,0l5.04-5.04c.39-.39.39-1.02,0-1.41l-6.56-6.56c-.39-.39-1.02-.39-1.41,0l-5.04,5.04c-.19.19-.29.44-.29.7s.1.52.29.7l6.56,6.56Z"/><path class="cls-1" d="M24.97,16.46c-.13,0-.26-.05-.35-.15l-5.36-5.36c-.2-.2-.2-.51,0-.71.2-.2.51-.2.71,0l5.36,5.36c.2.2.2.51,0,.71-.1.1-.23.15-.35.15Z"/></g></svg>