<?xml version="1.0" encoding="UTF-8"?><svg id="Layer_2" xmlns="http://www.w3.org/2000/svg" viewBox="0 0 36.85 40.66"><defs><style>.cls-1{fill:#185a1b;}</style></defs><g id="Layer_1-2"><path class="cls-1" d="M18.43,30.08c-8.93,0-18.43-2.07-18.43-5.92s9.49-5.92,18.43-5.92,18.43,2.07,18.43,5.92-9.49,5.92-18.43,5.92ZM18.43,19.24c-10.27,0-17.43,2.59-17.43,4.92s7.16,4.92,17.43,4.92,17.43-2.59,17.43-4.92-7.16-4.92-17.43-4.92Z"/><path class="cls-1" d="M18.43,40.66c-8.93,0-18.43-2.07-18.43-5.92v-10.94c0-.28.22-.5.5-.5s.5.22.5.5v10.94c0,2.33,7.16,4.92,17.43,4.92s17.43-2.59,17.43-4.92v-10.94c0-.28.22-.5.5-.5s.5.22.5.5v10.94c0,3.84-9.49,5.92-18.43,5.92Z"/><path class="cls-1" d="M33.07,36.19c-.28,0-.5-.22-.5-.5v-6.38c0-.28.22-.5.5-.5s.5.22.5.5v6.38c0,.28-.22.5-.5.5Z"/><path class="cls-1" d="M6.27,16.01c-.28,0-.5-.22-.5-.5v-2.52c0-.28.22-.5.5-.5s.5.22.5.5v2.52c0,.28-.22.5-.5.5Z"/><path class="cls-1" d="M14.37,16.01c-.28,0-.5-.22-.5-.5v-2.52c0-.28.22-.5.5-.5s.5.22.5.5v2.52c0,.28-.22.5-.5.5Z"/><path class="cls-1" d="M22.48,16.01c-.28,0-.5-.22-.5-.5v-2.52c0-.28.22-.5.5-.5s.5.22.5.5v2.52c0,.28-.22.5-.5.5Z"/><path class="cls-1" d="M30.58,16.01c-.28,0-.5-.22-.5-.5v-2.52c0-.28.22-.5.5-.5s.5.22.5.5v2.52c0,.28-.22.5-.5.5Z"/><path class="cls-1" d="M10.32,11.85c-.28,0-.5-.22-.5-.5v-2.52c0-.28.22-.5.5-.5s.5.22.5.5v2.52c0,.28-.22.5-.5.5Z"/><path class="cls-1" d="M18.43,11.85c-.28,0-.5-.22-.5-.5v-2.52c0-.28.22-.5.5-.5s.5.22.5.5v2.52c0,.28-.22.5-.5.5Z"/><path class="cls-1" d="M26.53,11.85c-.28,0-.5-.22-.5-.5v-2.52c0-.28.22-.5.5-.5s.5.22.5.5v2.52c0,.28-.22.5-.5.5Z"/><path class="cls-1" d="M14.37,7.68c-.28,0-.5-.22-.5-.5v-2.52c0-.28.22-.5.5-.5s.5.22.5.5v2.52c0,.28-.22.5-.5.5Z"/><path class="cls-1" d="M22.48,7.68c-.28,0-.5-.22-.5-.5v-2.52c0-.28.22-.5.5-.5s.5.22.5.5v2.52c0,.28-.22.5-.5.5Z"/><path class="cls-1" d="M18.43,3.52c-.28,0-.5-.22-.5-.5V.5c0-.28.22-.5.5-.5s.5.22.5.5v2.52c0,.28-.22.5-.5.5Z"/><path class="cls-1" d="M5.58,27.91c0-2.9,5.75-5.25,12.85-5.25s12.85,2.35,12.85,5.25v.03c-3.25,1.01-7.8,1.64-12.85,1.64s-9.6-.63-12.86-1.64v-.03Z"/><path class="cls-1" d="M18.43,30.08c-4.94,0-9.55-.59-13-1.66-.25-.08-.39-.33-.34-.57.08-3.19,5.91-5.69,13.35-5.69s13.3,2.51,13.35,5.72c0,.09,0,.19-.05.27-.06.12-.16.23-.29.27-3.45,1.07-8.07,1.67-13.01,1.67ZM6.11,27.58c3.31.97,7.66,1.5,12.31,1.5s9-.53,12.31-1.5c-.45-2.19-5.28-4.42-12.31-4.42s-11.87,2.23-12.31,4.42Z"/></g></svg>