<?xml version="1.0" encoding="UTF-8"?><svg id="Layer_2" xmlns="http://www.w3.org/2000/svg" viewBox="0 0 41.33 44.44"><defs><style>.cls-1{fill:#185a1b;}</style></defs><g id="Layer_1-2"><path class="cls-1" d="M20.67,31.61C30.47,14.57,20.67.49,20.67.49c0,0-9.8,14.09,0,31.12Z"/><path class="cls-1" d="M20.67,32.11c-.18,0-.34-.1-.43-.25-9.85-17.11-.08-31.51.02-31.66.19-.27.63-.27.82,0,.1.14,9.87,14.54.02,31.66-.09.15-.25.25-.43.25ZM20.67,1.44c-1.69,2.91-7.69,14.98,0,29.15,7.69-14.17,1.69-26.24,0-29.15Z"/><path class="cls-1" d="M20.67,32.26C14.86,16.82.5,15.66.5,15.66c0,0,3.9,13.87,20.17,16.61Z"/><path class="cls-1" d="M20.67,32.76s-.06,0-.08,0C4.19,30,.06,15.93.02,15.79c-.04-.16,0-.33.1-.45.1-.13.26-.2.43-.18.15.01,14.74,1.37,20.59,16.93.06.17.03.36-.08.49-.1.12-.24.18-.39.18ZM1.24,16.26c1.07,2.81,5.71,12.77,18.63,15.34C14.86,19.4,4.2,16.77,1.24,16.26Z"/><path class="cls-1" d="M20.67,32.41c-11.07-3.71-18.13,3.65-18.13,3.65,0,0,9.35,4.06,18.13-3.65Z"/><path class="cls-1" d="M8.58,37.6c-3.65,0-6.19-1.06-6.24-1.09-.15-.06-.26-.2-.29-.36-.03-.16.02-.33.13-.44.07-.08,7.4-7.55,18.64-3.78.17.06.3.2.33.38.04.18-.03.36-.16.47-4.36,3.83-8.91,4.82-12.42,4.82ZM3.5,35.87c2.28.7,9.35,2.22,16.15-3.25-8.39-2.41-14.31,1.71-16.15,3.25Z"/><path class="cls-1" d="M20.67,33.07c-8.16,3.16-7.83,10.87-7.83,10.87,0,0,7.42-2.13,7.83-10.87Z"/><path class="cls-1" d="M12.84,44.44c-.1,0-.21-.03-.29-.09-.12-.09-.2-.23-.21-.38,0-.08-.25-8.11,8.15-11.36.16-.06.34-.04.47.06.14.1.22.26.21.43-.43,9-8.11,11.31-8.19,11.33-.05.01-.09.02-.14.02ZM20.11,33.85c-5.66,2.56-6.59,7.54-6.75,9.37,1.71-.71,6.11-3.13,6.75-9.37Z"/><path class="cls-1" d="M20.67,32.26c5.81-15.44,20.17-16.61,20.17-16.61,0,0-3.9,13.87-20.17,16.61Z"/><path class="cls-1" d="M20.67,32.76c-.15,0-.29-.07-.39-.18-.11-.14-.14-.33-.08-.49,5.85-15.56,20.45-16.92,20.59-16.93.17-.02.32.05.43.18.1.13.14.3.1.45-.04.14-4.17,14.21-20.57,16.96-.03,0-.06,0-.08,0ZM40.1,16.26c-2.97.51-13.63,3.15-18.63,15.34,12.94-2.58,17.57-12.53,18.63-15.34Z"/><path class="cls-1" d="M20.67,32.41c11.07-3.71,18.13,3.65,18.13,3.65,0,0-9.35,4.06-18.13-3.65Z"/><path class="cls-1" d="M32.76,37.6c-3.51,0-8.05-.98-12.42-4.82-.13-.12-.2-.3-.16-.47.04-.18.16-.32.33-.38,11.25-3.77,18.57,3.7,18.65,3.78.11.12.16.28.13.44-.03.16-.14.29-.29.36-.05.02-2.58,1.09-6.24,1.09ZM21.69,32.62c6.8,5.47,13.86,3.96,16.15,3.25-1.83-1.54-7.76-5.66-16.15-3.25Z"/><path class="cls-1" d="M20.67,33.07c8.16,3.16,7.83,10.87,7.83,10.87,0,0-7.42-2.13-7.83-10.87Z"/><path class="cls-1" d="M28.5,44.44s-.09,0-.14-.02c-.08-.02-7.77-2.33-8.19-11.33,0-.17.07-.33.21-.43.14-.1.31-.12.47-.06,8.4,3.25,8.15,11.28,8.15,11.36,0,.15-.08.29-.21.38-.09.06-.19.09-.29.09ZM21.23,33.85c.64,6.25,5.05,8.67,6.75,9.38-.13-1.84-1.03-6.79-6.75-9.38Z"/><path class="cls-1" d="M20.67,43.16c-.28,0-.5-.22-.5-.5V11.03c0-.28.22-.5.5-.5s.5.22.5.5v31.63c0,.28-.22.5-.5.5Z"/></g></svg>