<?xml version="1.0" encoding="UTF-8"?><svg id="Layer_2" xmlns="http://www.w3.org/2000/svg" viewBox="0 0 26.08 42.99"><defs><style>.cls-1{fill:#185a1b;}</style></defs><g id="Layer_1-2"><path class="cls-1" d="M5.51,34.54c-.28,0-.5-.22-.5-.5v-3.78L.45,23.19c-.41-.64-.55-1.4-.39-2.14.16-.74.6-1.38,1.24-1.79.64-.41,1.4-.55,2.14-.39.74.16,1.37.6,1.79,1.24l.03.04v-11.29c0-1.56,1.27-2.84,2.84-2.84s2.84,1.27,2.84,2.84v5.7c.5-.42,1.14-.68,1.84-.68,1.19,0,2.2.73,2.63,1.77.52-.54,1.24-.88,2.05-.88,1.16,0,2.16.7,2.6,1.7.52-.56,1.26-.9,2.08-.9,1.56,0,2.84,1.27,2.84,2.84v14.85c0,.28-.22.5-.5.5s-.5-.22-.5-.5v-14.85c0-1.01-.82-1.84-1.84-1.84s-1.84.82-1.84,1.84c0,.28-.22.5-.5.5s-.5-.22-.5-.5v-.79c0-1.01-.82-1.84-1.84-1.84s-1.84.82-1.84,1.84v.79c0,.28-.22.5-.5.5s-.5-.22-.5-.5v-1.69c0-1.01-.82-1.84-1.84-1.84s-1.84.82-1.84,1.84v1.69c0,.28-.22.5-.5.5s-.5-.22-.5-.5v-9.54c0-1.01-.82-1.84-1.84-1.84s-1.84.82-1.84,1.84v12.19l1.07,2.31c.11.24.02.52-.21.65-.23.13-.52.05-.66-.17l-2.06-3.19c-.27-.41-.68-.7-1.16-.8-.48-.1-.97-.01-1.38.25-.41.27-.7.68-.8,1.16-.1.48-.01.97.25,1.38l4.64,7.18c.05.08.08.17.08.27v3.93c0,.28-.22.5-.5.5Z"/><path class="cls-1" d="M4.06,34.04v8.45h21.52v-8.45H4.06ZM21.7,40.06c-.99,0-1.8-.8-1.8-1.8s.8-1.8,1.8-1.8,1.8.8,1.8,1.8-.8,1.8-1.8,1.8Z"/><path class="cls-1" d="M25.58,42.99H4.06c-.28,0-.5-.22-.5-.5v-8.45c0-.28.22-.5.5-.5h21.52c.28,0,.5.22.5.5v8.45c0,.28-.22.5-.5.5ZM4.56,41.99h20.52v-7.45H4.56v7.45ZM21.7,40.56c-1.27,0-2.3-1.03-2.3-2.3s1.03-2.3,2.3-2.3,2.3,1.03,2.3,2.3-1.03,2.3-2.3,2.3ZM21.7,36.96c-.72,0-1.3.58-1.3,1.3s.58,1.3,1.3,1.3,1.3-.58,1.3-1.3-.58-1.3-1.3-1.3Z"/><path class="cls-1" d="M10.42,11.33c-.16,0-.32-.08-.42-.22-.15-.23-.09-.54.14-.69.98-.65,1.56-1.74,1.56-2.91,0-1.93-1.57-3.5-3.5-3.5s-3.5,1.57-3.5,3.5c0,1.06.49,2.06,1.34,2.73.22.17.25.49.08.7-.17.22-.48.25-.7.08-1.09-.86-1.72-2.15-1.72-3.52,0-2.48,2.02-4.5,4.5-4.5s4.5,2.02,4.5,4.5c0,1.51-.75,2.9-2.01,3.74-.08.06-.18.08-.28.08Z"/><path class="cls-1" d="M13.61,12.74c-.12,0-.23-.04-.33-.12-.21-.18-.23-.5-.05-.7,1.03-1.2,1.6-2.73,1.6-4.29,0-3.65-2.97-6.62-6.62-6.62S1.59,3.97,1.59,7.62c0,1.59.56,3.07,1.62,4.29.18.21.16.52-.05.71-.21.18-.52.16-.71-.05-1.21-1.39-1.87-3.14-1.87-4.95C.59,3.42,4.01,0,8.21,0s7.62,3.42,7.62,7.62c0,1.81-.65,3.56-1.84,4.95-.1.12-.24.17-.38.17Z"/></g></svg>