<?xml version="1.0" encoding="UTF-8"?><svg id="Layer_2" xmlns="http://www.w3.org/2000/svg" viewBox="0 0 41.59 41.59"><defs><style>.cls-1{fill:#185a1b;}</style></defs><g id="Layer_1-2"><path class="cls-1" d="M29,41.59H12.58v-12.58H0V12.58h12.58V0h16.42v12.58h12.58v16.42h-12.58v12.58ZM13.58,40.59h14.42v-12.58h12.58v-14.42h-12.58V1h-14.42v12.58H1v14.42h12.58v12.58Z"/><path class="cls-1" d="M20.79,28.33c8.41-14.62,0-26.7,0-26.7,0,0-8.41,12.08,0,26.7Z"/><path class="cls-1" d="M20.79,28.83c-.18,0-.34-.1-.43-.25-8.47-14.72-.06-27.11.02-27.23.19-.27.63-.27.82,0,.09.12,8.49,12.52.02,27.23-.09.15-.25.25-.43.25ZM20.79,2.59c-1.52,2.65-6.4,12.81,0,24.71,6.4-11.91,1.52-22.07,0-24.71Z"/><path class="cls-1" d="M20.79,28.89C15.81,15.64,3.49,14.64,3.49,14.64c0,0,3.34,11.9,17.3,14.25Z"/><path class="cls-1" d="M20.79,29.39s-.06,0-.08,0C6.6,27.01,3.04,14.9,3.01,14.78c-.04-.16,0-.33.1-.45.1-.13.26-.19.43-.18.13.01,12.69,1.18,17.73,14.57.06.17.03.36-.08.49-.1.12-.24.18-.39.18ZM4.24,15.26c.99,2.54,4.97,10.77,15.76,12.98-4.23-10.16-13.08-12.49-15.76-12.98Z"/><path class="cls-1" d="M20.79,29.02c-9.5-3.18-15.55,3.13-15.55,3.13,0,0,8.02,3.48,15.55-3.13Z"/><path class="cls-1" d="M10.42,33.54c-3.15,0-5.34-.92-5.38-.94-.15-.06-.26-.2-.29-.36-.03-.16.02-.33.13-.44.06-.07,6.38-6.51,16.07-3.26.17.06.3.2.33.38.04.18-.03.36-.16.47-3.76,3.3-7.68,4.15-10.7,4.15ZM6.2,31.96c2.04.64,7.83,1.82,13.57-2.74-6.98-1.95-11.92,1.38-13.57,2.74Z"/><path class="cls-1" d="M20.79,28.89c4.98-13.25,17.3-14.25,17.3-14.25,0,0-3.34,11.9-17.3,14.25Z"/><path class="cls-1" d="M20.79,29.39c-.15,0-.29-.07-.39-.18-.11-.14-.15-.33-.08-.49,5.04-13.39,17.6-14.56,17.73-14.57.17-.01.32.05.43.18.1.13.14.3.1.45-.03.12-3.59,12.23-17.7,14.61-.03,0-.06,0-.08,0ZM37.35,15.26c-2.68.48-11.52,2.81-15.76,12.98,10.78-2.21,14.77-10.44,15.76-12.98Z"/><path class="cls-1" d="M20.79,29.02c9.5-3.18,15.55,3.13,15.55,3.13,0,0-8.02,3.48-15.55-3.13Z"/><path class="cls-1" d="M31.16,33.54c-3.03,0-6.94-.85-10.7-4.15-.13-.12-.2-.3-.16-.47.04-.18.16-.32.33-.38,9.68-3.25,16.01,3.19,16.07,3.26.11.12.16.28.13.44-.03.16-.14.3-.29.36-.04.02-2.23.94-5.38.94ZM21.82,29.22c5.74,4.56,11.54,3.37,13.58,2.73-1.63-1.37-6.51-4.71-13.58-2.73Z"/><path class="cls-1" d="M20.79,37.43c-.28,0-.5-.22-.5-.5v-7.34c0-.28.22-.5.5-.5s.5.22.5.5v7.34c0,.28-.22.5-.5.5Z"/><path class="cls-1" d="M24.53,35.15c-.16,0-.32-.08-.42-.23l-3.74-5.76c-.15-.23-.08-.54.15-.69.23-.15.54-.08.69.15l3.74,5.76c.15.23.08.54-.15.69-.08.05-.18.08-.27.08Z"/><path class="cls-1" d="M17.05,35.15c-.09,0-.19-.03-.27-.08-.23-.15-.3-.46-.15-.69l3.74-5.76c.15-.23.46-.3.69-.15.23.15.3.46.15.69l-3.74,5.76c-.1.15-.26.23-.42.23Z"/></g></svg>