<?xml version="1.0" encoding="UTF-8"?><svg id="Layer_2" xmlns="http://www.w3.org/2000/svg" viewBox="0 0 38.59 40.49"><defs><style>.cls-1{fill:#185a1b;}</style></defs><g id="Layer_1-2"><path class="cls-1" d="M19.3,29.49C28.43,13.62,19.3.49,19.3.49c0,0-9.14,13.13,0,29.01Z"/><path class="cls-1" d="M19.3,29.99c-.18,0-.34-.1-.43-.25-9.19-15.97-.07-29.41.02-29.54.19-.27.63-.27.82,0,.09.13,9.21,13.57.02,29.54-.09.16-.25.25-.43.25ZM19.3,1.44c-1.61,2.79-7.07,13.94,0,27.03,7.07-13.08,1.61-24.24,0-27.03Z"/><path class="cls-1" d="M19.3,30.1C13.88,15.71.5,14.63.5,14.63c0,0,3.63,12.93,18.8,15.48Z"/><path class="cls-1" d="M19.3,30.6s-.06,0-.08,0C3.91,28.02.06,14.89.02,14.76c-.04-.16,0-.33.1-.45.1-.13.28-.19.43-.18.14.01,13.76,1.28,19.22,15.8.06.17.03.36-.08.49-.1.12-.24.18-.39.18ZM1.24,15.23c1.03,2.68,5.36,11.81,17.26,14.21C13.86,18.21,4.07,15.73,1.24,15.23Z"/><path class="cls-1" d="M19.3,30.24c-10.32-3.46-16.89,3.4-16.89,3.4,0,0,8.72,3.78,16.89-3.4Z"/><path class="cls-1" d="M8.03,35.12c-3.41,0-5.78-.99-5.83-1.01-.15-.07-.26-.2-.29-.36-.03-.16.02-.33.13-.44.07-.07,6.92-7.05,17.41-3.53.17.06.3.2.33.38.04.18-.03.36-.16.47-4.08,3.58-8.32,4.5-11.6,4.5ZM3.36,33.45c2.17.66,8.65,2,14.91-3-7.71-2.19-13.16,1.55-14.91,3Z"/><path class="cls-1" d="M19.3,30.1c5.41-14.39,18.8-15.48,18.8-15.48,0,0-3.63,12.93-18.8,15.48Z"/><path class="cls-1" d="M19.3,30.6c-.15,0-.29-.07-.39-.18-.11-.14-.15-.33-.08-.49,5.46-14.52,19.09-15.79,19.22-15.8.15,0,.32.05.43.18.1.13.14.29.1.45-.04.13-3.89,13.26-19.2,15.84-.03,0-.06,0-.08,0ZM37.35,15.24c-2.83.5-12.62,2.99-17.26,14.21,11.92-2.4,16.23-11.53,17.26-14.21Z"/><path class="cls-1" d="M19.3,30.24c10.32-3.46,16.89,3.4,16.89,3.4,0,0-8.72,3.78-16.89-3.4Z"/><path class="cls-1" d="M30.56,35.12c-3.28,0-7.52-.92-11.6-4.5-.13-.12-.2-.3-.16-.47.04-.18.16-.32.33-.38,10.5-3.52,17.34,3.46,17.41,3.53.11.12.16.28.13.44-.03.16-.14.29-.29.36-.05.02-2.41,1.01-5.83,1.01ZM20.32,30.45c6.27,5.01,12.74,3.67,14.91,3-1.75-1.45-7.21-5.19-14.91-3Z"/><path class="cls-1" d="M19.3,40.49c-.28,0-.5-.22-.5-.5V12.51c0-.28.22-.5.5-.5s.5.22.5.5v27.48c0,.28-.22.5-.5.5Z"/><path class="cls-1" d="M23.36,36.86c-.16,0-.32-.08-.42-.23l-4.06-6.25c-.15-.23-.08-.54.15-.69.23-.15.54-.09.69.15l4.06,6.25c.15.23.09.54-.15.69-.08.05-.18.08-.27.08Z"/><path class="cls-1" d="M15.24,36.86c-.09,0-.19-.03-.27-.08-.23-.15-.3-.46-.15-.69l4.06-6.25c.15-.23.46-.3.69-.15.23.15.3.46.15.69l-4.06,6.25c-.1.15-.26.23-.42.23Z"/></g></svg>