<?xml version="1.0" encoding="UTF-8"?><svg id="Layer_2" xmlns="http://www.w3.org/2000/svg" viewBox="0 0 35.65 42.33"><defs><style>.cls-1{fill:#185a1b;}</style></defs><g id="Layer_1-2"><path class="cls-1" d="M17.83,42.33c-4.72,0-9.44-.62-13.6-1.86-.4.69-1.13,1.13-1.95,1.13-1.25,0-2.27-1.02-2.27-2.27,0-.87.5-1.64,1.25-2.02C-1.26,26.59.7,15.46,3.25,5c-.75-.38-1.25-1.15-1.25-2.02C2,1.73,3.02.71,4.27.71c.82,0,1.55.44,1.95,1.13C14.33-.61,21.32-.61,29.43,1.84c.4-.69,1.13-1.13,1.95-1.13,1.25,0,2.27,1.02,2.27,2.27,0,.87-.5,1.64-1.25,2.02,2.55,10.46,4.51,21.59,2,32.3.76.38,1.25,1.15,1.25,2.02,0,1.25-1.02,2.27-2.27,2.27-.82,0-1.55-.44-1.95-1.13-4.16,1.24-8.88,1.86-13.6,1.86ZM3.95,39.36s.1,0,.15.02c8.34,2.6,19.12,2.6,27.46,0,.26-.08.54.06.62.33.17.53.65.89,1.2.89.7,0,1.27-.57,1.27-1.27,0-.58-.4-1.08-.96-1.22-.27-.07-.43-.34-.36-.6,2.65-10.79.61-22.09-2-32.69-.07-.27.1-.54.36-.6.57-.14.96-.65.96-1.23,0-.7-.57-1.27-1.27-1.27-.55,0-1.03.36-1.2.89-.08.26-.36.41-.62.33C21.22.33,14.43.33,6.09,2.93c-.26.08-.54-.06-.62-.33-.17-.53-.65-.89-1.2-.89-.7,0-1.27.57-1.27,1.27,0,.58.4,1.08.96,1.23.27.07.43.34.36.6C1.72,15.41-.33,26.71,2.33,37.5c.07.27-.1.54-.36.6-.57.14-.96.65-.96,1.22,0,.7.57,1.27,1.27,1.27.55,0,1.03-.36,1.2-.89.07-.21.26-.35.48-.35Z"/><path class="cls-1" d="M32.87,11.46H2.78c-.28,0-.5-.22-.5-.5s.22-.5.5-.5h30.09c.28,0,.5.22.5.5s-.22.5-.5.5Z"/><path class="cls-1" d="M34.67,32.69H.94c-.28,0-.5-.22-.5-.5s.22-.5.5-.5h33.73c.28,0,.5.22.5.5s-.22.5-.5.5Z"/><path class="cls-1" d="M22.91,28.19c-1.74,1.74-4.56,1.74-6.3,0s-1.74-4.56,0-6.3c1.74-1.74,9.87-3.57,9.87-3.57,0,0-1.83,8.13-3.57,9.86Z"/><path class="cls-1" d="M19.76,29.99c-1.27,0-2.54-.48-3.5-1.45-1.93-1.93-1.93-5.07,0-7,1.79-1.79,9.26-3.51,10.11-3.7.17-.04.34.01.46.13.12.12.17.3.13.46-.19.85-1.91,8.32-3.7,10.11h0c-.97.97-2.23,1.45-3.5,1.45ZM25.81,18.99c-2.62.64-7.63,2.04-8.84,3.25-1.54,1.54-1.54,4.05,0,5.59s4.05,1.54,5.59,0c1.21-1.21,2.61-6.23,3.25-8.84Z"/><path class="cls-1" d="M21.28,24.44c0,2.79-2.26,5.06-5.05,5.06s-5.06-2.26-5.06-5.06,5.06-10.78,5.06-10.78c0,0,5.05,7.99,5.05,10.78Z"/><path class="cls-1" d="M16.22,29.99c-3.06,0-5.55-2.49-5.55-5.55,0-2.9,4.92-10.72,5.13-11.05.18-.29.66-.29.85,0,.21.33,5.13,8.15,5.13,11.05,0,3.06-2.49,5.55-5.55,5.55ZM16.22,14.6c-1.58,2.58-4.55,7.86-4.55,9.83,0,2.51,2.04,4.55,4.55,4.55s4.55-2.04,4.55-4.55c0-1.98-2.98-7.25-4.55-9.83Z"/><path class="cls-1" d="M16.22,29.99c-.28,0-.5-.22-.5-.5v-15.84c0-.28.22-.5.5-.5s.5.22.5.5v15.84c0,.28-.22.5-.5.5Z"/></g></svg>