<?xml version="1.0" encoding="UTF-8"?><svg id="Layer_2" xmlns="http://www.w3.org/2000/svg" viewBox="0 0 44.33 40.22"><defs><style>.cls-1{fill:#185a1b;}</style></defs><g id="Layer_1-2"><path class="cls-1" d="M25.77,21.26s0,0,0,0h0c0-.55-.21-1.09-.63-1.51-.47-.47-1.11-.67-1.72-.61l.65-.65c.42-.42.63-.97.63-1.52s-.21-1.1-.63-1.52c-.47-.47-1.11-.67-1.72-.61l.65-.65c.42-.42.63-.97.63-1.52s-.21-1.1-.63-1.52c-.47-.47-1.11-.67-1.72-.61l.65-.65c.42-.42.63-.97.63-1.52s-.21-1.1-.63-1.52c-.49-.49-1.16-.69-1.8-.6.23-.35.35-.76.35-1.17,0-.55-.21-1.1-.63-1.52-.55-.55-1.31-.73-2.02-.56v-.36c0-1.19-.96-2.15-2.15-2.15-.01,0-.02,0-.03,0-.01,0-.02,0-.03,0-1.19,0-2.15.96-2.15,2.15v.36c-.7-.17-1.47.02-2.02.56-.73.73-.82,1.85-.28,2.69-.64-.08-1.31.11-1.8.6-.84.84-.84,2.2,0,3.04l.65.65c-.62-.06-1.25.14-1.72.61-.84.84-.84,2.2,0,3.04l.65.65c-.62-.06-1.25.14-1.72.61-.84.84-.84,2.2,0,3.04l.65.65c-.62-.06-1.25.14-1.72.61-.42.42-.63.96-.63,1.51h0s0,0,0,0c0,0,0,0,0,.01.01,5.58,4.54,10.11,10.13,10.11s10.11-4.52,10.13-10.11c0,0,0,0,0-.01,0,0,0,0,0,0Z"/><path class="cls-1" d="M15.64,31.88c-5.85,0-10.61-4.76-10.63-10.6,0-.73.28-1.39.77-1.88.29-.29.63-.5,1-.62-.96-1.04-.94-2.66.07-3.67.29-.29.63-.5,1-.62-.96-1.04-.94-2.66.07-3.67.29-.29.63-.5,1-.62-.96-1.04-.94-2.66.07-3.67.39-.39.87-.64,1.4-.73-.24-.89,0-1.88.68-2.56.51-.51,1.19-.74,1.88-.77.1-1.37,1.25-2.45,2.64-2.45s2.61,1.08,2.71,2.45c.68.02,1.37.27,1.88.77.5.5.78,1.17.78,1.87,0,.23-.03.47-.09.69.52.09,1.01.34,1.4.73.5.5.78,1.17.78,1.87s-.25,1.31-.7,1.8c.37.13.72.34,1,.62.5.5.78,1.17.78,1.87s-.25,1.31-.7,1.8c.37.13.72.34,1,.62.5.5.78,1.17.78,1.87s-.25,1.31-.7,1.8c.37.13.72.34,1,.62.49.49.77,1.14.77,1.84,0,.01,0,.02,0,.03-.01,5.86-4.78,10.62-10.63,10.62ZM6.01,21.29c.02,5.3,4.34,9.6,9.63,9.6s9.61-4.31,9.63-9.61h0s0-.06,0-.08c0-.38-.18-.79-.49-1.1-.34-.34-.83-.51-1.32-.47-.21.02-.41-.09-.5-.28-.09-.19-.05-.42.1-.57l.65-.65c.31-.31.48-.73.48-1.17s-.17-.85-.48-1.16c-.34-.34-.82-.51-1.32-.47-.22.02-.41-.09-.5-.28-.09-.19-.05-.42.1-.57l.65-.65c.31-.31.48-.73.48-1.17s-.17-.85-.48-1.16c-.34-.34-.82-.51-1.32-.47-.22.02-.41-.09-.5-.28-.09-.19-.05-.42.1-.57l.65-.65c.31-.31.48-.73.48-1.16s-.17-.85-.48-1.16c-.36-.36-.86-.52-1.38-.46-.19.03-.38-.06-.49-.23-.1-.16-.1-.38,0-.54.17-.27.27-.58.27-.9,0-.44-.17-.85-.48-1.17-.4-.4-.98-.56-1.55-.43-.15.04-.31,0-.43-.09-.12-.09-.19-.24-.19-.39v-.36c0-.91-.74-1.65-1.65-1.65-.03,0-.1,0-.13,0-.85,0-1.59.74-1.59,1.65v.36c0,.15-.07.3-.19.39-.12.09-.28.13-.43.09-.56-.13-1.14.03-1.55.43-.55.55-.64,1.41-.22,2.06.11.16.11.37,0,.54-.1.17-.3.26-.49.23-.52-.06-1.02.1-1.38.46-.64.64-.64,1.69,0,2.33l.65.65c.15.15.19.38.1.57-.09.19-.29.3-.5.28-.5-.05-.98.12-1.32.47-.64.64-.64,1.69,0,2.33l.65.65c.15.15.19.38.1.57-.09.19-.28.3-.5.28-.49-.04-.98.12-1.32.47-.64.64-.64,1.69,0,2.33l.65.65c.15.15.19.38.1.57-.09.19-.29.3-.5.28-.5-.04-.98.12-1.32.47-.31.31-.48.72-.48,1.16,0,0,0,.02,0,.03Z"/><path class="cls-1" d="M31.37,22.17c0,7.85-6.91,14.22-15.43,14.22S.5,30.03.5,22.17h30.87Z"/><path class="cls-1" d="M15.93,36.89c-8.79,0-15.93-6.6-15.93-14.72v-.5h31.87v.5c0,8.12-7.15,14.72-15.93,14.72ZM1.01,22.67c.29,7.34,6.87,13.22,14.92,13.22s14.64-5.89,14.92-13.22H1.01Z"/><path class="cls-1" d="M20.48,33.9c-.21,0-.4-.13-.47-.33-.09-.26.04-.55.3-.64,4.08-1.45,7.08-4.8,7.83-8.75.05-.27.31-.45.59-.4.27.05.45.31.4.59-.82,4.29-4.07,7.93-8.48,9.5-.06.02-.11.03-.17.03Z"/><path class="cls-1" d="M11.32,35.33h10.01c1.01,0,1.84.82,1.84,1.84v2.4h-14.47v-1.61c0-1.45,1.18-2.63,2.63-2.63Z"/><path class="cls-1" d="M23.67,40.07h-15.47v-2.11c0-1.72,1.4-3.13,3.13-3.13h10.01c1.29,0,2.34,1.05,2.34,2.34v2.9ZM9.2,39.07h13.47v-1.9c0-.74-.6-1.34-1.34-1.34h-10.01c-1.17,0-2.13.95-2.13,2.13v1.11Z"/><path class="cls-1" d="M43.83,10c0-2.38-1.93-4.31-4.31-4.31s-4.31,1.93-4.31,4.31c0,.04,1.48,27.28,1.48,27.28.07,1.37,1.2,2.44,2.58,2.44h.51c1.37,0,2.5-1.07,2.58-2.44,0,0,1.48-27.24,1.48-27.28Z"/><path class="cls-1" d="M39.78,40.22h-.51c-1.64,0-2.99-1.28-3.08-2.92q-1.48-27.25-1.48-27.31c0-2.65,2.16-4.81,4.81-4.81s4.81,2.16,4.81,4.81t-1.48,27.31c-.09,1.63-1.44,2.92-3.07,2.92ZM39.52,6.19c-2.1,0-3.81,1.71-3.81,3.81.01.24,1.47,26.98,1.48,27.25.06,1.11.97,1.97,2.08,1.97h.51c1.11,0,2.02-.87,2.08-1.97.01-.27,1.45-26.63,1.48-27.26,0-2.1-1.71-3.8-3.81-3.8Z"/></g></svg>