<?xml version="1.0" encoding="UTF-8"?><svg id="Layer_2" xmlns="http://www.w3.org/2000/svg" viewBox="0 0 39.98 39.98"><defs><style>.cls-1{fill:#185a1b;}</style></defs><g id="Layer_1-2"><path class="cls-1" d="M9.84,26.32c-.16-.16-.31-.33-.45-.5l-6.93,1.8c-2.37.73-2.66,3.96-.46,5.1l.67.35c1.81.94,3.29,2.42,4.23,4.23l.35.67c1.14,2.2,4.38,1.91,5.1-.46l1.8-6.93c-.17-.14-.34-.29-.5-.45l-3.81-3.81Z"/><path class="cls-1" d="M9.69,39.98c-1.22,0-2.31-.66-2.88-1.76l-.35-.67c-.9-1.73-2.29-3.12-4.02-4.02l-.67-.35c-1.2-.62-1.87-1.85-1.75-3.2.12-1.35,1-2.43,2.3-2.83l6.95-1.81c.19-.05.39.02.52.17.13.16.26.31.41.46l3.81,3.81c.15.15.3.28.46.41.15.12.22.33.17.52l-1.8,6.93c-.4,1.31-1.49,2.19-2.83,2.32-.11,0-.21.01-.31.01ZM9.21,26.39l-6.63,1.72c-1.05.32-1.51,1.22-1.57,1.96-.07.73.22,1.7,1.21,2.22l.67.35c1.92.99,3.45,2.53,4.44,4.44l.35.67c.52,1,1.48,1.28,2.22,1.21.73-.07,1.63-.52,1.96-1.59l1.72-6.61c-.1-.09-.2-.18-.29-.27l-3.81-3.81c-.1-.1-.19-.19-.27-.29Z"/><path class="cls-1" d="M37.31,6.9c-1.81-.94-3.29-2.42-4.23-4.23l-.35-.67c-1.14-2.2-4.38-1.91-5.1.46l-1.8,6.93c.17.14.34.29.5.45l3.81,3.81c.16.16.31.33.45.5l6.93-1.8c2.37-.73,2.66-3.96.46-5.1l-.67-.35Z"/><path class="cls-1" d="M30.59,14.65c-.15,0-.29-.07-.39-.19-.13-.16-.26-.31-.41-.46l-3.81-3.81c-.15-.15-.3-.28-.46-.41-.15-.12-.22-.33-.17-.52l1.8-6.93c.4-1.32,1.49-2.2,2.84-2.32,1.35-.13,2.57.55,3.2,1.75l.35.67c.9,1.73,2.29,3.12,4.02,4.02h0l.67.35c1.2.62,1.87,1.85,1.75,3.2-.12,1.35-1,2.43-2.3,2.83l-6.95,1.81s-.08.02-.13.02ZM26.39,9.21c.1.09.2.18.29.27l3.81,3.81c.1.09.19.19.27.29l6.63-1.72c1.05-.32,1.51-1.22,1.57-1.96.07-.73-.22-1.7-1.21-2.22l-.67-.35c-1.91-.99-3.45-2.53-4.44-4.44l-.35-.67c-.52-1-1.49-1.28-2.22-1.21-.73.07-1.63.52-1.96,1.59l-1.72,6.61Z"/><path class="cls-1" d="M20.55,31.8c-.06,0-.12-.01-.18-.03-.12-.05-.22-.14-.28-.27l-7.36-16.94c-.08-.19-.04-.41.11-.55l4.61-4.61c.56-.56,1.23-1.02,1.97-1.35.12-.05.26-.06.38,0,.12.05.22.14.28.27l7.36,16.94c.08.19.04.41-.1.55l-4.61,4.61c-.56.56-1.23,1.02-1.97,1.35-.06.03-.13.04-.2.04ZM13.78,14.46l7.02,16.15c.45-.25.86-.56,1.22-.92l4.37-4.37-7.02-16.15c-.45.25-.86.56-1.22.92l-4.37,4.37Z"/><path class="cls-1" d="M17.96,32.42c-1.69,0-3.38-.64-4.67-1.93l-3.81-3.81c-1.25-1.25-1.93-2.9-1.93-4.67s.69-3.42,1.93-4.67l7.86-7.86c1.25-1.25,2.9-1.93,4.67-1.93s3.42.69,4.67,1.93l3.81,3.81c2.57,2.57,2.57,6.76,0,9.33h0l-7.86,7.86c-1.29,1.29-2.98,1.93-4.67,1.93ZM22.01,8.55c-1.5,0-2.9.58-3.96,1.64l-7.86,7.86c-1.06,1.06-1.64,2.46-1.64,3.96s.58,2.9,1.64,3.96l3.81,3.81c2.18,2.18,5.73,2.18,7.92,0l7.86-7.86c2.18-2.18,2.18-5.73,0-7.92l-3.81-3.81c-1.06-1.06-2.46-1.64-3.96-1.64Z"/></g></svg>