<?xml version="1.0" encoding="UTF-8"?><svg id="Layer_2" xmlns="http://www.w3.org/2000/svg" viewBox="0 0 44.8 39.3"><defs><style>.cls-1{fill:#185a1b;}</style></defs><g id="Layer_1-2"><path class="cls-1" d="M37.37,39.3H7.53c-.28,0-.5-.22-.5-.5v-19.1c0-.28.22-.5.5-.5s.5.22.5.5v18.6h28.84v-18.63c0-.28.22-.5.5-.5s.5.22.5.5v19.13c0,.28-.22.5-.5.5Z"/><polygon class="cls-1" points="44.3 18.33 22.41 .5 22.4 .51 22.39 .5 .5 18.33 3.71 22.28 22.4 7.05 41.09 22.28 44.3 18.33"/><path class="cls-1" d="M3.71,22.78c-.15,0-.29-.06-.39-.18L.11,18.65c-.08-.1-.12-.23-.11-.37.01-.13.08-.25.18-.34L22.08.11c.13-.1.29-.13.44-.1.08.02.15.05.21.1l21.89,17.83c.21.17.25.49.07.7l-3.21,3.94c-.08.1-.21.17-.34.18-.13.02-.26-.03-.37-.11L22.4,7.7,4.03,22.66c-.09.08-.2.11-.32.11ZM1.2,18.41l2.58,3.17L22.09,6.66c.18-.15.45-.15.63,0l18.3,14.91,2.58-3.17L22.4,1.14,1.2,18.41Z"/><path class="cls-1" d="M22.45,34.88c-3.45,0-6.26-2.81-6.26-6.26s5.6-12.11,5.83-12.48c.18-.29.66-.29.84,0,.24.37,5.83,9.19,5.83,12.48,0,3.45-2.81,6.26-6.26,6.26ZM22.45,17.35c-1.78,2.89-5.26,8.98-5.26,11.27,0,2.9,2.36,5.26,5.26,5.26s5.26-2.36,5.26-5.26c0-2.29-3.47-8.38-5.26-11.27Z"/><path class="cls-1" d="M22.4,34.88c-.28,0-.5-.22-.5-.5v-17.97c0-.28.22-.5.5-.5s.5.22.5.5v17.97c0,.28-.22.5-.5.5Z"/><path class="cls-1" d="M22.45,31.58c-.16,0-.31-.07-.41-.21-.16-.22-.11-.54.12-.7l3.41-2.44c.22-.16.54-.11.7.12.16.22.11.54-.12.7l-3.41,2.44c-.09.06-.19.09-.29.09Z"/><path class="cls-1" d="M22.45,25.89c-.16,0-.31-.07-.41-.21-.16-.22-.11-.54.12-.7l2.19-1.57c.23-.16.54-.11.7.12.16.22.11.54-.12.7l-2.19,1.57c-.09.06-.19.09-.29.09Z"/><path class="cls-1" d="M22.4,28.9c-.1,0-.2-.03-.29-.09l-3.02-2.16c-.22-.16-.28-.47-.12-.7.16-.22.47-.28.7-.12l3.02,2.16c.22.16.28.47.12.7-.1.14-.25.21-.41.21Z"/></g></svg>