<?xml version="1.0" encoding="UTF-8"?><svg id="Layer_2" xmlns="http://www.w3.org/2000/svg" viewBox="0 0 27.03 41.69"><defs><style>.cls-1{fill:#185a1b;}</style></defs><g id="Layer_1-2"><path class="cls-1" d="M22.49,33.6H4.54c-.55,0-1.01-.42-1.07-.97L0,3.11c-.02-.14.03-.28.12-.39.1-.11.23-.17.37-.17h26.02c.14,0,.28.06.37.17.09.11.14.25.12.39l-3.47,29.54c-.05.54-.51.96-1.07.96ZM1.06,3.55l3.4,28.98.07.07h17.95s.07-.07.07-.07l3.4-28.98H1.06Z"/><path class="cls-1" d="M26.52,3.55H.5C.22,3.55,0,3.33,0,3.05V.5C0,.22.22,0,.5,0h26.02c.28,0,.5.22.5.5v2.55c0,.28-.22.5-.5.5ZM1,2.55h25.02v-1.55H1v1.55Z"/><path class="cls-1" d="M6.77,33.1h13.48c1.19,0,2.16.97,2.16,2.16v5.93H4.61v-5.93c0-1.19.97-2.16,2.16-2.16Z" transform="translate(27.02 74.3) rotate(180)"/><path class="cls-1" d="M20.25,41.69H6.77c-1.47,0-2.66-1.19-2.66-2.66v-5.93c0-.28.22-.5.5-.5h17.8c.28,0,.5.22.5.5v5.93c0,1.47-1.19,2.66-2.66,2.66ZM5.11,33.6v5.43c0,.92.75,1.66,1.66,1.66h13.48c.92,0,1.66-.75,1.66-1.66v-5.43H5.11Z"/><path class="cls-1" d="M18.5,33.6c-.28,0-.5-.22-.5-.5s.22-.5.5-.5c.04,0,.07-.03.07-.06l3.27-27.04c.03-.27.3-.47.56-.44.27.03.47.28.44.56l-3.27,27.03c-.05.54-.51.95-1.06.95Z"/><path class="cls-1" d="M18.43,39.53c-.28,0-.5-.22-.5-.5v-4.45c0-.28.22-.5.5-.5s.5.22.5.5v4.45c0,.28-.22.5-.5.5Z"/></g></svg>