<?xml version="1.0" encoding="UTF-8"?><svg id="Layer_2" xmlns="http://www.w3.org/2000/svg" viewBox="0 0 42.55 41.53"><defs><style>.cls-1{fill:#185a1b;}</style></defs><g id="Layer_1-2"><path class="cls-1" d="M17.3,21.93c-.05,0-.1,0-.15-.02l-6.61-2.1c-.26-.08-.41-.36-.33-.63.08-.26.36-.41.63-.33l5.96,1.89v-11.35c0-1.3-.59-2.51-1.61-3.32L8.9,1.14,2.61,6.08c-1.02.81-1.61,2.01-1.61,3.32v11.35l5.95-1.89c.27-.08.54.06.63.33.08.26-.06.54-.33.63l-6.61,2.1c-.15.05-.32.02-.45-.07-.13-.09-.2-.24-.2-.4v-12.03c0-1.61.73-3.11,1.99-4.1L8.59.11c.18-.14.44-.14.62,0l6.6,5.19c1.27,1,1.99,2.49,1.99,4.1v12.03c0,.16-.08.31-.2.4-.09.06-.19.1-.3.1Z"/><path class="cls-1" d="M10.69,24.08h-3.59c-.28,0-.5-.22-.5-.5v-8.12c0-1.09.89-1.97,1.97-1.97h.64c1.09,0,1.97.89,1.97,1.97v8.12c0,.28-.22.5-.5.5ZM7.61,23.08h2.59v-7.62c0-.54-.44-.97-.97-.97h-.64c-.54,0-.97.44-.97.97v7.62Z"/><path class="cls-1" d="M12.26,23.58h-6.72l-.58,13.61c-.11,2.09,1.69,3.83,3.94,3.83s4.05-1.74,3.94-3.83l-.58-13.61ZM8.9,38.55c-.89,0-1.61-.72-1.61-1.61s.72-1.61,1.61-1.61,1.61.72,1.61,1.61-.72,1.61-1.61,1.61Z"/><path class="cls-1" d="M8.9,41.53c-1.27,0-2.48-.51-3.33-1.4-.78-.82-1.17-1.87-1.12-2.96l.58-13.61c.01-.27.23-.48.5-.48h6.72c.27,0,.49.21.5.48l.58,13.61c.06,1.09-.34,2.14-1.12,2.96-.84.89-2.06,1.4-3.33,1.4ZM6.02,24.08l-.56,13.13c-.04.82.26,1.61.84,2.22.66.69,1.6,1.09,2.6,1.09s1.94-.4,2.6-1.08c.59-.62.89-1.4.84-2.22l-.56-13.14h-5.76ZM8.9,39.05c-1.17,0-2.11-.95-2.11-2.12s.95-2.11,2.11-2.11,2.11.95,2.11,2.11-.95,2.12-2.11,2.12ZM8.9,35.82c-.61,0-1.11.5-1.11,1.11s.5,1.12,1.11,1.12,1.11-.5,1.11-1.12-.5-1.11-1.11-1.11Z"/><path class="cls-1" d="M35.45,24.08h-3.59c-.28,0-.5-.22-.5-.5v-3.23l-2.99-.22c-2.02-.15-3.61-1.85-3.61-3.88V3.91c0-.15,0-.6,1.89-3.13.19-.25.61-.25.8,0,1.89,2.52,1.89,2.98,1.89,3.13v11.66h2.02V4.01c0-.41.64-1.49,1.89-3.23.19-.26.62-.26.81,0,1.25,1.73,1.89,2.82,1.89,3.23v11.56h2.02V3.84c0-.15,0-.6,1.9-3.07.09-.12.24-.2.4-.2h0c.16,0,.3.07.4.2,1.9,2.47,1.9,2.92,1.9,3.07v12.41c0,2.03-1.59,3.74-3.61,3.88l-2.99.22v3.23c0,.28-.22.5-.5.5ZM32.36,23.08h2.59v-3.2c0-.26.2-.48.46-.5l3.46-.25c1.5-.11,2.68-1.38,2.68-2.89V3.84c-.06-.19-.66-1.08-1.29-1.93-.63.86-1.24,1.75-1.3,1.99v12.17c0,.28-.22.5-.49.5h-3.02c-.28,0-.5-.22-.5-.5V4.01c-.05-.21-.66-1.15-1.29-2.07-.64.92-1.24,1.87-1.3,2.12v12.01c0,.28-.22.5-.5.5h-3.02c-.28,0-.5-.22-.5-.5V3.91c-.06-.2-.66-1.11-1.29-1.99-.64.88-1.24,1.79-1.3,2.04v12.29c0,1.51,1.18,2.78,2.69,2.89l3.46.25c.26.02.46.24.46.5v3.2Z"/><path class="cls-1" d="M37.01,23.58h-6.72l-.58,13.61c-.11,2.09,1.69,3.83,3.94,3.83s4.05-1.74,3.94-3.83l-.58-13.61ZM33.65,38.55c-.89,0-1.61-.72-1.61-1.61s.72-1.61,1.61-1.61,1.61.72,1.61,1.61-.72,1.61-1.61,1.61Z"/><path class="cls-1" d="M33.65,41.53c-1.27,0-2.48-.51-3.33-1.4-.78-.82-1.17-1.87-1.12-2.96l.58-13.61c.01-.27.23-.48.5-.48h6.72c.27,0,.49.21.5.48l.58,13.61c.06,1.09-.34,2.14-1.12,2.96-.84.89-2.06,1.4-3.33,1.4ZM30.77,24.08l-.56,13.13c-.04.82.26,1.61.84,2.22.66.69,1.6,1.09,2.6,1.09s1.95-.4,2.6-1.09c.59-.62.88-1.4.84-2.22l-.56-13.14h-5.76ZM33.65,39.05c-1.17,0-2.11-.95-2.11-2.12s.95-2.11,2.11-2.11,2.11.95,2.11,2.11-.95,2.12-2.11,2.12ZM33.65,35.82c-.61,0-1.11.5-1.11,1.11s.5,1.12,1.11,1.12,1.11-.5,1.11-1.12-.5-1.11-1.11-1.11Z"/></g></svg>