<?xml version="1.0" encoding="UTF-8"?><svg id="Layer_2" xmlns="http://www.w3.org/2000/svg" viewBox="0 0 46.77 41.21"><defs><style>.cls-1{fill:#185a1b;}</style></defs><g id="Layer_1-2"><path class="cls-1" d="M34.27,41.21h-8.98c-.28,0-.5-.22-.5-.5v-2.22c-.12-.59-.95-5.39,1.88-8.36,1.83-1.92,3.49-2.67,4.7-3.21.67-.3,1.2-.54,1.53-.88l3.55-3.55c.89-.89,2.39-.98,3.37-.24l1.68-2.52c-.02-.54-.04-2.34.26-4.79.17-1.35.69-2.32,1.56-2.89,1.35-.89,3.01-.41,3.08-.39.21.06.36.26.36.48l-.05,9.15c0,.06-.01.12-.03.17l-2.78,7.38c-.02.07-.06.13-.11.18l-8.3,8.3c-.67.67-.68,1.14-.68,1.15l-.04,2.25c0,.27-.23.49-.5.49ZM25.79,40.21h7.99l.03-1.74s-.03-.86.97-1.86l8.22-8.22,2.71-7.2.05-8.65c-.45-.06-1.25-.08-1.89.34-.61.4-.98,1.13-1.11,2.17-.35,2.81-.25,4.77-.25,4.79,0,.11-.02.21-.08.3l-1.91,2.88c.23.39.35.83.35,1.3,0,.69-.27,1.34-.76,1.83l-4.92,4.92c-.2.2-.51.2-.71,0s-.2-.51,0-.71l4.92-4.92c.3-.3.46-.7.46-1.12s-.16-.82-.46-1.12c-.6-.6-1.64-.6-2.24,0l-3.55,3.55c-.46.46-1.1.75-1.83,1.08-1.2.54-2.69,1.21-4.39,3-2.59,2.71-1.63,7.47-1.62,7.52,0,.03.01.07.01.1v1.77Z"/><path class="cls-1" d="M21.48,41.21h-8.98c-.27,0-.5-.22-.5-.49l-.04-2.23s-.01-.5-.68-1.17L2.98,29.02c-.05-.05-.09-.11-.11-.18L.08,21.47c-.02-.06-.03-.11-.03-.17L0,12.14c0-.22.15-.42.36-.48.07-.02,1.73-.49,3.08.39.87.57,1.39,1.54,1.56,2.89.31,2.46.28,4.25.27,4.79l1.68,2.52c1.01-.76,2.46-.68,3.37.24l3.55,3.55c.33.33.86.57,1.53.88,1.21.55,2.87,1.29,4.7,3.21,2.83,2.97,2,7.77,1.88,8.36v2.22c0,.28-.22.5-.5.5ZM12.99,40.21h7.99v-1.77s0-.07.01-.1c.01-.05.97-4.8-1.62-7.52-1.7-1.78-3.19-2.45-4.39-3-.73-.33-1.37-.62-1.83-1.08l-3.55-3.55c-.62-.62-1.62-.62-2.24,0-.3.3-.46.7-.46,1.12s.16.82.46,1.12l4.92,4.92c.2.2.2.51,0,.71-.2.2-.51.2-.71,0l-4.92-4.92c-.49-.49-.76-1.14-.76-1.83,0-.46.12-.91.35-1.3l-1.91-2.88c-.06-.09-.09-.2-.08-.3,0-.02.1-1.98-.25-4.79-.13-1.04-.5-1.77-1.11-2.17-.65-.43-1.44-.4-1.89-.34l.05,8.65,2.71,7.2,8.22,8.22c1,1,.98,1.82.97,1.91l.03,1.69Z"/><path class="cls-1" d="M30.3,15.25c0,3.82-3.1,6.91-6.91,6.91s-6.91-3.1-6.91-6.91S23.39.5,23.39.5c0,0,6.91,10.93,6.91,14.75Z"/><path class="cls-1" d="M23.39,22.66c-4.09,0-7.41-3.33-7.41-7.41S22.68.68,22.96.23c.09-.14.25-.23.42-.23h0c.17,0,.33.09.42.23.29.45,6.99,11.1,6.99,15.02s-3.33,7.41-7.41,7.41ZM23.39,1.45c-1.49,2.43-6.41,10.7-6.41,13.8,0,3.54,2.88,6.41,6.41,6.41s6.41-2.88,6.41-6.41c0-3.1-4.92-11.37-6.41-13.8Z"/><path class="cls-1" d="M23.39,26.86c-.28,0-.5-.22-.5-.5V.5c0-.28.22-.5.5-.5s.5.22.5.5v25.86c0,.28-.22.5-.5.5Z"/><path class="cls-1" d="M23.39,18.67c-.13,0-.26-.05-.35-.15-.2-.2-.2-.51,0-.71l3.94-3.94c.2-.2.51-.2.71,0s.2.51,0,.71l-3.94,3.94c-.1.1-.23.15-.35.15Z"/><path class="cls-1" d="M23.05,15c-.13,0-.26-.05-.35-.15l-2.98-2.98c-.2-.2-.2-.51,0-.71s.51-.2.71,0l2.98,2.98c.2.2.2.51,0,.71-.1.1-.23.15-.35.15Z"/></g></svg>