<?xml version="1.0" encoding="UTF-8"?><svg id="Layer_2" xmlns="http://www.w3.org/2000/svg" viewBox="0 0 37.67 40.17"><defs><style>.cls-1{fill:#185a1b;}</style></defs><g id="Layer_1-2"><path class="cls-1" d="M30.67,40.17c-1.87,0-3.63-.73-4.95-2.05-1.32-1.32-2.05-3.08-2.05-4.95s.73-3.63,2.05-4.95c1.32-1.32,3.08-2.05,4.95-2.05s3.63.73,4.95,2.05c1.32,1.32,2.05,3.08,2.05,4.95s-.73,3.63-2.05,4.95c-1.32,1.32-3.08,2.05-4.95,2.05ZM30.67,27.17c-1.6,0-3.11.62-4.24,1.76-1.13,1.13-1.76,2.64-1.76,4.24s.62,3.11,1.76,4.24c1.13,1.13,2.64,1.76,4.24,1.76s3.11-.62,4.24-1.76c1.13-1.13,1.76-2.64,1.76-4.24s-.62-3.11-1.76-4.24h0c-1.13-1.13-2.64-1.76-4.24-1.76Z"/><path class="cls-1" d="M26.08,38.27c-.13,0-.26-.05-.35-.15-.2-.2-.2-.51,0-.71l9.19-9.19c.2-.2.51-.2.71,0s.2.51,0,.71l-9.19,9.19c-.1.1-.23.15-.35.15Z"/><path class="cls-1" d="M10.1,34.77c-2.7,0-5.23-1.05-7.14-2.96-1.91-1.91-2.96-4.44-2.96-7.14s1.05-5.23,2.96-7.14L17.52,2.96c1.91-1.91,4.44-2.96,7.14-2.96s5.23,1.05,7.14,2.96,2.96,4.44,2.96,7.14-1.05,5.23-2.96,7.14l-14.56,14.56c-1.91,1.91-4.44,2.96-7.14,2.96ZM24.67,1c-2.43,0-4.72.95-6.44,2.67L3.67,18.23c-1.72,1.72-2.67,4-2.67,6.44s.95,4.72,2.67,6.44,4,2.67,6.44,2.67,4.72-.95,6.44-2.67l14.56-14.56h0c1.72-1.72,2.67-4,2.67-6.44s-.95-4.72-2.67-6.44-4-2.67-6.44-2.67Z"/><path class="cls-1" d="M3.31,17.88c-3.75,3.75-3.75,9.83,0,13.58s9.83,3.75,13.58,0l7.28-7.28-13.58-13.58-7.28,7.28Z"/><path class="cls-1" d="M10.1,34.77c-2.7,0-5.23-1.05-7.14-2.96-1.91-1.91-2.96-4.44-2.96-7.14s1.05-5.23,2.96-7.14l7.28-7.28c.2-.2.51-.2.71,0l13.58,13.58c.2.2.2.51,0,.71l-7.28,7.28c-1.91,1.91-4.44,2.96-7.14,2.96ZM10.59,11.3l-6.93,6.93c-1.72,1.72-2.67,4-2.67,6.44s.95,4.72,2.67,6.44,4,2.67,6.44,2.67,4.72-.95,6.44-2.67l6.93-6.93-12.87-12.87Z"/><path class="cls-1" d="M10.02,31.19c-.27,0-.49-.21-.5-.48-.01-.28.2-.51.48-.52,1.96-.09,3.8-.91,5.18-2.3l12.7-12.7c.2-.2.51-.2.71,0,.2.2.2.51,0,.71l-12.7,12.7c-1.56,1.56-3.64,2.48-5.84,2.59,0,0-.02,0-.02,0Z"/></g></svg>