<?xml version="1.0" encoding="UTF-8"?><svg id="Layer_2" xmlns="http://www.w3.org/2000/svg" viewBox="0 0 29.71 36.69"><defs><style>.cls-1{fill:#185a1b;}</style></defs><g id="Layer_1-2"><path class="cls-1" d="M25.53,36.69H4.18c-2.3,0-4.18-1.87-4.18-4.18V0h29.71v32.51c0,2.3-1.87,4.18-4.18,4.18ZM1,1v31.51c0,1.75,1.42,3.18,3.18,3.18h21.36c1.75,0,3.18-1.43,3.18-3.18V1H1Z"/><path class="cls-1" d="M4.83,19.47c.76,0,1.48.15,2.15.41.85-3.13,3.7-5.43,7.1-5.43,2.37,0,4.47,1.12,5.81,2.86.49-.16,1.01-.25,1.55-.25,2.07,0,3.84,1.27,4.57,3.07.58-.41,1.29-.66,2.06-.66.4,0,.78.08,1.14.2v12.84c0,2.03-1.65,3.68-3.68,3.68H4.18c-2.03,0-3.68-1.65-3.68-3.68v-11.11c1.07-1.18,2.61-1.93,4.33-1.93Z"/><path class="cls-1" d="M25.53,36.69H4.18c-2.3,0-4.18-1.87-4.18-4.18v-11.11c0-.12.05-.24.13-.34,1.62-1.79,4.22-2.52,6.52-1.82,1.09-3.14,4.07-5.29,7.42-5.29,2.33,0,4.49,1.01,5.99,2.78.45-.12.91-.18,1.37-.18,2.02,0,3.85,1.11,4.79,2.86.94-.48,1.99-.61,3.14-.22.2.07.34.26.34.47v12.84c0,2.3-1.87,4.18-4.18,4.18ZM1,21.6v10.92c0,1.75,1.42,3.18,3.18,3.18h21.36c1.75,0,3.18-1.43,3.18-3.18v-12.46c-.91-.21-1.72,0-2.41.49-.12.09-.28.12-.43.07-.15-.04-.27-.15-.32-.29-.68-1.68-2.3-2.76-4.11-2.76-.47,0-.94.08-1.39.23-.2.07-.42,0-.55-.17-1.31-1.69-3.29-2.66-5.42-2.66-3.08,0-5.81,2.08-6.62,5.06-.04.14-.13.25-.26.32-.13.06-.28.07-.41.02-1.99-.79-4.32-.27-5.79,1.25Z"/><path class="cls-1" d="M29.21,7.14H.5c-.28,0-.5-.22-.5-.5s.22-.5.5-.5h28.71c.28,0,.5.22.5.5s-.22.5-.5.5Z"/><path class="cls-1" d="M29.21,4.87H10.9c-.28,0-.5-.22-.5-.5s.22-.5.5-.5h18.31c.28,0,.5.22.5.5s-.22.5-.5.5Z"/><path class="cls-1" d="M14.18,29.38c-.28,0-.5-.22-.5-.5s.22-.5.5-.5c3.7,0,6.71-3.01,6.71-6.71,0-.28.22-.5.5-.5s.5.22.5.5c0,4.25-3.46,7.71-7.71,7.71Z"/><path class="cls-1" d="M8.35,33.55h0c-1.21,0-2.34-.48-3.19-1.33-.85-.85-1.32-1.99-1.31-3.19,0-.28.22-.5.5-.5h0c.28,0,.5.23.5.5,0,.94.36,1.82,1.02,2.49.66.67,1.54,1.03,2.48,1.04.28,0,.5.23.5.5,0,.28-.22.5-.5.5Z"/></g></svg>