<?xml version="1.0" encoding="UTF-8"?><svg id="Layer_2" xmlns="http://www.w3.org/2000/svg" viewBox="0 0 49.36 35.93"><defs><style>.cls-1{fill:#185a1b;}</style></defs><g id="Layer_1-2"><path class="cls-1" d="M11.67,35.93c-3.19,0-5.79-2.59-5.79-5.79s2.59-5.78,5.79-5.78,5.78,2.59,5.78,5.78-2.59,5.79-5.78,5.79ZM11.67,25.36c-2.64,0-4.79,2.15-4.79,4.78s2.15,4.79,4.79,4.79,4.78-2.15,4.78-4.79-2.15-4.78-4.78-4.78ZM11.67,32.95c-1.55,0-2.81-1.26-2.81-2.81s1.26-2.8,2.81-2.8,2.8,1.26,2.8,2.8-1.26,2.81-2.8,2.81ZM11.67,28.34c-1,0-1.81.81-1.81,1.8s.81,1.81,1.81,1.81,1.8-.81,1.8-1.81-.81-1.8-1.8-1.8Z"/><path class="cls-1" d="M39.92,35.93c-3.19,0-5.79-2.59-5.79-5.79s2.59-5.78,5.79-5.78,5.79,2.59,5.79,5.78-2.59,5.79-5.79,5.79ZM39.92,25.36c-2.64,0-4.79,2.15-4.79,4.78s2.15,4.79,4.79,4.79,4.79-2.15,4.79-4.79-2.15-4.78-4.79-4.78ZM39.92,32.95c-1.55,0-2.81-1.26-2.81-2.81s1.26-2.8,2.81-2.8,2.81,1.26,2.81,2.8-1.26,2.81-2.81,2.81ZM39.92,28.34c-1,0-1.81.81-1.81,1.8s.81,1.81,1.81,1.81,1.81-.81,1.81-1.81-.81-1.8-1.81-1.8Z"/><path class="cls-1" d="M47.08,30.65h-1.87c-.28,0-.5-.22-.5-.5s.22-.5.5-.5h1.87c.34,0,1.29-.89,1.29-1.29v-5.92c0-7.62-5.44-14.14-12.94-15.5l-4.2-.94c-.27-.06-.44-.33-.38-.6.06-.27.33-.44.6-.38l4.18.94c7.96,1.44,13.75,8.38,13.75,16.48v5.92c0,.99-1.44,2.29-2.29,2.29ZM34.64,30.65h-3.31c-.28,0-.5-.22-.5-.5s.22-.5.5-.5h3.31c.28,0,.5.22.5.5s-.22.5-.5.5Z"/><path class="cls-1" d="M45.21,21.12h-10.3c-.28,0-.5-.22-.5-.5v-10.03c0-.15.06-.28.17-.38.11-.1.26-.14.4-.11l2.21.34c4.94.9,8.52,5.18,8.52,10.19,0,.28-.22.5-.5.5ZM35.41,20.12h9.29c-.23-4.31-3.38-7.92-7.67-8.7l-1.62-.25v8.95Z"/><path class="cls-1" d="M30.73,30.65h-13.59c-.28,0-.5-.22-.5-.5s.22-.5.5-.5h13.59c.05,0,.09-.04.09-.09V1.1c0-.05-.04-.1-.09-.1H1.09c-.05,0-.09.04-.09.1v28.46c0,.05.04.09.09.09h5.05c.28,0,.5.22.5.5s-.22.5-.5.5H1.09c-.6,0-1.09-.49-1.09-1.09V1.1C0,.49.49,0,1.09,0h29.64c.6,0,1.09.49,1.09,1.1v28.46c0,.6-.49,1.09-1.09,1.09Z"/><polygon class="cls-1" points="10.14 15.76 4.84 10.31 10.14 4.85 10.14 8.36 18.38 8.36 18.38 12.25 10.14 12.25 10.14 15.76"/><path class="cls-1" d="M10.14,16.26c-.13,0-.26-.05-.36-.15l-5.3-5.46c-.19-.19-.19-.5,0-.7l5.3-5.46c.14-.15.36-.19.55-.11.19.08.31.26.31.46v3.01h7.74c.28,0,.5.22.5.5v3.89c0,.28-.22.5-.5.5h-7.74v3.01c0,.2-.12.39-.31.46-.06.02-.12.04-.19.04ZM5.54,10.31l4.1,4.22v-2.28c0-.28.22-.5.5-.5h7.74v-2.89h-7.74c-.28,0-.5-.22-.5-.5v-2.28l-4.1,4.22Z"/><polygon class="cls-1" points="21.46 23.3 21.46 19.79 13.23 19.79 13.23 15.9 21.46 15.9 21.46 12.39 26.77 17.85 21.46 23.3"/><path class="cls-1" d="M21.46,23.81c-.06,0-.13-.01-.19-.04-.19-.08-.31-.26-.31-.46v-3.01h-7.74c-.28,0-.5-.22-.5-.5v-3.89c0-.28.22-.5.5-.5h7.74v-3.01c0-.2.12-.39.31-.46.19-.08.41-.03.55.11l5.3,5.46c.19.19.19.5,0,.7l-5.3,5.46c-.1.1-.23.15-.36.15ZM13.73,19.29h7.74c.28,0,.5.22.5.5v2.28l4.11-4.22-4.11-4.22v2.28c0,.28-.22.5-.5.5h-7.74v2.89Z"/></g></svg>