<?xml version="1.0" encoding="UTF-8"?><svg id="Layer_2" xmlns="http://www.w3.org/2000/svg" viewBox="0 0 20 42.77"><defs><style>.cls-1{fill:#185a1b;}</style></defs><g id="Layer_1-2"><path class="cls-1" d="M17.92,42.77H2.08c-1.15,0-2.08-.93-2.08-2.08v-11.62c0-1.41.76-2.73,1.98-3.44l1.79-1.04c.58-.33.94-.96.94-1.62v-.75c0-.28.22-.5.5-.5s.5.22.5.5v.75c0,1.02-.55,1.98-1.44,2.49l-1.79,1.04c-.91.53-1.48,1.51-1.48,2.57v11.62c0,.6.48,1.08,1.08,1.08h15.84c.6,0,1.08-.48,1.08-1.08v-11.62c0-1.06-.57-2.04-1.48-2.57l-1.79-1.04c-.89-.51-1.44-1.47-1.44-2.49v-.75c0-.28.22-.5.5-.5s.5.22.5.5v.75c0,.67.36,1.29.94,1.62l1.79,1.04c1.22.71,1.98,2.02,1.98,3.44v11.62c0,1.15-.93,2.08-2.08,2.08Z"/><path class="cls-1" d="M19.5,31.08v9.61c0,.87-.71,1.58-1.58,1.58H2.08c-.87,0-1.58-.71-1.58-1.58v-9.61h19Z"/><path class="cls-1" d="M17.92,42.77H2.08c-1.15,0-2.08-.93-2.08-2.08v-9.61c0-.28.22-.5.5-.5h19c.28,0,.5.22.5.5v9.61c0,1.15-.93,2.08-2.08,2.08ZM1,31.58v9.11c0,.6.48,1.08,1.08,1.08h15.84c.6,0,1.08-.48,1.08-1.08v-9.11H1Z"/><path class="cls-1" d="M13.88,12.62h-7.77V3.88c0-2.14,1.74-3.88,3.89-3.88s3.88,1.74,3.88,3.88v8.73ZM7.11,11.62h5.77V3.88c0-1.59-1.29-2.88-2.88-2.88s-2.89,1.29-2.89,2.88v7.73Z"/><path class="cls-1" d="M10,37.28c-1.56,0-2.42-3.32-2.42-4.42v-11.04h4.84v11.04c0,1.1-.86,4.42-2.42,4.42ZM8.58,22.82v10.04c0,1.21.92,3.42,1.42,3.42s1.42-2.2,1.42-3.42v-10.04h-2.84Z"/><path class="cls-1" d="M14.64,22.73H5.36c-1.1,0-2-.9-2-1.99v-7.12c0-1.1.89-2,2-2h9.28c1.1,0,2,.9,2,2v7.12c0,1.1-.89,1.99-2,1.99ZM5.36,12.62c-.55,0-1,.45-1,1v7.12c0,.55.45.99,1,.99h9.28c.55,0,1-.45,1-.99v-7.12c0-.55-.45-1-1-1H5.36Z"/><path class="cls-1" d="M11.87,19.65h-7.58c-.28,0-.5-.22-.5-.5s.22-.5.5-.5h7.58c.28,0,.5.22.5.5s-.22.5-.5.5Z"/></g></svg>