<?xml version="1.0" encoding="UTF-8"?><svg id="Layer_2" xmlns="http://www.w3.org/2000/svg" viewBox="0 0 27.42 44.62"><defs><style>.cls-1{fill:#185a1b;}</style></defs><g id="Layer_1-2"><path class="cls-1" d="M25.75,31.99H1.67c-.28,0-.5-.22-.5-.5v-3.24c0-.28.22-.5.5-.5h24.08c.28,0,.5.22.5.5v3.24c0,.28-.22.5-.5.5ZM2.17,30.99h23.08v-2.24H2.17v2.24Z"/><path class="cls-1" d="M20.5,44.62H6.92c-1.28,0-2.35-.92-2.54-2.18l-1.75-10.87c-.02-.14.02-.29.11-.4.09-.11.23-.18.38-.18h21.16c.15,0,.29.06.38.18.1.11.14.26.11.4l-1.75,10.88c-.19,1.26-1.26,2.18-2.54,2.18ZM3.72,31.99l1.65,10.3c.12.78.77,1.34,1.55,1.34h13.57c.78,0,1.43-.56,1.55-1.33l1.66-10.3H3.72Z"/><path class="cls-1" d="M20.16,42.34s-.05,0-.08,0c-.27-.04-.46-.3-.41-.57l1.3-8.08c.04-.27.3-.46.57-.42.27.04.46.3.41.57l-1.3,8.08c-.04.25-.25.42-.49.42Z"/><path class="cls-1" d="M13.71,20.87C20.13,9.71,13.71.49,13.71.49c0,0-6.42,9.23,0,20.38Z"/><path class="cls-1" d="M13.71,21.37c-.18,0-.34-.1-.43-.25-6.5-11.3-.04-20.82.02-20.92.19-.27.63-.27.82,0,.07.09,6.53,9.62.02,20.92-.09.16-.25.25-.43.25ZM13.71,1.46c-1.24,2.24-4.57,9.67,0,18.38,4.58-8.72,1.24-16.15,0-18.38Z"/><path class="cls-1" d="M13.71,21.3C9.9,11.19.5,10.42.5,10.42c0,0,2.55,9.08,13.21,10.88Z"/><path class="cls-1" d="M13.71,21.8s-.06,0-.08,0C2.78,19.97.04,10.65.02,10.56c-.04-.16,0-.33.1-.45.1-.13.26-.19.43-.18.1,0,9.77.91,13.64,11.2.06.17.03.36-.08.49-.1.12-.24.18-.39.18ZM1.26,11.05c.86,2.09,3.89,7.91,11.65,9.59C9.76,13.34,3.48,11.48,1.26,11.05Z"/><path class="cls-1" d="M13.71,21.4c-7.25-2.43-11.87,2.39-11.87,2.39,0,0,6.13,2.66,11.87-2.39Z"/><path class="cls-1" d="M5.79,24.97c-2.43,0-4.12-.71-4.16-.72-.15-.07-.26-.2-.29-.36-.03-.16.02-.33.13-.44.05-.05,4.92-5.02,12.39-2.52.17.06.3.2.33.38.04.18-.03.36-.16.47-2.9,2.54-5.91,3.2-8.25,3.2ZM2.81,23.59c1.67.48,5.76,1.15,9.86-1.98-4.99-1.3-8.5.9-9.86,1.98Z"/><path class="cls-1" d="M13.71,21.3c3.8-10.11,13.21-10.88,13.21-10.88,0,0-2.55,9.08-13.21,10.88Z"/><path class="cls-1" d="M13.71,21.8c-.15,0-.29-.07-.39-.18-.11-.14-.14-.33-.08-.49,3.87-10.29,13.54-11.19,13.64-11.2.17-.01.32.05.43.18.1.13.14.29.1.45-.03.09-2.76,9.41-13.61,11.23-.03,0-.06,0-.08,0ZM26.16,11.05c-2.22.44-8.5,2.3-11.64,9.59,7.75-1.68,10.79-7.49,11.64-9.59Z"/><path class="cls-1" d="M13.71,21.4c7.25-2.43,11.87,2.39,11.87,2.39,0,0-6.13,2.66-11.87-2.39Z"/><path class="cls-1" d="M21.63,24.97c-2.33,0-5.35-.65-8.25-3.2-.13-.12-.2-.3-.16-.47.04-.18.16-.32.33-.38,7.47-2.51,12.34,2.47,12.39,2.52.11.12.16.28.13.44-.03.16-.14.29-.29.36-.03.01-1.72.72-4.16.72ZM14.75,21.61c4.1,3.13,8.19,2.46,9.86,1.98-1.35-1.08-4.87-3.29-9.86-1.98Z"/><path class="cls-1" d="M13.71,28.75c-.28,0-.5-.22-.5-.5v-6.42c0-.28.22-.5.5-.5s.5.22.5.5v6.42c0,.28-.22.5-.5.5Z"/><path class="cls-1" d="M16.56,26.2c-.16,0-.32-.08-.42-.23l-2.85-4.39c-.15-.23-.08-.54.15-.69.23-.15.54-.08.69.15l2.85,4.39c.15.23.08.54-.15.69-.08.05-.18.08-.27.08Z"/><path class="cls-1" d="M10.86,26.2c-.09,0-.19-.03-.27-.08-.23-.15-.3-.46-.15-.69l2.85-4.39c.15-.23.46-.3.69-.15.23.15.3.46.15.69l-2.85,4.39c-.1.15-.26.23-.42.23Z"/></g></svg>