<?xml version="1.0" encoding="UTF-8"?><svg id="Layer_2" xmlns="http://www.w3.org/2000/svg" viewBox="0 0 53.34 42.05"><defs><style>.cls-1{fill:#185a1b;}</style></defs><g id="Layer_1-2"><path class="cls-1" d="M28.25,25.4h-6.67c-.28,0-.5-.22-.5-.5s.22-.5.5-.5h6.67c.28,0,.5.22.5.5s-.22.5-.5.5Z"/><path class="cls-1" d="M32.35,25.4h-1.71c-.28,0-.5-.22-.5-.5s.22-.5.5-.5h1.71c.28,0,.5.22.5.5s-.22.5-.5.5Z"/><path class="cls-1" d="M28.25,28.9h-6.67c-.28,0-.5-.22-.5-.5s.22-.5.5-.5h6.67c.28,0,.5.22.5.5s-.22.5-.5.5Z"/><path class="cls-1" d="M32.35,28.9h-1.71c-.28,0-.5-.22-.5-.5s.22-.5.5-.5h1.71c.28,0,.5.22.5.5s-.22.5-.5.5Z"/><path class="cls-1" d="M45.75,39.28c-.28,0-.5-.22-.5-.5V12.2c0-.18-.15-.34-.33-.34H8.48c-.18,0-.34.15-.34.34v26.58c0,.28-.22.5-.5.5s-.5-.22-.5-.5V12.2c0-.74.6-1.34,1.34-1.34h36.44c.74,0,1.33.6,1.33,1.34v26.58c0,.28-.22.5-.5.5Z"/><path class="cls-1" d="M42.88,37.09H10.52c-.68,0-1.24-.56-1.24-1.24V14.29c0-.68.56-1.24,1.24-1.24h32.37c.68,0,1.24.56,1.24,1.24v21.56c0,.68-.56,1.24-1.24,1.24ZM10.52,14.05c-.13,0-.24.11-.24.24v21.56c0,.13.11.24.24.24h32.37c.13,0,.24-.11.24-.24V14.29c0-.13-.11-.24-.24-.24H10.52Z"/><path class="cls-1" d="M50.12,42.05H3.27c-.84,0-1.6-.42-2.04-1.13l-1.1-1.88c-.09-.15-.09-.35,0-.5.09-.16.25-.25.43-.25h19.21c.16,0,.31.07.4.2.33.43.84.69,1.37.69h10.31c.53,0,1.05-.26,1.37-.69.09-.12.24-.2.4-.2h19.21c.18,0,.34.1.43.25.09.16.09.35,0,.5l-1.09,1.87c-.45.72-1.22,1.14-2.05,1.14ZM1.43,39.28l.65,1.12c.25.4.7.65,1.19.65h46.85c.49,0,.94-.25,1.2-.66l.65-1.11h-18.11c-.51.56-1.25.89-2.01.89h-10.31c-.76,0-1.49-.33-2.01-.89H1.43Z"/><path class="cls-1" d="M16.66,13.52H2.89c-1.32,0-2.39.98-2.39,2.18v11.01c0,1.2,1.07,2.18,2.39,2.18h13.76c1.32,0,2.39-.98,2.39-2.18v-11.01c0-1.2-1.07-2.18-2.39-2.18Z"/><path class="cls-1" d="M16.66,29.39H2.89c-1.6,0-2.89-1.2-2.89-2.68v-11.01c0-1.48,1.3-2.68,2.89-2.68h13.76c1.59,0,2.89,1.2,2.89,2.68v11.01c0,1.48-1.3,2.68-2.89,2.68ZM2.89,14.02c-1.04,0-1.89.75-1.89,1.68v11.01c0,.93.85,1.68,1.89,1.68h13.76c1.04,0,1.89-.75,1.89-1.68v-11.01c0-.93-.85-1.68-1.89-1.68H2.89Z"/><path class="cls-1" d="M11.77,24.72l-1.27-3.77c.49-.28.82-.76.82-1.32,0-.86-.78-1.56-1.75-1.56s-1.75.7-1.75,1.56c0,.56.33,1.04.82,1.32l-1.27,3.77h4.4Z"/><path class="cls-1" d="M11.77,25.22h-4.4c-.16,0-.31-.08-.41-.21-.09-.13-.12-.3-.07-.45l1.15-3.41c-.46-.39-.73-.93-.73-1.51,0-1.14,1.01-2.06,2.25-2.06s2.25.92,2.25,2.06c0,.58-.27,1.13-.73,1.51l1.15,3.42c.05.15.03.32-.07.45-.09.13-.25.21-.41.21ZM8.07,24.22h3l-1.05-3.11c-.08-.23.02-.48.23-.59.35-.2.57-.53.57-.88,0-.58-.56-1.06-1.25-1.06s-1.25.48-1.25,1.06c0,.35.21.68.57.88.21.12.31.37.23.6l-1.05,3.11Z"/><path class="cls-1" d="M13.46,13.52v-6.26c0-2.18-1.77-3.95-3.95-3.95s-3.95,1.77-3.95,3.95v6.26h-2.5v-6.57C3.06,3.39,5.95.5,9.51.5s6.45,2.89,6.45,6.45v6.57h-2.5Z"/><path class="cls-1" d="M15.96,14.02h-2.5c-.28,0-.5-.22-.5-.5v-6.25c0-1.9-1.55-3.45-3.45-3.45s-3.45,1.55-3.45,3.45v6.25c0,.28-.22.5-.5.5h-2.5c-.28,0-.5-.22-.5-.5v-6.57C2.56,3.12,5.68,0,9.51,0s6.95,3.12,6.95,6.95v6.57c0,.28-.22.5-.5.5ZM13.96,13.02h1.5v-6.07c0-3.28-2.67-5.95-5.95-5.95S3.56,3.67,3.56,6.95v6.07h1.5v-5.75c0-2.46,2-4.45,4.45-4.45s4.45,2,4.45,4.45v5.75Z"/></g></svg>