<?xml version="1.0" encoding="UTF-8"?><svg id="Layer_2" xmlns="http://www.w3.org/2000/svg" viewBox="0 0 35.94 45.02"><defs><style>.cls-1{fill:#185a1b;}</style></defs><g id="Layer_1-2"><path class="cls-1" d="M31.49,16.6c-2.09,2.83-6.08,3.44-8.91,1.35-2.83-2.09-3.44-6.07-1.35-8.91,2.09-2.83,14.2-8.54,14.2-8.54,0,0-1.86,13.26-3.95,16.1Z"/><path class="cls-1" d="M26.35,19.69c-1.42,0-2.84-.43-4.07-1.34-3.05-2.25-3.7-6.56-1.46-9.61C22.97,5.84,34.73.28,35.23.05c.17-.08.36-.06.51.05.15.11.22.29.2.47-.08.55-1.9,13.42-4.04,16.33h0c-1.35,1.83-3.43,2.79-5.54,2.79ZM34.81,1.36c-2.77,1.35-11.49,5.7-13.17,7.98-1.92,2.61-1.36,6.29,1.24,8.21,2.6,1.92,6.29,1.36,8.21-1.24,1.67-2.28,3.25-11.89,3.72-14.94Z"/><path class="cls-1" d="M14.48,9.04c2.27,2.27,2.28,5.94,0,8.22-2.27,2.27-5.94,2.28-8.21,0S.5,3.29.5,3.29c0,0,11.71,3.48,13.98,5.74Z"/><path class="cls-1" d="M10.38,19.46c-1.68,0-3.26-.65-4.46-1.84C3.59,15.29.17,3.92.02,3.43c-.05-.18,0-.37.13-.5.13-.13.32-.18.5-.13.48.14,11.86,3.54,14.19,5.87,2.46,2.46,2.47,6.46,0,8.92-1.19,1.19-2.77,1.85-4.46,1.85h0ZM1.25,4.04c1.3,4.2,3.77,11.26,5.38,12.86,1,1,2.33,1.55,3.75,1.55h0c1.42,0,2.75-.55,3.75-1.56,2.07-2.07,2.06-5.44,0-7.51-1.8-1.8-10.11-4.49-12.87-5.34Z"/><path class="cls-1" d="M31.21,29.71H8.32c-.28,0-.5-.22-.5-.5v-3.92c0-.28.22-.5.5-.5h22.88c.28,0,.5.22.5.5v3.92c0,.28-.22.5-.5.5ZM8.82,28.71h21.88v-2.92H8.82v2.92Z"/><path class="cls-1" d="M24.84,45.02h-10.16c-1.5,0-2.75-1.08-2.97-2.56l-2.12-13.17c-.02-.14.02-.29.11-.4.1-.11.23-.18.38-.18h19.35c.15,0,.29.06.38.18.09.11.14.26.11.4l-2.12,13.17c-.22,1.48-1.47,2.55-2.97,2.55ZM10.68,29.71l2.03,12.6c.15.99.98,1.71,1.98,1.71h10.16c1,0,1.83-.72,1.98-1.71l2.03-12.6H10.68Z"/><path class="cls-1" d="M24.44,42.26s-.05,0-.08,0c-.27-.04-.46-.3-.42-.57l1.57-9.79c.04-.27.31-.45.57-.42.27.04.46.3.42.57l-1.57,9.79c-.04.25-.25.42-.49.42Z"/><path class="cls-1" d="M19.36,23.18c-.13,0-.26-.05-.36-.15L1.44,4.88c-.19-.2-.19-.51.01-.71.2-.19.52-.19.71.01l17.15,17.72L35.03.21c.16-.22.48-.27.7-.11.22.16.27.48.11.7l-16.08,22.18c-.09.12-.22.19-.37.21-.01,0-.02,0-.04,0Z"/></g></svg>