<?xml version="1.0" encoding="UTF-8"?><svg id="Layer_2" xmlns="http://www.w3.org/2000/svg" viewBox="0 0 42 42.38"><defs><style>.cls-1{fill:#185a1b;}</style></defs><g id="Layer_1-2"><path class="cls-1" d="M26.16,42.38h-2.37c-2.42,0-4.73-1.04-6.33-2.85-1.6-1.81-2.35-4.23-2.05-6.64l.54-3.39c-.2-.13-.4-.27-.6-.41l-9.38,7.31c-.11.09-.26.12-.4.1-.14-.03-.27-.12-.34-.24l-1.18-2.05c-1.21-2.1-1.46-4.62-.69-6.91.77-2.3,2.49-4.15,4.72-5.1l3.33-1.27c0-.22.02-.43.04-.64L.31,15.78c-.13-.05-.24-.16-.28-.3-.05-.14-.03-.29.04-.41l1.19-2.05c1.21-2.1,3.27-3.57,5.64-4.06,2.37-.48,4.84.08,6.77,1.54l2.66,2.16c.21-.12.43-.24.66-.35L15.34.57c-.02-.14.02-.29.12-.4.09-.11.23-.17.38-.17h2.37c2.42,0,4.73,1.04,6.33,2.85,1.6,1.81,2.35,4.23,2.05,6.63l-.5,3.12c.27.15.54.32.79.5l9.14-7.13c.11-.09.26-.12.4-.1.14.03.27.12.34.24l1.19,2.05c1.21,2.1,1.46,4.62.69,6.91-.77,2.29-2.49,4.15-4.72,5.1l-2.83,1.08c0,.34-.02.68-.06,1.02l10.64,4.31c.13.05.24.16.28.3.05.14.03.29-.04.41l-1.18,2.05c-1.21,2.1-3.27,3.58-5.64,4.06-2.37.48-4.84-.08-6.77-1.54l-2.46-1.99c-.27.15-.55.28-.83.39l1.61,11.53c.02.14-.02.29-.12.4-.09.11-.23.17-.38.17ZM15.35,27.95c.11,0,.22.04.32.11.34.27.7.53,1.08.75.18.1.27.31.24.51l-.59,3.71c-.26,2.1.4,4.23,1.81,5.83,1.41,1.6,3.45,2.52,5.58,2.52h1.79l-1.58-11.35c-.03-.23.1-.46.32-.54.46-.17.92-.39,1.35-.64.18-.1.4-.08.57.04l2.71,2.2c1.69,1.28,3.87,1.77,5.96,1.35,2.09-.42,3.9-1.73,4.97-3.58l.9-1.55-10.47-4.24c-.21-.09-.34-.31-.31-.54.07-.44.1-.89.1-1.34v-.18c-.01-.21.12-.48.31-.55l3.14-1.2c1.95-.83,3.47-2.46,4.14-4.49.68-2.02.46-4.24-.61-6.09l-.9-1.55-8.98,7c-.18.14-.43.14-.61,0-.4-.3-.83-.57-1.28-.81-.19-.1-.3-.31-.26-.52l.55-3.45c.26-2.1-.4-4.23-1.81-5.83-1.41-1.6-3.45-2.52-5.58-2.52h-1.79l1.61,11.54c.03.22-.09.44-.3.53-.41.18-.8.39-1.18.62-.18.11-.41.1-.58-.04l-2.92-2.37c-1.69-1.28-3.87-1.77-5.96-1.35-2.09.42-3.9,1.73-4.97,3.58l-.9,1.55,10.94,4.43c.21.09.34.3.31.53-.05.39-.08.79-.08,1.16,0,.21-.13.47-.32.54l-3.63,1.39c-1.95.83-3.47,2.46-4.14,4.49-.68,2.02-.46,4.24.61,6.09l.9,1.55,9.24-7.2c.09-.07.2-.11.31-.11ZM21.25,28.42c-3.99,0-7.23-3.24-7.23-7.23s3.24-7.23,7.23-7.23,7.23,3.24,7.23,7.23-3.24,7.23-7.23,7.23ZM21.25,14.96c-3.44,0-6.23,2.8-6.23,6.23s2.8,6.23,6.23,6.23,6.23-2.8,6.23-6.23-2.8-6.23-6.23-6.23Z"/><path class="cls-1" d="M21.25,17.1c-2.26,0-4.09,1.83-4.09,4.09s1.83,4.09,4.09,4.09,4.09-1.83,4.09-4.09-1.83-4.09-4.09-4.09Z"/><path class="cls-1" d="M21.25,25.78c-2.53,0-4.59-2.06-4.59-4.59s2.06-4.59,4.59-4.59,4.59,2.06,4.59,4.59-2.06,4.59-4.59,4.59ZM21.25,17.6c-1.98,0-3.59,1.61-3.59,3.59s1.61,3.59,3.59,3.59,3.59-1.61,3.59-3.59-1.61-3.59-3.59-3.59Z"/></g></svg>