<?xml version="1.0" encoding="UTF-8"?><svg id="Layer_1" xmlns="http://www.w3.org/2000/svg" viewBox="0 0 8233.01 1542.58"><defs><style>.cls-1,.cls-2{fill:#185a1b;}.cls-3{letter-spacing:-.02em;}.cls-4{letter-spacing:-.02em;}.cls-5{letter-spacing:-.02em;}.cls-2{font-family:BioSans-Bold, 'Bio Sans';font-size:1296px;font-weight:700;}</style></defs><text class="cls-2" transform="translate(1355.22 1213.4)"><tspan class="cls-3" x="0" y="0">D</tspan><tspan class="cls-4" x="803.52" y="0">A</tspan><tspan class="cls-3" x="1570.74" y="0">NK</tspan><tspan class="cls-5" x="3203.68" y="0">D</tspan><tspan class="cls-3" x="4005.9" y="0">EA</tspan><tspan class="cls-5" x="5506.64" y="0">L</tspan><tspan x="6148.15" y="0">S</tspan></text><path class="cls-1" d="M448.17,386.45c.03-3.88.02-7.76-.04-11.65-.18,0-.36-.02-.54-.04-.05,4.18-.04,8.38.09,12.56h.05c.14-.29.29-.58.44-.87Z"/><path class="cls-1" d="M1264.51,343.23c-14.82-15.1-76.47-8.81-98.48-8.81-24.5,0-77.12,0-147.67,0,1.67,17.59.82,35.27-.19,52.92h189.98c-1.86,10.36-5.13,20.73-7.8,30.95l-74.72,276.65c-10.87,43.13-38.36,40.76-79.41,42.61l-583.43,29.75c-22.24,1.36-44.3,3.23-66.61,2.88-.77-10.95-4.98-22.88-7.72-33.61l-20.82-78.16c-23.66-90.41-46.38-181.08-71.79-271.07,28.84-.74,57.94,0,86.81,0h48.99c-.13-9.87.83-19.72,2.27-29.53-1.31-.81-1.98-2.61-1.24-4.13.89-1.83,1.82-3.65,2.78-5.46.8-4.65,1.67-9.29,2.54-13.92-28.7,0-57.14,0-85.08,0-23.79,0-47.72.52-71.49,0-2.06-13.5-6.32-27-9.89-40.23l-18.58-67.83c-16.58-60.51-11.52-81.62-92.9-81.54l-108.79.02c-8.57,0-17.71-.65-26.19.05-25.62,4.07-34.95,35.63-11.96,49.5,11.42,6.89,30.67,4.28,43.55,4.26l101.18.02c9.71.06,19.57.59,29.26-.07l169.64,644.61c4.96,18.93,9.11,38.3,14.76,57.04,6.92,22.96,16.38,23.15,40.75,23.58,58.1,1.04,116.38.11,174.5.1h460.89c12.16,0,58.91,1.8,68.06-1.06,25.11-7.85,27.99-40.4,1.79-49.59-12.43-4.36-100.76-2.29-122.91-2.29l-514.16.02c-18.71.02-38.15,1.76-56.7,0-3.61-11.85-12.84-37.92-12.97-49.06l.55-.79c19.75.73,39.25-.71,58.95-1.89l585.39-28.66c79.73-4.21,106.62-15.26,128.49-96.09l80.98-297.01c4.76-18.05,15.02-38.22-.6-54.13Z"/><path class="cls-1" d="M941.09,978.96c1.97-.25,3.94-.46,5.92-.62,1.98-.16,3.96-.27,5.95-.35,1.99-.07,3.97-.09,5.96-.07,1.99.02,3.97.09,5.96.2,1.98.11,3.96.27,5.94.47,1.97.2,3.94.45,5.9.74,1.96.29,3.92.63,5.86,1.01,1.94.38,3.88.81,5.8,1.28,1.92.47,3.83.99,5.73,1.55,1.89.56,3.77,1.16,5.63,1.8,1.86.64,3.71,1.33,5.53,2.06,1.83.73,3.63,1.5,5.42,2.31,1.79.81,3.55,1.66,5.29,2.56,1.74.89,3.46,1.82,5.15,2.8,1.69.97,3.36,1.98,4.99,3.03,1.64,1.05,3.25,2.13,4.83,3.26,1.58,1.12,3.13,2.28,4.65,3.47,1.52,1.19,3.01,2.42,4.46,3.68,1.45,1.26,2.87,2.55,4.26,3.88,1.39,1.33,2.74,2.68,4.05,4.07,1.31,1.39,2.59,2.8,3.83,4.25,1.24,1.45,2.44,2.92,3.6,4.42,1.16,1.5,2.28,3.03,3.36,4.58,1.08,1.55,2.12,3.13,3.11,4.73,1,1.6,1.95,3.22,2.86,4.87.91,1.64,1.77,3.31,2.6,4.99.82,1.68,1.6,3.39,2.33,5.11.73,1.72,1.42,3.45,2.06,5.2.64,1.75,1.23,3.51,1.78,5.29.55,1.78,1.05,3.57,1.5,5.37.45,1.8.86,3.61,1.22,5.43.36,1.82.66,3.65.92,5.48.26,1.83.47,3.67.63,5.51.16,1.84.28,3.69.34,5.54.07,1.85.08,3.7.05,5.54-.03,1.85-.11,3.7-.24,5.54-.13,1.84-.31,3.68-.54,5.52-.23,1.84-.5,3.67-.83,5.49-.33,1.82-.7,3.64-1.12,5.44-.42,1.81-.89,3.6-1.4,5.39-.52,1.78-1.08,3.56-1.69,5.32-.61,1.76-1.26,3.51-1.97,5.24-.7,1.73-1.45,3.44-2.24,5.14-.79,1.7-1.63,3.37-2.51,5.03-.88,1.66-1.81,3.29-2.77,4.91-.97,1.62-1.98,3.21-3.03,4.78-1.05,1.57-2.14,3.11-3.28,4.63-1.13,1.52-2.31,3.01-3.52,4.47-1.21,1.47-2.46,2.9-3.75,4.31-1.29,1.41-2.61,2.78-3.97,4.13-1.36,1.35-2.76,2.66-4.19,3.95-1.43,1.28-2.89,2.53-4.39,3.75-1.5,1.22-3.03,2.4-4.59,3.54-1.56,1.14-3.15,2.25-4.77,3.33-1.62,1.07-3.26,2.11-4.94,3.11-1.67,1-3.37,1.96-5.1,2.87-1.73.92-3.47,1.8-5.24,2.64-1.77.84-3.56,1.64-5.37,2.39-1.81.76-3.65,1.47-5.5,2.15-1.85.67-3.72,1.31-5.6,1.89s-3.78,1.13-5.7,1.63c-1.91.5-3.84.96-5.77,1.37-1.94.41-3.89.78-5.84,1.1-1.96.32-3.92.6-5.89.84-1.96.23-3.92.42-5.89.56-1.97.14-3.94.24-5.91.29-1.97.05-3.95.06-5.92.02-1.98-.04-3.95-.12-5.92-.25-1.97-.13-3.94-.3-5.9-.52-1.96-.22-3.92-.48-5.86-.78-1.95-.31-3.89-.66-5.82-1.05-1.93-.39-3.85-.83-5.75-1.31-1.91-.48-3.8-1.01-5.68-1.57-1.88-.57-3.74-1.18-5.59-1.83-1.85-.65-3.68-1.35-5.49-2.08-1.81-.73-3.6-1.51-5.37-2.33-1.77-.82-3.52-1.67-5.24-2.57-1.72-.9-3.42-1.83-5.1-2.81-1.68-.97-3.32-1.98-4.95-3.03-1.62-1.05-3.21-2.13-4.78-3.26-1.56-1.12-3.1-2.28-4.6-3.47-1.51-1.19-2.98-2.42-4.42-3.67-1.44-1.26-2.84-2.55-4.21-3.87-1.37-1.32-2.71-2.67-4.01-4.06-1.3-1.38-2.56-2.79-3.79-4.24-1.23-1.44-2.41-2.91-3.56-4.4-1.15-1.5-2.26-3.02-3.33-4.56-1.07-1.55-2.09-3.12-3.08-4.71-.99-1.59-1.93-3.21-2.83-4.84-.9-1.64-1.76-3.29-2.57-4.97-.81-1.67-1.58-3.37-2.31-5.08-.73-1.71-1.41-3.43-2.04-5.18-.64-1.74-1.22-3.49-1.77-5.26-.54-1.77-1.04-3.55-1.49-5.34-.45-1.79-.85-3.59-1.2-5.4-.35-1.81-.66-3.62-.92-5.44-.26-1.82-.47-3.65-.63-5.48-.16-1.83-.28-3.67-.34-5.5-.07-1.84-.09-3.67-.06-5.51.03-1.84.11-3.67.24-5.51.13-1.83.3-3.67.53-5.49.22-1.83.49-3.65.81-5.46.32-1.81.69-3.62,1.1-5.42.41-1.8.88-3.58,1.38-5.36.51-1.78,1.06-3.54,1.66-5.29.6-1.75,1.25-3.49,1.94-5.21.69-1.72,1.43-3.43,2.21-5.11.78-1.69,1.61-3.36,2.48-5.01.87-1.65,1.78-3.28,2.74-4.89.95-1.61,1.95-3.19,2.99-4.76,1.04-1.56,2.12-3.1,3.24-4.62,1.12-1.51,2.28-3,3.48-4.46,1.2-1.46,2.43-2.89,3.71-4.3,1.27-1.41,2.58-2.78,3.93-4.13,1.35-1.34,2.73-2.66,4.14-3.94,1.41-1.28,2.86-2.53,4.35-3.75,1.48-1.22,2.99-2.4,4.53-3.55,1.54-1.15,3.11-2.26,4.72-3.33,1.6-1.08,3.23-2.12,4.89-3.12,1.66-1,3.34-1.96,5.04-2.89,1.71-.92,3.44-1.81,5.19-2.66,1.75-.85,3.53-1.65,5.32-2.42,1.8-.77,3.61-1.49,5.45-2.17,1.83-.68,3.68-1.32,5.55-1.92,1.87-.6,3.75-1.15,5.64-1.67,1.9-.51,3.81-.98,5.73-1.41,1.92-.43,3.85-.81,5.79-1.14,1.94-.34,3.89-.63,5.85-.88ZM961.39,1149.12c1.02-.06,2.04-.14,3.06-.25,1.02-.1,2.03-.23,3.04-.39,1.01-.15,2.02-.33,3.02-.52,1-.2,2-.42,2.99-.66.99-.24,1.98-.51,2.95-.8.98-.29,1.95-.6,2.91-.93.96-.33,1.91-.68,2.85-1.06.94-.38,1.87-.77,2.8-1.19.92-.42,1.83-.85,2.73-1.31.9-.46,1.78-.94,2.66-1.44.87-.5,1.73-1.02,2.58-1.55.85-.54,1.68-1.1,2.49-1.67.82-.58,1.62-1.17,2.41-1.78.79-.61,1.55-1.24,2.31-1.89.75-.65,1.49-1.31,2.21-1.99.72-.68,1.42-1.38,2.1-2.09.68-.71,1.34-1.44,1.99-2.18.64-.74,1.27-1.5,1.87-2.27.61-.77,1.19-1.56,1.75-2.35.56-.8,1.1-1.6,1.62-2.43.52-.82,1.02-1.65,1.5-2.5.48-.84.93-1.7,1.36-2.56.43-.86.84-1.74,1.23-2.62.39-.88.75-1.77,1.09-2.67.34-.9.66-1.8.95-2.72.29-.91.56-1.83.8-2.76.24-.93.46-1.86.66-2.79.2-.94.37-1.88.51-2.82.15-.94.27-1.89.36-2.84.1-.95.17-1.9.21-2.85.05-.95.07-1.91.07-2.86,0-.95-.03-1.91-.09-2.86-.05-.95-.13-1.9-.24-2.85-.1-.95-.23-1.89-.38-2.84-.15-.94-.33-1.88-.53-2.82-.2-.93-.43-1.86-.68-2.79-.25-.92-.53-1.84-.82-2.75-.3-.91-.62-1.82-.97-2.71-.35-.9-.72-1.79-1.11-2.67s-.81-1.75-1.25-2.61c-.44-.86-.9-1.71-1.38-2.55-.48-.84-.99-1.67-1.52-2.49-.53-.82-1.08-1.62-1.64-2.42-.57-.79-1.16-1.57-1.77-2.34-.61-.77-1.24-1.52-1.89-2.25s-1.32-1.46-2-2.17c-.69-.71-1.39-1.4-2.12-2.07-.72-.68-1.47-1.33-2.22-1.97-.76-.64-1.53-1.27-2.32-1.87-.79-.61-1.6-1.2-2.42-1.77-.82-.57-1.66-1.12-2.51-1.65-.85-.53-1.71-1.05-2.59-1.54-.88-.49-1.77-.96-2.67-1.41-.9-.45-1.82-.88-2.74-1.3-.93-.41-1.86-.8-2.81-1.17-.95-.37-1.9-.72-2.86-1.04-.96-.33-1.93-.63-2.91-.91-.98-.28-1.96-.54-2.96-.78-.99-.24-1.99-.45-2.99-.64-1-.19-2.01-.36-3.03-.5-1.01-.15-2.03-.27-3.05-.37-1.02-.1-2.04-.17-3.06-.23-1.02-.05-2.05-.08-3.07-.09-1.02,0-2.05.01-3.07.05-1.38.05-2.76.15-4.14.29-1.38.14-2.75.32-4.11.54-1.36.22-2.72.49-4.06.8-1.34.3-2.67.65-3.99,1.04-1.32.39-2.63.82-3.92,1.28-1.29.47-2.56.98-3.81,1.52-1.25.55-2.49,1.13-3.7,1.75-1.21.62-2.4,1.28-3.57,1.97-1.17.69-2.31,1.42-3.42,2.19-1.12.77-2.2,1.56-3.26,2.39-1.06.83-2.08,1.69-3.08,2.59-1,.89-1.96,1.82-2.89,2.77-.93.95-1.83,1.93-2.69,2.94-.86,1.01-1.69,2.04-2.48,3.1-.79,1.06-1.54,2.14-2.25,3.25-.71,1.1-1.39,2.23-2.02,3.37-.63,1.14-1.22,2.31-1.77,3.49-.55,1.18-1.06,2.38-1.52,3.59-.46,1.21-.89,2.44-1.26,3.68-.38,1.24-.71,2.49-1,3.75-.29,1.26-.54,2.53-.74,3.8-.2,1.28-.35,2.55-.47,3.84-.11,1.28-.17,2.57-.19,3.86-.02,1.29,0,2.58.08,3.86.07,1.29.19,2.57.35,3.85.16,1.28.37,2.55.62,3.82.25,1.27.55,2.52.9,3.77.34,1.25.73,2.48,1.16,3.71.43,1.22.9,2.43,1.42,3.63s1.07,2.37,1.67,3.53c.6,1.16,1.24,2.3,1.92,3.42.68,1.12,1.4,2.22,2.16,3.3.76,1.08,1.55,2.13,2.39,3.16.83,1.03,1.7,2.03,2.6,3.01.9.98,1.84,1.92,2.81,2.84.97.92,1.97,1.81,3,2.66,1.03.86,2.1,1.68,3.19,2.47,1.09.79,2.21,1.55,3.36,2.27,1.15.72,2.32,1.41,3.51,2.06,1.2.65,2.41,1.27,3.65,1.84,1.24.58,2.49,1.12,3.77,1.62,1.28.5,2.57.96,3.88,1.38,1.31.42,2.63.8,3.96,1.14,1.34.34,2.68.64,4.04.89,1.36.26,2.72.47,4.09.65,1.37.17,2.75.3,4.13.39,1.38.09,2.76.14,4.15.14,1.38,0,2.77-.03,4.15-.12Z"/><path class="cls-1" d="M496.79,978.38c1.97-.13,3.95-.21,5.93-.24,1.98-.04,3.95-.03,5.93.03,1.98.05,3.95.15,5.92.3,1.97.15,3.94.34,5.9.57,1.96.23,3.92.51,5.86.84,1.95.33,3.89.69,5.81,1.11,1.93.41,3.84.87,5.74,1.37,1.9.5,3.79,1.04,5.67,1.63,1.87.59,3.73,1.22,5.57,1.89,1.84.67,3.66,1.39,5.47,2.14,1.8.76,3.59,1.55,5.35,2.39,1.76.84,3.5,1.71,5.21,2.63,1.71.92,3.4,1.87,5.07,2.86,1.66.99,3.3,2.02,4.91,3.09,1.61,1.07,3.19,2.17,4.74,3.31,1.55,1.14,3.07,2.32,4.56,3.53,1.49,1.21,2.95,2.45,4.37,3.73,1.43,1.28,2.82,2.59,4.17,3.93,1.36,1.34,2.68,2.71,3.96,4.11s2.53,2.83,3.74,4.29c1.21,1.46,2.37,2.94,3.51,4.45,1.13,1.51,2.22,3.05,3.26,4.61,1.05,1.56,2.05,3.14,3.02,4.75.97,1.61,1.89,3.23,2.77,4.88.88,1.65,1.71,3.32,2.5,5.01.79,1.69,1.54,3.39,2.24,5.11.7,1.72,1.36,3.46,1.96,5.21.61,1.75,1.17,3.51,1.69,5.29.52,1.78.99,3.56,1.41,5.36.42,1.8.8,3.6,1.12,5.42.33,1.81.6,3.64.83,5.46.23,1.83.41,3.66.54,5.5s.22,3.67.25,5.51c.04,1.84.02,3.68-.04,5.52-.06,1.84-.17,3.68-.33,5.51-.16,1.83-.36,3.66-.62,5.49-.25,1.83-.56,3.64-.91,5.45-.35,1.81-.75,3.61-1.19,5.41-.44,1.79-.94,3.57-1.48,5.34s-1.13,3.53-1.76,5.27c-.63,1.74-1.31,3.47-2.03,5.18-.72,1.71-1.49,3.41-2.31,5.08-.81,1.68-1.67,3.34-2.57,4.98-.9,1.64-1.84,3.25-2.83,4.85-.99,1.59-2.01,3.17-3.08,4.72-1.07,1.55-2.18,3.07-3.33,4.57-1.15,1.5-2.34,2.97-3.56,4.41-1.23,1.44-2.49,2.86-3.8,4.24-1.3,1.38-2.64,2.74-4.01,4.06-1.37,1.32-2.78,2.62-4.22,3.88-1.44,1.26-2.91,2.49-4.42,3.68-1.51,1.19-3.05,2.35-4.61,3.47-1.57,1.12-3.16,2.21-4.79,3.26-1.63,1.05-3.28,2.06-4.95,3.03-1.68.97-3.38,1.91-5.11,2.8-1.73.9-3.48,1.75-5.25,2.57-1.77.82-3.57,1.59-5.38,2.33-1.81.73-3.65,1.43-5.49,2.08-1.85.65-3.72,1.26-5.6,1.82-1.88.56-3.78,1.08-5.69,1.56-1.91.48-3.83.91-5.76,1.31-1.93.39-3.87.74-5.83,1.04-1.95.3-3.91.56-5.87.77-1.97.21-3.93.38-5.91.5-1.97.12-3.95.2-5.92.23-1.97.03-3.95.02-5.92-.04-1.97-.06-3.95-.16-5.92-.31-1.97-.15-3.93-.34-5.89-.58-1.96-.24-3.91-.52-5.86-.84-1.94-.33-3.88-.7-5.8-1.11-1.92-.42-3.84-.88-5.74-1.38-1.9-.5-3.79-1.05-5.66-1.64-1.87-.59-3.73-1.22-5.57-1.89-1.84-.67-3.66-1.39-5.46-2.15-1.8-.76-3.58-1.55-5.34-2.39-1.76-.84-3.49-1.71-5.2-2.63-1.71-.92-3.4-1.87-5.06-2.87-1.66-.99-3.3-2.02-4.9-3.09-1.61-1.07-3.19-2.18-4.74-3.32-1.55-1.14-3.07-2.32-4.55-3.52-1.49-1.21-2.94-2.45-4.36-3.73-1.42-1.28-2.81-2.58-4.16-3.92-1.35-1.34-2.67-2.71-3.95-4.11-1.28-1.4-2.53-2.83-3.73-4.28-1.2-1.46-2.37-2.94-3.5-4.45-1.13-1.51-2.21-3.04-3.26-4.6-1.05-1.56-2.05-3.14-3.01-4.75-.96-1.61-1.88-3.23-2.76-4.88-.88-1.65-1.71-3.31-2.5-5-.79-1.69-1.53-3.39-2.23-5.11-.7-1.72-1.35-3.45-1.96-5.2-.61-1.75-1.17-3.51-1.69-5.28-.51-1.77-.98-3.56-1.4-5.36-.42-1.8-.79-3.6-1.12-5.41-.33-1.81-.6-3.63-.83-5.46-.23-1.83-.41-3.66-.54-5.49-.13-1.83-.22-3.67-.25-5.51-.04-1.84-.02-3.67.04-5.51.06-1.84.17-3.67.33-5.51.16-1.83.36-3.66.62-5.48.25-1.82.56-3.64.9-5.45.35-1.81.75-3.61,1.19-5.4.44-1.79.94-3.57,1.47-5.34.54-1.77,1.13-3.52,1.76-5.27.63-1.74,1.31-3.47,2.03-5.18.72-1.71,1.49-3.41,2.3-5.08.81-1.68,1.67-3.33,2.56-4.97.9-1.64,1.84-3.25,2.83-4.85.99-1.59,2.01-3.16,3.08-4.71,1.07-1.55,2.18-3.07,3.32-4.56,1.15-1.5,2.33-2.97,3.56-4.41,1.22-1.44,2.49-2.86,3.79-4.24,1.3-1.38,2.63-2.74,4-4.06,1.37-1.32,2.78-2.62,4.21-3.88,1.44-1.26,2.91-2.49,4.41-3.68,1.5-1.19,3.04-2.35,4.6-3.47,1.56-1.12,3.16-2.21,4.78-3.26,1.62-1.05,3.27-2.06,4.95-3.04,1.68-.97,3.38-1.91,5.1-2.81,1.72-.9,3.47-1.75,5.24-2.57,1.77-.82,3.56-1.59,5.37-2.33,1.81-.73,3.64-1.43,5.49-2.08,1.85-.65,3.71-1.26,5.59-1.83,1.88-.57,3.77-1.09,5.68-1.57,1.91-.48,3.83-.91,5.76-1.31,1.93-.39,3.87-.74,5.82-1.04,1.95-.3,3.9-.56,5.87-.78,1.96-.22,3.93-.39,5.9-.51ZM510.63,1148.56c1.02-.09,2.04-.2,3.06-.33,1.02-.13,2.03-.29,3.04-.47,1.01-.18,2.01-.38,3.01-.61,1-.23,1.99-.47,2.98-.74.99-.27,1.96-.56,2.93-.88.97-.31,1.93-.65,2.88-1.01.95-.36,1.89-.74,2.83-1.14.93-.4,1.85-.82,2.76-1.27s1.81-.91,2.69-1.39c.89-.48,1.76-.99,2.62-1.51.86-.52,1.7-1.07,2.53-1.63.83-.56,1.65-1.14,2.45-1.74.8-.6,1.58-1.22,2.35-1.85.77-.64,1.52-1.29,2.25-1.96.73-.67,1.45-1.36,2.14-2.06.7-.7,1.38-1.42,2.04-2.15.66-.73,1.3-1.48,1.92-2.24.62-.76,1.22-1.54,1.8-2.33.58-.79,1.14-1.59,1.68-2.4.54-.82,1.05-1.64,1.55-2.48.49-.84.96-1.69,1.41-2.55.45-.86.88-1.73,1.28-2.61.4-.88.78-1.77,1.14-2.66.36-.9.69-1.8,1-2.71.31-.91.6-1.83.86-2.76.26-.92.5-1.85.71-2.79.21-.93.4-1.87.56-2.82.16-.94.3-1.89.41-2.84.11-.95.2-1.9.27-2.86.06-.95.1-1.91.11-2.86.01-.96,0-1.91-.04-2.87-.04-.95-.1-1.91-.19-2.86-.09-.95-.2-1.9-.34-2.85-.14-.95-.3-1.89-.48-2.83-.19-.94-.4-1.88-.63-2.81-.24-.93-.5-1.86-.78-2.77s-.59-1.83-.92-2.73c-.33-.9-.69-1.8-1.07-2.69-.38-.89-.78-1.77-1.21-2.64-.43-.87-.87-1.73-1.34-2.58-.47-.85-.96-1.69-1.48-2.52-.51-.83-1.05-1.64-1.61-2.44-.56-.8-1.14-1.59-1.73-2.37-.6-.78-1.22-1.54-1.86-2.29-.64-.75-1.3-1.48-1.98-2.2-.68-.72-1.38-1.42-2.09-2.11-.71-.69-1.45-1.36-2.2-2.01-.75-.65-1.51-1.29-2.3-1.91-.78-.62-1.58-1.22-2.4-1.8-.81-.58-1.64-1.15-2.49-1.69-.84-.54-1.7-1.07-2.57-1.57-.87-.5-1.76-.99-2.66-1.46-.9-.47-1.81-.91-2.73-1.34-.92-.42-1.85-.83-2.79-1.21-.94-.38-1.89-.74-2.85-1.08-.96-.34-1.93-.65-2.91-.95-.98-.29-1.96-.57-2.96-.82-.99-.25-1.99-.47-2.99-.68-1-.21-2.01-.39-3.02-.55-1.01-.16-2.03-.29-3.05-.41-1.02-.11-2.05-.2-3.07-.27-1.02-.07-2.05-.11-3.08-.13-1.03-.02-2.05-.01-3.08.01-1.03.03-2.05.08-3.08.15-1.03.07-2.06.17-3.09.3-1.03.12-2.05.27-3.07.44-1.02.17-2.04.36-3.05.58-1.01.22-2.02.46-3.01.72-1,.26-1.99.55-2.97.85-.98.31-1.96.64-2.92.99-.97.35-1.92.72-2.86,1.12-.95.4-1.88.81-2.8,1.25-.92.44-1.84.9-2.73,1.38-.9.48-1.78.98-2.66,1.5-.87.52-1.73,1.06-2.57,1.62-.84.56-1.67,1.14-2.48,1.74-.81.6-1.61,1.22-2.39,1.85-.78.64-1.54,1.29-2.29,1.96-.75.67-1.47,1.36-2.18,2.06-.71.7-1.4,1.42-2.07,2.16-.67.73-1.32,1.48-1.95,2.25s-1.24,1.54-1.83,2.34c-.59.79-1.16,1.6-1.71,2.42s-1.07,1.65-1.58,2.5c-.5.84-.98,1.7-1.44,2.56-.46.87-.89,1.74-1.31,2.63-.41.89-.8,1.78-1.16,2.68s-.7,1.81-1.02,2.73c-.32.92-.61,1.84-.88,2.78-.27.93-.51,1.87-.73,2.81-.22.94-.41,1.89-.58,2.84-.17.95-.31,1.91-.42,2.86-.12.96-.21,1.92-.27,2.88-.07.96-.11,1.93-.12,2.89-.01.97,0,1.93.04,2.9.04.96.1,1.92.19,2.89.09.96.2,1.92.34,2.88.14.95.3,1.91.49,2.86.19.95.41,1.89.64,2.83.24.94.5,1.87.79,2.8s.6,1.85.94,2.76c.34.91.7,1.82,1.08,2.71.39.9.8,1.78,1.23,2.66.43.88.89,1.74,1.36,2.6.48.86.98,1.7,1.5,2.53.52.83,1.07,1.65,1.63,2.46.57.81,1.15,1.6,1.76,2.38.61.78,1.24,1.55,1.88,2.3.65.75,1.32,1.49,2.01,2.21.69.72,1.39,1.43,2.12,2.12.73.69,1.47,1.36,2.23,2.01.76.66,1.54,1.29,2.33,1.91.8.62,1.61,1.22,2.43,1.8.83.58,1.67,1.15,2.52,1.69.86.54,1.73,1.07,2.61,1.57.88.5,1.78.99,2.69,1.45.91.46,1.83.9,2.76,1.32.93.42,1.88.82,2.83,1.19.95.38,1.92.73,2.89,1.07.97.33,1.96.64,2.95.93.99.29,1.99.55,2.99.8,1,.24,2.01.46,3.03.65,1.02.2,2.04.37,3.06.51,1.02.15,2.05.27,3.08.38,1.03.1,2.06.18,3.1.23,1.04.05,2.07.08,3.11.09,1.04,0,2.07,0,3.11-.05,1.04-.04,2.07-.1,3.1-.19Z"/><path class="cls-1" d="M80.47,334.38h185.72v52.94H80.47c-7.51-8.82-15.02-17.65-22.54-26.47,7.51-8.82,15.02-17.65,22.54-26.47Z"/><ellipse class="cls-1" cx="79.37" cy="360.85" rx="28.45" ry="26.47"/><path class="cls-1" d="M443.37,387.32h-185.72v-52.94h185.72c7.51,8.82,15.02,17.65,22.54,26.47-7.51,8.82-15.02,17.65-22.54,26.47Z"/><ellipse class="cls-1" cx="444.47" cy="360.85" rx="28.45" ry="26.47"/><path class="cls-1" d="M1020.26,334.38h185.72v52.94h-185.72c-7.51-8.82-15.02-17.65-22.54-26.47,7.51-8.82,15.02-17.65,22.54-26.47Z"/><ellipse class="cls-1" cx="1020.1" cy="360.85" rx="28.45" ry="26.47"/><path class="cls-1" d="M142.11,552.32h185.72v52.94h-185.72c-7.51-8.82-15.02-17.65-22.54-26.47,7.51-8.82,15.02-17.65,22.54-26.47Z"/><ellipse class="cls-1" cx="141.01" cy="578.79" rx="28.45" ry="26.47"/><path class="cls-1" d="M199.01,769.37h185.72v52.94h-185.72c-7.51-8.82-15.02-17.65-22.54-26.47,7.51-8.82,15.02-17.65,22.54-26.47Z"/><ellipse class="cls-1" cx="197.91" cy="795.84" rx="28.45" ry="26.47"/><path class="cls-1" d="M702.03,559.1c.05,0,.07.06.01.08-10.59,2.87-21.92,7.17-31.29,13.63-39.37,27.14-45.82,67.47-46.1,69.35,0,.03.02.05.06.04,1.58-.77,31.69-15.62,68.46-45.57,13.62-11.09,23.02-19.77,29.51-26.35.03-.03.08,0,.08.03v113.99c0,6.88,5.68,12.82,13.07,13.12,7.84.32,14.31-5.5,14.31-12.72v-114.39s.05-.06.08-.03c6.48,6.58,15.89,15.26,29.51,26.35,36.77,29.95,66.88,44.8,68.46,45.57.03.01.06,0,.06-.04-.28-1.87-6.74-42.2-46.1-69.35-9.37-6.46-20.7-10.77-31.29-13.63-.05-.01-.04-.08.01-.08,25.47,2.36,65.45,3.24,121.32-3.39,105.03-12.46,192.82-77.54,195.85-79.81.03-.02.01-.07-.03-.07-3.68-.27-101.6-7.12-204.98,13.13-19.28,3.78-39.64,10.76-58.86,18.78-.05.02-.09-.04-.05-.07,26.96-18.42,58.38-43.61,91.72-77.7,96.52-98.69,118.93-243.12,119.55-247.24,0-.04-.03-.06-.06-.04-3.35,2.15-113.09,73.18-199.66,179.39-22.09,27.11-42.26,62.81-58.56,96.03-.02.05-.1.02-.08-.03,12.91-44.13,23.91-103.1,23.91-176C800.94,107.83,738.12,2.73,736.48.02c-.02-.03-.05-.03-.07,0-1.64,2.72-64.46,107.81-64.46,282.07,0,69.08,9.87,125.65,21.89,168.94.01.05-.06.07-.08.03-15.31-31.46-33.86-64.48-54.18-90.01-85.26-107.13-194.13-179.31-197.45-181.5-.03-.02-.07,0-.07.04.57,4.13,21.2,148.78,116.51,248.49,34.72,36.32,67.44,62.74,95.12,81.68.04.03,0,.09-.05.07-20.63-8.88-42.85-16.76-63.79-20.87-103.37-20.25-201.3-13.39-204.98-13.13-.04,0-.06.05-.03.07,3.03,2.27,90.82,67.34,195.85,79.81,55.87,6.63,95.85,5.74,121.32,3.39Z"/><path class="cls-1" d="M475.25,606.09l-185.72-.24.08-52.94,185.72.24c7.5,8.83,15,17.67,22.5,26.5-7.53,8.81-15.05,17.63-22.58,26.44Z"/><ellipse class="cls-1" cx="476.39" cy="579.62" rx="28.45" ry="26.47"/><path class="cls-1" d="M987.06,552.32h185.72v52.94h-185.72c-7.51-8.82-15.02-17.65-22.54-26.47,7.51-8.82,15.02-17.65,22.54-26.47Z"/><ellipse class="cls-1" cx="985.96" cy="578.79" rx="28.45" ry="26.47"/></svg>