<svg width="100" height="100" viewBox="0 0 100 100" xmlns="http://www.w3.org/2000/svg">
  <!-- Shopping Cart -->
  <path d="M10 10 L20 10 L30 40 L70 40 L80 20 L95 20" stroke="#3B7F3C" stroke-width="3" fill="none"/>
  <line x1="30" y1="40" x2="35" y2="60" stroke="#3B7F3C" stroke-width="3"/>
  <line x1="70" y1="40" x2="65" y2="60" stroke="#3B7F3C" stroke-width="3"/>
  <line x1="30" y1="60" x2="70" y2="60" stroke="#3B7F3C" stroke-width="3"/>
  
  <!-- Cart Wheels -->
  <circle cx="35" cy="70" r="6" fill="#3B7F3C"/>
  <circle cx="65" cy="70" r="6" fill="#3B7F3C"/>
  
  <!-- Cannabis Leaf -->
  <g transform="translate(50, 25) scale(0.8)">
    <path d="M0 -20 C-3 -15, -5 -10, -7 -5 L-3 -5 C-2 -3, -1 -1, 0 0 C1 -1, 2 -3, 3 -5 L7 -5 C5 -10, 3 -15, 0 -20" fill="#3B7F3C"/>
    <path d="M0 -20 C-8 -10, -10 -5, -12 0 L-8 0 C-5 2, -2 3, 0 3 C2 3, 5 2, 8 0 L12 0 C10 -5, 8 -10, 0 -20" fill="#3B7F3C" transform="rotate(45)"/>
    <path d="M0 -20 C-8 -10, -10 -5, -12 0 L-8 0 C-5 2, -2 3, 0 3 C2 3, 5 2, 8 0 L12 0 C10 -5, 8 -10, 0 -20" fill="#3B7F3C" transform="rotate(-45)"/>
    <path d="M0 -20 C-8 -10, -10 -5, -12 0 L-8 0 C-5 2, -2 3, 0 3 C2 3, 5 2, 8 0 L12 0 C10 -5, 8 -10, 0 -20" fill="#3B7F3C" transform="rotate(90)"/>
    <path d="M0 -20 C-8 -10, -10 -5, -12 0 L-8 0 C-5 2, -2 3, 0 3 C2 3, 5 2, 8 0 L12 0 C10 -5, 8 -10, 0 -20" fill="#3B7F3C" transform="rotate(-90)"/>
    <path d="M0 -20 C-6 -12, -8 -6, -10 0 L-6 0 C-3 2, -1 3, 0 3 C1 3, 3 2, 6 0 L10 0 C8 -6, 6 -12, 0 -20" fill="#3B7F3C" transform="rotate(135)"/>
    <path d="M0 -20 C-6 -12, -8 -6, -10 0 L-6 0 C-3 2, -1 3, 0 3 C1 3, 3 2, 6 0 L10 0 C8 -6, 6 -12, 0 -20" fill="#3B7F3C" transform="rotate(-135)"/>
    <line x1="0" y1="0" x2="0" y2="8" stroke="#3B7F3C" stroke-width="1"/>
  </g>
</svg> 